<svg width="443" height="388" viewBox="0 0 443 388" fill="none" xmlns="http://www.w3.org/2000/svg">
<path opacity="0.18" d="M439.875 316.018C429.411 358.044 380.412 382.713 334.183 386.984C328.009 387.558 321.821 387.872 315.647 387.963C280.852 388.525 246.029 382.53 211.108 380.193C205.834 379.84 200.56 379.566 195.286 379.422C145.527 377.999 91.0712 386.109 49.7368 360.329C17.1362 340.008 1.15941 302.175 0.104606 265.752C-0.950201 229.329 6.01549 177.873 19.0388 143.5C35.7892 99.2934 60.5802 70.2372 96.8515 37.6536C129.551 8.30882 171.11 -3.58844 215.721 0.930166C257.309 5.13534 300.218 6.93756 341.398 12.1222C400.313 19.54 446.555 76.2707 438.215 130.964C435.121 151.285 425.656 170.548 423.954 191.038C420.424 233.168 450.128 274.789 439.875 316.018Z" fill="#FF0D11"/>
<path d="M217.148 235.773C196.828 259.922 181.023 277.484 178.766 317C199.086 317 325.523 317 325.523 317C321.234 302.291 303.171 283.192 284.883 259.922L228.438 226.992L217.148 235.773Z" fill="#FF0D11"/>
<path d="M324.62 90.0047C332.974 111.958 319.202 128.203 316.492 132.813C313.783 137.423 254.402 177.817 253.499 202.185C252.596 226.553 258.015 228.309 258.015 228.309C258.015 228.309 242.21 232.261 231.147 242.579C194.119 277.265 165.67 252.019 153.93 231.602C174.25 196.477 136.545 120.739 185.991 72.6617C227.534 32.0484 304.977 37.3172 324.62 90.0047Z" fill="black"/>
<path d="M281.496 203.722C281.496 203.722 279.464 251.141 284.883 259.922C248.758 270.898 231.147 242.359 231.147 242.359C231.147 242.359 244.242 231.383 229.115 158.059C276.077 179.134 281.496 203.722 281.496 203.722Z" fill="#FFC298"/>
<path d="M281.045 223.699C281.045 212.723 281.496 203.722 281.496 203.722C281.496 203.722 241.081 176.061 241.984 184.403C243.565 201.088 257.112 216.235 281.045 223.699Z" fill="#E1927A"/>
<path d="M313.783 102.079C319.202 116.129 314.912 121.178 318.524 138.96C321.008 151.913 324.62 165.963 330.039 170.353C324.62 179.134 313.783 179.134 313.783 179.134C313.783 179.134 313.331 220.406 281.496 214.259C236.566 205.478 225.728 161.791 225.728 161.791C225.728 161.791 211.278 174.085 205.859 160.035C200.441 145.985 213.084 123.373 227.534 142.473C229.341 119.641 250.113 109.982 263.434 102.298C299.559 81.2235 308.59 88.2485 313.783 102.079Z" fill="#FFC298"/>
<path d="M313.783 102.079C319.202 116.129 314.912 121.178 318.524 138.96C321.008 151.913 324.62 165.963 330.039 170.353C324.62 179.134 313.783 179.134 313.783 179.134C313.783 179.134 313.331 220.406 281.496 214.259C236.566 205.478 225.728 161.791 225.728 161.791C225.728 161.791 211.278 174.085 205.859 160.035C200.441 145.985 213.084 123.373 227.534 142.473C229.341 119.641 250.113 109.982 263.434 102.298C299.559 81.2235 308.59 88.2485 313.783 102.079Z" fill="#FFC298"/>
<path d="M220.309 126.666C224.148 131.716 227.534 142.473 227.534 142.473C227.534 142.473 279.69 135.448 283.302 102.298C290.527 107.567 290.527 119.861 290.527 119.861C290.527 119.861 310.396 118.105 314.009 102.298C326.427 47.4156 234.759 69.1492 220.309 84.7359C205.859 100.323 214.891 119.641 220.309 126.666Z" fill="black"/>
<path d="M218.277 144.229C218.052 145.766 217.6 146.863 217.6 147.961C217.374 149.059 217.374 149.937 217.148 150.815C217.148 151.693 217.148 152.571 217.148 153.669C217.148 154.327 217.374 154.766 217.374 155.425C217.374 156.084 217.6 156.742 217.6 157.62V157.84C217.6 158.498 216.923 159.157 216.245 159.157C216.02 159.157 216.02 159.157 215.794 159.157C214.891 158.938 214.213 158.498 213.536 157.84C212.859 157.181 212.181 156.742 211.73 155.864C210.827 154.108 210.375 152.352 210.375 150.376C210.375 148.4 211.278 146.644 212.407 145.107C213.536 143.79 215.116 142.692 216.923 142.473C217.6 142.253 218.277 142.692 218.277 143.351C218.277 143.57 218.277 143.57 218.277 143.79V144.229Z" fill="#E1927A"/>
<path d="M314.234 317C326.704 317 336.812 307.171 336.812 295.047C336.812 282.922 326.704 273.094 314.234 273.094C301.765 273.094 291.656 282.922 291.656 295.047C291.656 307.171 301.765 317 314.234 317Z" fill="#ECC6C3"/>
<path d="M314.234 306.023C320.469 306.023 325.523 301.109 325.523 295.047C325.523 288.985 320.469 284.07 314.234 284.07C308 284.07 302.945 288.985 302.945 295.047C302.945 301.109 308 306.023 314.234 306.023Z" fill="#E44450"/>
<path d="M200.441 293.949C212.91 293.949 223.019 284.12 223.019 271.996C223.019 259.872 212.91 250.043 200.441 250.043C187.971 250.043 177.862 259.872 177.862 271.996C177.862 284.12 187.971 293.949 200.441 293.949Z" fill="#ECC6C3"/>
<path d="M200.441 282.973C206.675 282.973 211.73 278.058 211.73 271.996C211.73 265.934 206.675 261.02 200.441 261.02C194.206 261.02 189.151 265.934 189.151 271.996C189.151 278.058 194.206 282.973 200.441 282.973Z" fill="#E44450"/>
<path d="M336.587 284.29L352.391 274.191L351.263 278.143L346.521 273.313L344.263 271.337L347.424 268.264L358.262 257.287L365.938 268.264L351.714 274.191L352.617 269.142L355.552 275.07L357.133 278.143L354.649 279.021L336.587 284.29Z" fill="#E44450"/>
<path d="M340.877 296.364L359.616 295.266L356.681 298.12L355.101 291.754L354.198 288.9L358.488 287.583L373.389 283.412L374.518 296.584L359.165 295.047L362.552 290.876L362.1 297.681L361.874 300.974L359.165 300.535L340.877 296.364Z" fill="#E44450"/>
<path d="M173.121 281.216L156.413 289.778L157.768 286.046L162.058 291.315L163.864 293.51L160.703 296.145L148.737 306.023L142.189 294.608L156.865 289.778L155.51 294.827L153.027 288.68L151.898 285.388L154.607 284.948L173.121 281.216Z" fill="#E44450"/>
<path d="M169.96 268.923L150.995 268.045L154.155 265.63L155.284 272.216L155.736 275.07L151.446 275.948L136.319 278.582V265.41L151.672 268.484L147.834 272.216L148.962 265.63L149.414 262.117L152.123 262.995L169.96 268.923Z" fill="#E44450"/>
</svg>
