<svg width="477" height="404" viewBox="0 0 477 404" fill="none" xmlns="http://www.w3.org/2000/svg">
<path opacity="0.18" d="M439.792 332.003C429.328 374.029 380.329 398.698 334.1 402.969C327.926 403.543 321.738 403.857 315.564 403.948C280.769 404.51 245.947 398.515 211.025 396.178C205.751 395.825 200.477 395.551 195.203 395.407C145.445 393.984 90.9883 402.094 49.6539 376.314C17.0533 355.993 1.07652 318.16 0.0217149 281.737C-1.03309 245.314 36.6306 222.858 49.654 188.485C66.4043 144.278 60.4973 86.2223 96.7687 53.6387C129.468 24.2939 121.389 -2.91135 166 1.60725C207.588 5.81243 192.511 -3.57739 233.69 1.60725C292.605 9.02508 448.132 40.7916 439.792 95.4851C436.698 115.806 478.119 205.995 476.417 226.485C472.887 268.615 450.045 290.774 439.792 332.003Z" fill="#FF0D11"/>
<path d="M334.719 228.438C337.854 228.754 340.742 230.317 342.759 232.79C344.777 235.264 345.761 238.448 345.5 241.656C345.761 244.865 344.777 248.049 342.759 250.522C340.742 252.995 337.854 254.559 334.719 254.875C334.106 257.343 332.721 259.539 330.775 261.129C328.829 262.72 326.428 263.618 323.938 263.688C317.512 263.688 315.313 259.281 315.313 250.469L302.375 246.063V237.25L315.313 232.844C315.313 224.031 317.512 219.625 323.938 219.625C326.428 219.695 328.829 220.593 330.775 222.183C332.721 223.774 334.106 225.97 334.719 228.438V228.438Z" fill="#F2F2F2"/>
<path d="M364.906 184.375C368.042 184.691 370.93 186.255 372.947 188.728C374.964 191.201 375.948 194.386 375.688 197.594C375.948 200.802 374.964 203.986 372.947 206.46C370.93 208.933 368.042 210.496 364.906 210.813C364.293 213.28 362.908 215.476 360.963 217.067C359.017 218.657 356.616 219.556 354.125 219.625C347.699 219.625 345.5 215.219 345.5 206.406L332.562 202V193.188L345.5 188.781C345.5 179.969 347.699 175.563 354.125 175.563C356.616 175.632 359.017 176.53 360.963 178.121C362.908 179.711 364.293 181.907 364.906 184.375V184.375Z" fill="#F2F2F2"/>
<path d="M142.812 83.0313H116.937C115.681 83.0307 114.44 82.7497 113.301 82.2078C112.162 81.666 111.152 80.8764 110.343 79.8943C109.534 78.9123 108.944 77.7614 108.616 76.5223C108.288 75.2832 108.228 73.9857 108.442 72.7206C108.858 70.6194 109.985 68.735 111.626 67.3976C113.266 66.0603 115.314 65.3553 117.412 65.4063H118.576C120.489 65.4002 122.393 65.6823 124.225 66.2435C131.729 68.6669 142.812 74.1306 142.812 83.0313Z" fill="#B3F5FF"/>
<path d="M142.812 131.5L131.729 153.531C130.996 154.881 129.92 156.002 128.614 156.778C127.309 157.554 125.822 157.954 124.312 157.938C122.198 157.749 120.24 156.72 118.861 155.072C117.482 153.424 116.791 151.288 116.937 149.125C116.945 148.786 116.974 148.447 117.024 148.112C117.075 147.531 117.176 146.956 117.325 146.393C117.325 146.381 117.33 146.37 117.338 146.362C117.346 146.354 117.357 146.349 117.369 146.349C117.415 146.092 117.487 145.841 117.584 145.6C119.094 140.445 124.355 131.5 142.812 131.5Z" fill="#B3F5FF"/>
<path d="M259.034 227.16C259.228 227.834 259.262 228.544 259.134 229.234C259.007 229.924 258.721 230.573 258.3 231.128C257.879 231.683 257.335 232.128 256.713 232.426C256.091 232.724 255.409 232.868 254.722 232.844H229.278C228.591 232.868 227.909 232.724 227.287 232.426C226.665 232.128 226.121 231.683 225.7 231.128C225.279 230.573 224.993 229.924 224.866 229.234C224.738 228.544 224.772 227.834 224.966 227.16C226.005 223.457 228.274 220.24 231.382 218.061C234.491 215.882 238.245 214.877 242 215.219C245.755 214.877 249.509 215.882 252.618 218.061C255.726 220.24 257.995 223.457 259.034 227.16Z" fill="#D9896D"/>
<path d="M333.08 162.784L319.625 179.969L319.151 180.013C319.46 178.55 319.619 177.059 319.625 175.563V171.156C319.618 168.821 318.707 166.584 317.091 164.933C315.475 163.282 313.285 162.351 311 162.344H302.375V144.719C280.812 144.719 280.812 109.469 280.812 109.469C280.812 109.469 267.875 131.5 254.938 131.5L259.207 113.963C257.913 115.77 236.739 144.719 207.5 144.719V118.281L181.625 140.313V162.344H173C170.715 162.351 168.525 163.282 166.909 164.933C165.293 166.584 164.382 168.821 164.375 171.156V175.563C164.485 180.29 165.972 184.877 168.644 188.737C167.351 188.209 147.125 179.264 147.125 157.938C147.369 151.144 149.035 144.483 152.011 138.402C154.986 132.322 159.202 126.963 164.375 122.688C157.15 122.842 150.038 120.841 143.91 116.927C137.782 113.014 132.905 107.36 129.875 100.656C129.875 100.656 164.375 96.2501 181.625 87.4376C198.875 78.6251 207.5 65.4064 242 65.4064C250.412 65.1435 258.755 67.0189 266.282 70.8642C273.809 74.7095 280.284 80.4044 285.125 87.4376C286.944 84.5049 289.512 82.1346 292.551 80.5818C295.591 79.029 298.987 78.3525 302.375 78.6251C315.312 78.6251 336.875 87.4376 336.875 113.875V151.769C336.876 155.775 335.537 159.662 333.08 162.784V162.784Z" fill="black"/>
<path d="M280.812 109.469C280.812 109.469 280.812 144.719 302.375 144.719V162.344H311C313.285 162.351 315.475 163.281 317.091 164.933C318.707 166.584 319.618 168.821 319.625 171.156V175.563C319.619 177.059 319.46 178.55 319.151 180.013C317.676 185.167 314.98 189.87 311.302 193.705C307.623 197.54 303.076 200.389 298.062 202C296.556 210.966 293.05 219.457 287.815 226.815C282.58 234.174 275.757 240.202 267.875 244.432C259.9 248.603 251.073 250.787 242.115 250.806C233.156 250.824 224.32 248.677 216.329 244.539C208.338 240.4 201.419 234.389 196.137 226.996C190.855 219.603 187.36 211.037 185.938 202C178.914 199.665 172.848 195.016 168.688 188.781L168.644 188.737C165.972 184.877 164.485 180.29 164.375 175.563V171.156C164.382 168.821 165.293 166.584 166.909 164.933C168.525 163.281 170.715 162.351 173 162.344H181.625V140.313L207.5 118.281V144.719C236.739 144.719 257.913 115.77 259.207 113.963L254.938 131.5C267.875 131.5 280.812 109.469 280.812 109.469ZM254.722 232.844C255.409 232.867 256.091 232.724 256.713 232.426C257.335 232.127 257.879 231.683 258.3 231.128C258.721 230.573 259.007 229.924 259.134 229.234C259.262 228.544 259.228 227.833 259.034 227.16C257.995 223.457 255.726 220.24 252.618 218.061C249.509 215.882 245.755 214.877 242 215.219C238.245 214.877 234.491 215.882 231.382 218.061C228.274 220.24 226.005 223.457 224.966 227.16C224.772 227.833 224.738 228.544 224.866 229.234C224.993 229.924 225.279 230.573 225.7 231.128C226.121 231.683 226.665 232.127 227.287 232.426C227.909 232.724 228.591 232.867 229.278 232.844H254.722Z" fill="#F2C4B2"/>
<path d="M271.885 272.941C269.624 275.786 266.877 278.19 263.778 280.035C262.619 279.468 261.354 279.167 260.069 279.153C259.115 279.141 258.169 279.326 257.287 279.697C256.405 280.068 255.606 280.618 254.937 281.313L250.625 285.719L250.495 285.631L257.18 278.757C257.873 278.047 258.399 277.184 258.715 276.234C259.032 275.284 259.132 274.273 259.007 273.278C258.882 272.282 258.536 271.329 257.995 270.492C257.454 269.655 256.733 268.955 255.886 268.446C254.605 267.679 253.144 267.283 251.66 267.301C250.597 267.287 249.542 267.491 248.557 267.899C247.572 268.308 246.677 268.913 245.924 269.68L224.965 289.905L244.544 270.209C245.222 269.526 245.727 268.685 246.017 267.758C246.306 266.831 246.371 265.847 246.206 264.889C246.04 263.931 245.649 263.028 245.067 262.259C244.485 261.489 243.728 260.876 242.862 260.471C241.569 259.69 240.095 259.279 238.593 259.281C237.523 259.263 236.46 259.465 235.468 259.873C234.475 260.282 233.573 260.89 232.814 261.661L216.384 277.303C214.815 276.005 213.384 274.543 212.114 272.941C213.347 272.161 214.363 271.071 215.065 269.774C215.767 268.478 216.132 267.02 216.125 265.538V244.432C224.196 248.405 233.04 250.469 242 250.469C250.959 250.469 259.803 248.405 267.875 244.432V265.538C267.867 267.02 268.232 268.478 268.934 269.774C269.636 271.071 270.653 272.161 271.885 272.941V272.941Z" fill="#ED9776"/>
<path d="M276.5 298.938V312.157L270.678 306.605L274.646 302.595C275.228 302.016 275.693 301.325 276.011 300.56C276.329 299.796 276.496 298.975 276.5 298.145H276.543C276.507 298.407 276.493 298.673 276.5 298.938V298.938Z" fill="#FF0D11"/>
<path d="M276.5 298.145C276.495 298.975 276.329 299.796 276.011 300.56C275.692 301.325 275.228 302.016 274.645 302.595L270.678 306.605L259.983 296.47L263.174 293.694C264.719 292.155 266.795 291.3 268.953 291.315C270.42 291.325 271.861 291.719 273.136 292.461C274.138 293.02 274.977 293.841 275.567 294.84C276.158 295.838 276.48 296.978 276.5 298.145V298.145Z" fill="#F2A283"/>
<path d="M264.511 280.431C265.381 280.896 266.131 281.563 266.701 282.38C267.271 283.196 267.645 284.138 267.792 285.13C267.939 286.121 267.855 287.134 267.547 288.086C267.239 289.038 266.716 289.903 266.02 290.61L259.724 296.206L251.185 288.098C250.427 287.327 249.524 286.719 248.532 286.311C247.539 285.902 246.477 285.701 245.407 285.719C243.905 285.717 242.43 286.128 241.137 286.909C240.271 287.313 239.515 287.927 238.932 288.696C238.35 289.466 237.959 290.368 237.794 291.326C237.628 292.284 237.693 293.269 237.983 294.196C238.272 295.122 238.777 295.963 239.455 296.646L259.25 316.563L238.075 296.118C237.323 295.351 236.427 294.745 235.443 294.337C234.458 293.928 233.403 293.725 232.34 293.738C230.855 293.721 229.394 294.117 228.114 294.884C227.267 295.392 226.546 296.092 226.005 296.93C225.464 297.767 225.117 298.72 224.993 299.715C224.868 300.71 224.967 301.722 225.284 302.671C225.601 303.621 226.126 304.484 226.82 305.194L250.754 329.781H250.625L229.45 308.103C227.906 306.563 225.829 305.708 223.672 305.723C222.204 305.733 220.764 306.127 219.489 306.869C218.619 307.333 217.869 308.001 217.299 308.817C216.729 309.634 216.355 310.576 216.208 311.567C216.061 312.558 216.145 313.571 216.452 314.523C216.76 315.476 217.283 316.34 217.979 317.047L220.739 320.044C219.208 318.548 217.165 317.725 215.047 317.752C213.579 317.762 212.139 318.156 210.864 318.898C209.994 319.357 209.244 320.02 208.674 320.833C208.104 321.645 207.73 322.584 207.582 323.572C207.435 324.561 207.519 325.571 207.827 326.52C208.135 327.468 208.658 328.33 209.354 329.032L218.755 338.594H188.05C183.538 332.201 181.273 324.437 181.625 316.563L190.25 303.344V272.5C190.343 270.193 191.282 268.007 192.879 266.374C194.477 264.742 196.617 263.783 198.875 263.688C201.132 263.783 203.272 264.742 204.87 266.374C206.468 268.007 207.406 270.193 207.5 272.5V285.719L216.384 277.303L232.814 261.661C233.573 260.89 234.475 260.282 235.468 259.873C236.46 259.465 237.523 259.263 238.593 259.281C240.095 259.279 241.569 259.69 242.862 260.471C243.728 260.876 244.485 261.489 245.067 262.259C245.649 263.028 246.04 263.931 246.206 264.889C246.371 265.847 246.306 266.831 246.017 267.758C245.727 268.685 245.222 269.526 244.544 270.209L224.965 289.905L245.924 269.68C246.677 268.913 247.572 268.308 248.557 267.899C249.542 267.491 250.597 267.287 251.66 267.301C253.144 267.283 254.605 267.679 255.886 268.446C256.733 268.955 257.454 269.655 257.995 270.492C258.536 271.329 258.882 272.282 259.007 273.278C259.132 274.273 259.032 275.284 258.715 276.234C258.399 277.184 257.873 278.047 257.18 278.757L250.495 285.631L250.625 285.719L254.937 281.313C255.606 280.618 256.405 280.068 257.287 279.697C258.169 279.326 259.115 279.141 260.069 279.153C261.354 279.167 262.619 279.468 263.778 280.035C264.037 280.167 264.252 280.299 264.511 280.431Z" fill="#F2A283"/>
<path d="M220.826 320.132L237.688 338.594H218.756L209.354 329.032C208.658 328.33 208.135 327.469 207.827 326.52C207.519 325.571 207.435 324.561 207.583 323.572C207.73 322.584 208.104 321.645 208.674 320.833C209.244 320.02 209.995 319.357 210.864 318.898C212.139 318.156 213.58 317.762 215.047 317.752C217.165 317.725 219.209 318.548 220.739 320.044L220.826 320.132Z" fill="#F2BCA7"/>
<path d="M270.678 306.604L276.5 312.156V298.938C276.493 298.672 276.507 298.407 276.543 298.144C276.824 295.991 277.839 294.008 279.408 292.541C280.977 291.075 283.001 290.22 285.125 290.125C287.382 290.22 289.522 291.179 291.12 292.812C292.718 294.444 293.657 296.631 293.75 298.938V329.781L302.375 338.594H237.687L220.825 320.132L220.739 320.044L217.979 317.047C217.283 316.34 216.76 315.476 216.453 314.523C216.145 313.571 216.061 312.558 216.208 311.567C216.355 310.576 216.729 309.634 217.299 308.817C217.869 308.001 218.619 307.333 219.489 306.869C220.764 306.127 222.204 305.733 223.672 305.723C225.829 305.708 227.906 306.563 229.45 308.103L250.625 329.781H250.754L226.82 305.194C226.126 304.484 225.601 303.621 225.284 302.671C224.968 301.722 224.868 300.71 224.993 299.715C225.118 298.72 225.464 297.767 226.005 296.93C226.546 296.092 227.267 295.392 228.114 294.884C229.394 294.117 230.855 293.721 232.34 293.738C233.403 293.725 234.458 293.928 235.443 294.337C236.428 294.745 237.323 295.351 238.075 296.118L259.25 316.563L239.455 296.646C238.778 295.963 238.272 295.122 237.983 294.196C237.693 293.269 237.629 292.284 237.794 291.326C237.959 290.368 238.35 289.466 238.933 288.696C239.515 287.927 240.272 287.313 241.137 286.909C242.43 286.128 243.905 285.717 245.407 285.719C246.477 285.701 247.539 285.902 248.532 286.311C249.524 286.719 250.427 287.327 251.185 288.098L259.724 296.206L259.983 296.47L270.678 306.604Z" fill="#F2BCA7"/>
<path d="M216.384 277.303L207.5 285.719V274.615L209.484 274.13C210.43 273.918 211.324 273.513 212.114 272.941C213.384 274.543 214.815 276.005 216.384 277.303Z" fill="#FF0D11"/>
<path d="M188.051 338.594H151.438L181.625 316.563C181.273 324.437 183.538 332.201 188.051 338.594V338.594Z" fill="#FF0D11"/>
<path d="M190.25 278.801V303.344L181.625 316.563L151.438 338.594H125.562V315.417C125.567 309.47 127.531 303.698 131.137 299.03C134.743 294.362 139.783 291.07 145.443 289.685L190.25 278.801Z" fill="#FF0D11"/>
<path d="M274.516 274.13L338.557 289.684C344.217 291.07 349.256 294.361 352.863 299.029C356.469 303.697 358.433 309.47 358.437 315.417V338.594H302.375L293.75 329.781V298.937C293.657 296.631 292.718 294.444 291.12 292.812C289.522 291.179 287.382 290.22 285.125 290.125C283.001 290.22 280.977 291.075 279.408 292.541C277.839 294.007 276.824 295.991 276.543 298.144H276.5C276.48 296.978 276.158 295.838 275.568 294.839C274.977 293.841 274.138 293.02 273.136 292.46C271.861 291.719 270.42 291.324 268.953 291.315C266.795 291.299 264.719 292.154 263.174 293.694L259.983 296.47L259.724 296.206L266.02 290.61C266.716 289.903 267.239 289.038 267.547 288.086C267.855 287.134 267.939 286.121 267.792 285.129C267.645 284.138 267.271 283.196 266.701 282.38C266.131 281.563 265.381 280.896 264.511 280.431C264.252 280.299 264.037 280.167 263.778 280.035C266.878 278.19 269.624 275.786 271.885 272.941C272.676 273.513 273.57 273.918 274.516 274.13Z" fill="#FF0D11"/>
<path d="M181.625 171.156H177.312C176.169 171.156 175.072 171.621 174.263 172.447C173.454 173.273 173 174.394 173 175.563V179.969C173 184.838 176.86 193.188 181.625 193.188V171.156Z" fill="#F2A283"/>
<path d="M302.375 171.156H306.688C307.831 171.156 308.928 171.621 309.737 172.447C310.546 173.273 311 174.394 311 175.563V179.969C311 184.838 307.119 193.188 302.375 193.188V171.156Z" fill="#F2A283"/>
<path d="M164.375 122.688C159.202 126.963 154.986 132.322 152.011 138.402C149.035 144.483 147.369 151.144 147.125 157.938C147.125 179.264 167.351 188.209 168.644 188.737C165.972 184.877 164.485 180.29 164.375 175.563V171.156C164.382 168.821 165.293 166.584 166.909 164.933C168.525 163.281 170.715 162.351 173 162.344H181.625V140.313L155.75 149.125C155.303 139.523 158.378 130.095 164.375 122.688Z" fill="black"/>
<path d="M302.375 144.719V162.344H311C313.285 162.351 315.475 163.281 317.091 164.933C318.707 166.584 319.618 168.821 319.625 171.156V153.531L302.375 144.719Z" fill="black"/>
<path d="M211.812 188.781C216.576 188.781 220.438 182.863 220.438 175.563C220.438 168.262 216.576 162.344 211.812 162.344C207.049 162.344 203.188 168.262 203.188 175.563C203.188 182.863 207.049 188.781 211.812 188.781Z" fill="#5E3616"/>
<path d="M207.5 118.281L181.625 140.313V144.719V149.125L207.5 127.094V118.281Z" fill="black"/>
<path d="M280.812 118.281C280.812 118.281 280.812 153.531 302.375 153.531V144.719C280.812 144.719 280.812 109.469 280.812 109.469C280.812 109.469 269.302 129.05 257.137 131.275L254.938 140.313C267.875 140.313 280.812 118.281 280.812 118.281Z" fill="black"/>
<path d="M256.106 126.697L259.207 113.963C257.913 115.77 236.739 144.719 207.5 144.719V153.531C230.891 153.531 249.09 135.025 256.106 126.697Z" fill="black"/>
<path d="M259.25 186.578C258.796 186.578 258.354 186.432 257.986 186.16C257.71 185.955 257.485 185.687 257.33 185.377C257.175 185.067 257.094 184.723 257.094 184.375C257.094 173.263 271.623 167.83 280.282 165.578C280.831 165.449 281.408 165.545 281.888 165.845C282.369 166.145 282.716 166.625 282.855 167.183C282.993 167.741 282.913 168.332 282.63 168.83C282.348 169.328 281.886 169.693 281.343 169.848C276.108 171.209 264.8 174.84 262.032 181.361C268.352 179.953 274.883 179.849 281.244 181.053C281.805 181.17 282.297 181.509 282.613 181.997C282.929 182.485 283.042 183.081 282.928 183.655C282.813 184.228 282.481 184.731 282.003 185.054C281.526 185.377 280.942 185.492 280.381 185.375C273.566 184.123 266.56 184.497 259.91 186.468C259.697 186.54 259.474 186.577 259.25 186.578V186.578Z" fill="#5E3616"/>
<path d="M280.416 151.412C280.506 151.385 280.592 151.363 280.683 151.346C281.977 151.108 282.969 153.21 282.969 154.633C282.969 155.034 282.822 164.547 270.031 164.547C257.24 164.547 257.094 155.034 257.094 154.633C257.074 154.053 257.196 153.476 257.45 152.957C257.704 152.437 258.081 151.991 258.547 151.659C259.487 151.073 260.401 151.619 261.134 152.54C261.492 152.98 261.768 153.544 262.148 153.967C262.526 154.351 262.963 154.668 263.442 154.906C264.575 155.583 265.773 156.14 267.017 156.567C268.669 157.053 270.413 157.109 272.092 156.731C273.77 156.353 275.33 155.553 276.629 154.404C277.709 153.186 278.991 152.173 280.416 151.412Z" fill="black"/>
<path d="M203.584 147.006C203.494 146.979 203.407 146.957 203.317 146.939C202.023 146.702 201.031 148.803 201.031 150.227C201.031 150.627 201.178 160.141 213.969 160.141C226.76 160.141 226.906 150.627 226.906 150.227C226.926 149.646 226.803 149.07 226.55 148.551C226.296 148.031 225.919 147.585 225.453 147.252C224.513 146.666 223.599 147.213 222.865 148.134C222.508 148.574 222.231 149.138 221.852 149.561C221.474 149.945 221.037 150.262 220.558 150.5C219.425 151.177 218.227 151.733 216.983 152.161C215.331 152.646 213.587 152.703 211.908 152.325C210.23 151.947 208.67 151.147 207.371 149.997C206.291 148.78 205.009 147.767 203.584 147.006Z" fill="black"/>
<path d="M242 202C244.382 202 246.312 198.055 246.312 193.188C246.312 188.321 244.382 184.375 242 184.375C239.618 184.375 237.688 188.321 237.688 193.188C237.688 198.055 239.618 202 242 202Z" fill="#D9896D"/>
<path d="M209.354 329.032L218.755 338.594H229.062L210.243 319.365C209.486 319.882 208.852 320.565 208.387 321.364C207.921 322.162 207.635 323.057 207.55 323.983C207.465 324.909 207.583 325.842 207.895 326.715C208.207 327.589 208.705 328.38 209.354 329.032V329.032Z" fill="#F2B096"/>
<path d="M285.125 293.302C285.112 292.159 284.66 291.067 283.866 290.262C281.992 290.631 280.278 291.589 278.963 293.002C277.649 294.416 276.799 296.214 276.534 298.144C276.501 298.407 276.49 298.673 276.5 298.938V312.156L285.125 320.969V293.302Z" fill="#F2B096"/>
<path d="M217.285 308.935C216.429 310.148 216.028 311.634 216.156 313.123C216.283 314.613 216.93 316.005 217.979 317.047L220.739 320.044L220.825 320.132L237.687 338.594H242V334.188L217.285 308.935Z" fill="#F2B096"/>
<path d="M265.719 314.359L239.844 287.9C238.829 288.766 238.13 289.957 237.859 291.279C237.588 292.602 237.762 293.979 238.351 295.188C238.636 295.74 239.018 296.235 239.477 296.646L259.25 316.563L261.406 318.766C261.978 319.35 262.754 319.678 263.562 319.678C264.371 319.678 265.147 319.35 265.719 318.766C266.29 318.181 266.612 317.389 266.612 316.563C266.612 315.736 266.29 314.944 265.719 314.359Z" fill="#F2B096"/>
<path d="M257.094 331.984C257.377 331.695 257.601 331.352 257.755 330.974C257.908 330.596 257.987 330.191 257.987 329.781C257.987 329.372 257.908 328.967 257.755 328.589C257.601 328.211 257.377 327.868 257.094 327.578L226.496 296.316C225.449 297.567 224.9 299.175 224.96 300.82C225.02 302.465 225.684 304.027 226.82 305.195L250.754 329.781H250.625L252.781 331.984C253.064 332.274 253.4 332.503 253.77 332.66C254.14 332.817 254.537 332.897 254.937 332.897C255.338 332.897 255.734 332.817 256.104 332.66C256.474 332.503 256.81 332.274 257.094 331.984V331.984Z" fill="#F2B096"/>
<path d="M210.756 318.977C209.453 318.177 207.963 317.754 206.443 317.752C204.976 317.762 203.535 318.156 202.26 318.898C201.391 319.357 200.641 320.02 200.07 320.833C199.5 321.645 199.126 322.584 198.979 323.572C198.832 324.561 198.916 325.571 199.223 326.52C199.531 327.468 200.055 328.33 200.751 329.032L205.796 334.188H203.187C199.756 334.188 196.465 332.795 194.039 330.316C191.613 327.837 190.25 324.475 190.25 320.969V303.344L181.625 316.563C181.273 324.437 183.538 332.201 188.05 338.594H218.755L209.354 329.032C208.667 328.338 208.149 327.489 207.84 326.554C207.532 325.618 207.442 324.622 207.578 323.644C207.715 322.667 208.073 321.736 208.625 320.925C209.176 320.115 209.906 319.448 210.756 318.977V318.977Z" fill="#ED9776"/>
<path d="M228.006 294.972C226.723 294.182 225.256 293.757 223.759 293.743C222.261 293.728 220.786 294.123 219.489 294.888C218.642 295.397 217.921 296.097 217.38 296.934C216.839 297.771 216.493 298.724 216.368 299.719C216.243 300.715 216.343 301.726 216.659 302.676C216.976 303.625 217.501 304.489 218.195 305.199L219.726 306.772C220.94 306.104 222.293 305.746 223.672 305.728C225.83 305.712 227.906 306.567 229.451 308.107L250.625 329.781H250.754L226.82 305.194C226.136 304.493 225.617 303.642 225.301 302.706C224.984 301.77 224.879 300.773 224.993 299.79C225.107 298.807 225.438 297.863 225.959 297.028C226.481 296.194 227.181 295.491 228.006 294.972V294.972Z" fill="#ED9776"/>
<path d="M232.34 293.738C233.403 293.725 234.458 293.928 235.443 294.337C236.427 294.745 237.323 295.351 238.075 296.118L259.25 316.563L239.455 296.646C238.784 295.967 238.282 295.131 237.994 294.211C237.706 293.291 237.64 292.313 237.802 291.362C237.963 290.41 238.347 289.512 238.921 288.744C239.495 287.976 240.242 287.362 241.098 286.953C239.803 286.157 238.322 285.734 236.811 285.726C235.3 285.718 233.815 286.127 232.512 286.909C231.216 287.589 230.19 288.707 229.607 290.072C229.024 291.436 228.92 292.965 229.312 294.399C230.272 293.988 231.299 293.764 232.34 293.738V293.738Z" fill="#ED9776"/>
<path d="M219.368 306.961C218.067 306.156 216.576 305.728 215.055 305.723C213.588 305.733 212.148 306.127 210.872 306.869C210.002 307.334 209.252 308.001 208.682 308.817C208.112 309.634 207.739 310.576 207.592 311.567C207.445 312.559 207.528 313.571 207.836 314.524C208.144 315.476 208.667 316.34 209.363 317.047L211.014 318.841C212.252 318.141 213.641 317.767 215.055 317.752C217.173 317.725 219.217 318.548 220.748 320.044L217.988 317.047C217.301 316.351 216.782 315.501 216.472 314.565C216.163 313.628 216.072 312.63 216.206 311.651C216.34 310.672 216.695 309.739 217.244 308.924C217.793 308.11 218.52 307.438 219.368 306.961V306.961Z" fill="#ED9776"/>
<path d="M198.875 272.5V283.895C198.875 284.766 199.128 285.618 199.602 286.342C200.076 287.067 200.749 287.631 201.537 287.965C202.325 288.298 203.192 288.385 204.028 288.215C204.865 288.045 205.633 287.626 206.236 287.01L207.5 285.719V272.5C207.407 270.193 206.468 268.007 204.87 266.374C203.272 264.742 201.132 263.783 198.875 263.688C197.387 263.712 195.934 264.158 194.679 264.974C195.956 265.751 197.013 266.852 197.749 268.171C198.484 269.491 198.872 270.982 198.875 272.5Z" fill="#F2B096"/>
<path d="M267.875 244.432C259.803 248.405 250.959 250.469 242 250.469C233.04 250.469 224.196 248.405 216.125 244.432V265.538C216.132 267.02 215.767 268.478 215.065 269.774C214.363 271.071 213.347 272.161 212.114 272.941C213.384 274.543 214.815 276.005 216.384 277.303L232.814 261.661C233.573 260.89 234.475 260.282 235.468 259.873C236.46 259.465 237.523 259.263 238.593 259.281C240.095 259.279 241.569 259.69 242.862 260.471C244.207 261.253 245.267 262.461 245.881 263.912L267.875 252.672V244.432Z" fill="#D9896D"/>
<path d="M334.719 246.063C334.106 248.53 332.721 250.726 330.775 252.317C328.829 253.907 326.428 254.806 323.938 254.875C317.512 254.875 315.313 250.469 315.313 241.656H302.375V246.063L315.313 250.469C315.313 259.281 317.512 263.688 323.938 263.688C326.428 263.618 328.829 262.72 330.775 261.129C332.721 259.539 334.106 257.343 334.719 254.875C337.854 254.559 340.742 252.995 342.759 250.522C344.777 248.049 345.761 244.865 345.5 241.656C345.49 240.163 345.268 238.678 344.84 237.25C344.313 239.64 343.042 241.791 341.217 243.38C339.392 244.969 337.112 245.91 334.719 246.063V246.063Z" fill="#D4D4D4"/>
<path d="M364.906 202C364.293 204.468 362.908 206.664 360.963 208.254C359.017 209.845 356.616 210.743 354.125 210.813C347.699 210.813 345.5 206.406 345.5 197.594H332.562V202L345.5 206.406C345.5 215.219 347.699 219.625 354.125 219.625C356.616 219.556 359.017 218.657 360.963 217.067C362.908 215.476 364.293 213.28 364.906 210.813C368.042 210.496 370.93 208.933 372.947 206.46C374.964 203.986 375.948 200.802 375.688 197.594C375.678 196.1 375.455 194.616 375.028 193.188C374.501 195.577 373.229 197.728 371.404 199.317C369.579 200.906 367.299 201.847 364.906 202Z" fill="#D4D4D4"/>
</svg>
