<svg width="477" height="404" viewBox="0 0 477 404" fill="none" xmlns="http://www.w3.org/2000/svg">
<g clip-path="url(#clip0)">
<path d="M356.724 290.076C361.097 308.48 319.012 350.527 244.969 327.055C185.353 308.156 133.213 300.152 133.213 290.076C133.213 280.001 183.247 290.569 244.969 290.569C306.69 290.569 354.42 280.377 356.724 290.076Z" fill="#3F3D56"/>
<path opacity="0.1" d="M356.724 290.076C361.097 308.48 319.012 350.527 244.969 327.055C185.353 308.156 133.213 300.152 133.213 290.076C133.213 280.001 183.247 290.569 244.969 290.569C306.69 290.569 354.42 280.377 356.724 290.076Z" fill="black"/>
<path d="M356.724 290.076C361.097 308.48 319.012 331.791 244.969 308.319C185.353 289.42 133.213 300.151 133.213 290.076C133.213 280.001 183.247 271.834 244.969 271.834C306.69 271.834 354.42 280.377 356.724 290.076Z" fill="#3F3D56"/>
<path opacity="0.1" d="M280.904 303.293C285.678 303.293 289.548 301.709 289.548 299.755C289.548 297.802 285.678 296.218 280.904 296.218C276.131 296.218 272.261 297.802 272.261 299.755C272.261 301.709 276.131 303.293 280.904 303.293Z" fill="black"/>
<path opacity="0.1" d="M316.144 303.293C320.917 303.293 324.787 301.709 324.787 299.755C324.787 297.802 320.917 296.218 316.144 296.218C311.37 296.218 307.5 297.802 307.5 299.755C307.5 301.709 311.37 303.293 316.144 303.293Z" fill="black"/>
<path opacity="0.1" d="M245 293.073C260.606 293.073 273.258 289.025 273.258 284.032C273.258 279.039 260.606 274.992 245 274.992C229.393 274.992 216.742 279.039 216.742 284.032C216.742 289.025 229.393 293.073 245 293.073Z" fill="black"/>
<path d="M370 256.518V93H120V256.518H235.359V278.376C229.597 279.192 225.718 280.715 225.718 282.46C225.718 285.065 234.351 287.177 245 287.177C255.649 287.177 264.282 285.065 264.282 282.46C264.282 280.715 260.403 279.192 254.641 278.376V256.518H370Z" fill="#3F3D56"/>
<path d="M357.034 98.7288H132.965V245.286H357.034V98.7288Z" fill="#F2F2F2"/>
<path opacity="0.1" d="M357.034 98.8961C357.034 98.8961 263.949 110.295 246.995 154.319C230.04 198.343 132.965 245.119 132.965 245.119H357.034V98.8961Z" fill="black"/>
<path d="M315.228 168.863V179.73H280.823V169.527H279.825V299.755H280.823V276.441H315.228V299.755H316.226V168.863H315.228ZM315.228 180.91V198.837H280.823V180.91L315.228 180.91ZM280.823 237.049V219.122H315.228V237.049H280.823ZM315.228 238.229V256.156H280.823V238.229H315.228ZM280.823 217.943V200.016H315.228V217.943H280.823ZM280.823 275.262V257.335H315.228V275.262H280.823Z" fill="#2F2E41"/>
<path d="M269.974 171.45V173.079C269.974 173.079 268.99 173.545 268.99 175.406C268.99 177.268 268.202 184.249 268.202 184.249C268.202 184.249 269.58 185.646 270.761 185.18C271.415 184.946 272.019 184.549 272.532 184.017L272.729 176.803L271.942 174.941V171.683L269.974 171.45Z" fill="#FF0D11"/>
<path d="M307.626 106.757C307.626 106.757 304.203 107.223 304.203 109.085C304.203 110.946 301.464 117.927 301.464 117.927C301.464 117.927 306.256 119.324 310.364 118.858C314.471 118.393 316.525 117.695 316.525 117.695L317.21 110.481L314.471 108.619L307.626 106.757Z" fill="#FF0D11"/>
<path d="M307.959 123.047V118.626C307.959 118.626 303.826 108.852 307.172 108.852C310.518 108.852 310.912 117.695 310.912 117.695V123.978L307.959 123.047Z" fill="#FFB8B8"/>
<path d="M272.532 169.356C272.532 169.356 270.367 167.96 269.974 169.356C269.58 170.752 268.399 173.777 269.974 174.01C271.548 174.243 273.123 172.614 273.123 172.614L272.532 169.356Z" fill="#FFB8B8"/>
<path d="M283.188 178.782C283.188 178.782 282.003 180.633 283.722 198.687C285.441 216.742 284.451 229.888 287.715 229.708C287.715 229.708 286.863 233.623 289.637 233.767C292.41 233.911 293.678 234.139 293.894 233.234C294.109 232.33 294.448 228.146 293.694 228.187C293.694 228.187 293.741 229.375 294.056 224.597C294.37 219.819 293.479 197.256 294.618 194.218L299.069 204.981C299.069 204.981 299.268 210.028 300.115 212.361C300.962 214.695 302.757 228.282 302.757 228.282L302.588 230.374C302.588 230.374 308.661 231.229 308.865 230.028C309.07 228.826 308.999 227.045 308.725 226.465C308.45 225.885 308.45 225.885 308.906 224.67C309.107 224.213 309.223 223.71 309.247 223.196C309.27 222.681 309.199 222.167 309.039 221.687C308.753 220.81 307.991 201.513 307.991 201.513C307.991 201.513 306.563 178.087 303.503 177.066C300.443 176.044 283.188 178.782 283.188 178.782Z" fill="#2F2E41"/>
<path d="M288.539 231.447L286.694 235.715C286.694 235.715 283.503 234.552 284.265 237.931C287.329 238.044 290.395 237.825 293.424 237.277C293.424 237.277 294.703 237.802 294.919 236.897C295.135 235.993 294.133 232.924 293.38 232.965C292.627 233.007 288.539 231.447 288.539 231.447Z" fill="#2F2E41"/>
<path d="M303.055 229.456C303.055 229.456 301.258 234.911 302.023 235.166C302.788 235.421 309.614 236.235 310.128 236.504C310.642 236.773 313.165 236.931 313.345 235.136C313.526 233.341 311.996 232.83 311.996 232.83C311.996 232.83 309.211 232.389 308.34 229.462C307.47 226.534 303.055 229.456 303.055 229.456Z" fill="#2F2E41"/>
<path d="M286.01 134.524C288.913 134.524 291.267 131.741 291.267 128.308C291.267 124.874 288.913 122.091 286.01 122.091C283.106 122.091 280.752 124.874 280.752 128.308C280.752 131.741 283.106 134.524 286.01 134.524Z" fill="#FFB8B8"/>
<path d="M283.242 131.252C283.242 131.252 284.626 139.758 284.073 141.394C283.519 143.03 291.82 140.74 291.82 140.74C291.82 140.74 290.16 132.234 290.437 130.271C290.714 128.308 283.242 131.252 283.242 131.252Z" fill="#FFB8B8"/>
<path d="M285.85 120.63C285.413 120.536 284.963 120.559 284.535 120.698C284.192 120.878 283.876 121.123 283.6 121.423C283.1 121.895 282.565 122.314 282.002 122.675C281.532 122.914 281.109 123.265 280.759 123.706C280.611 123.946 280.493 124.211 280.408 124.491C279.869 126.119 279.724 127.893 279.989 129.613C280.019 129.858 280.081 130.095 280.174 130.317C280.461 130.943 281.096 131.19 281.632 131.518C282.647 132.142 283.418 133.192 284.251 134.12C284.56 134.485 284.908 134.802 285.286 135.063C286.474 135.829 287.927 135.579 289.262 135.308C289.356 135.308 289.45 135.286 289.537 135.242C289.624 135.199 289.703 135.136 289.77 135.057C289.836 134.977 289.889 134.883 289.924 134.779C289.96 134.676 289.978 134.565 289.977 134.453L291.03 128.852C291.221 128.022 291.312 127.164 291.3 126.304C291.227 124.944 290.604 123.061 289.76 122.095C288.777 120.97 287.135 120.791 285.85 120.63Z" fill="#2F2E41"/>
<path d="M281.979 141.896C281.979 141.896 282.373 138.638 284.735 138.406C286.071 138.257 287.39 137.945 288.671 137.475C288.868 137.475 291.427 137.708 292.608 139.104C292.608 139.104 293.395 140.5 293.788 139.569C294.182 138.638 294.182 138.173 294.969 138.638C295.757 139.104 295.757 137.242 297.134 137.475C298.512 137.708 302.055 148.18 302.055 148.18L300.874 149.808C300.874 149.808 299.299 162.375 302.055 167.727C304.81 173.079 305.991 178.897 303.236 180.061C300.48 181.224 281.192 191.696 281.979 185.18C282.767 178.664 282.176 168.425 281.389 168.192C280.602 167.96 276.272 149.576 276.272 149.576C276.446 148.409 276.86 147.31 277.478 146.377C278.096 145.443 278.898 144.704 279.814 144.223C282.964 142.595 281.979 141.896 281.979 141.896Z" fill="#575A88"/>
<path d="M296.15 138.406L297.134 137.475C297.134 137.475 298.906 137.475 299.103 137.01C299.299 136.544 300.284 136.544 301.071 136.079C301.858 135.613 300.874 134.915 301.858 134.45C302.842 133.984 302.842 134.45 302.842 133.286C302.842 132.123 305.401 130.959 305.598 129.563C305.794 128.167 307.763 121.651 307.763 121.651L311.502 123.047L310.518 131.425C310.518 131.425 310.518 135.613 308.747 138.406C306.975 141.198 303.039 148.18 301.071 148.412C299.103 148.645 296.15 138.406 296.15 138.406Z" fill="#575A88"/>
<path d="M277.453 148.412L276.272 149.576C276.272 149.576 275.878 154.695 275.878 154.928C275.878 155.161 276.272 157.953 275.878 158.186C275.485 158.419 274.697 163.073 274.894 163.306V164.004L272.139 169.123V174.01L278.634 169.123C278.634 169.123 282.373 168.658 281.783 164.702C281.192 160.746 277.453 148.412 277.453 148.412Z" fill="#575A88"/>
<path d="M245 256.517C247.02 256.517 248.657 254.582 248.657 252.194C248.657 249.806 247.02 247.87 245 247.87C242.98 247.87 241.343 249.806 241.343 252.194C241.343 254.582 242.98 256.517 245 256.517Z" fill="#FF0D11"/>
</g>
<path opacity="0.18" d="M439.792 332.003C429.328 374.029 380.329 398.698 334.1 402.969C327.926 403.543 321.738 403.857 315.564 403.948C280.769 404.51 245.947 398.515 211.025 396.178C205.751 395.825 200.477 395.551 195.203 395.407C145.445 393.984 90.9883 402.094 49.6539 376.314C17.0533 355.993 1.07652 318.16 0.0217149 281.737C-1.03309 245.314 36.6306 222.858 49.654 188.485C66.4043 144.278 60.4973 86.2223 96.7687 53.6387C129.468 24.2939 121.389 -2.91135 166 1.60725C207.588 5.81243 192.511 -3.57739 233.69 1.60725C292.605 9.02508 448.132 40.7916 439.792 95.4851C436.698 115.806 478.119 205.995 476.417 226.485C472.887 268.615 450.045 290.774 439.792 332.003Z" fill="#FF0D11"/>
<defs>
<clipPath id="clip0">
<rect x="120" y="93" width="250" height="241" fill="white"/>
</clipPath>
</defs>
</svg>
