<svg width="315" height="298" viewBox="0 0 315 298" fill="none" xmlns="http://www.w3.org/2000/svg">
<g clip-path="url(#clip0)">
<path opacity="0.18" d="M312.74 241.98C305.3 274.16 270.46 293.05 237.59 296.32C233.2 296.76 228.8 297 224.41 297.07C199.67 297.5 174.91 292.91 150.08 291.12C146.33 290.85 142.58 290.64 138.83 290.53C103.45 289.44 64.73 295.65 35.34 275.91C12.16 260.35 0.80001 231.38 0.0500101 203.49C-0.69999 175.6 7.69001 148.33 16.95 122.01C28.86 88.16 43.05 53.78 68.84 28.83C92.09 6.35999 121.64 -2.75001 153.36 0.709991C182.93 3.92999 213.44 5.30999 242.72 9.27999C284.61 14.96 317.49 58.4 311.56 100.28C309.36 115.84 302.63 130.59 301.42 146.28C298.91 178.54 320.03 210.41 312.74 241.98Z" fill="#FF0D11"/>
<path d="M224.41 297.06C199.67 297.49 174.91 292.9 150.08 291.11C151.14 287.11 152.197 283.087 153.25 279.04C155.14 271.87 155.91 271.86 163.11 273.25C176.023 275.732 189.199 276.558 202.32 275.71C204.03 275.6 221.26 274.35 221.32 273.3C221.094 281.333 222.136 289.352 224.41 297.06V297.06Z" fill="#080608"/>
<path d="M151.69 131.57C155.25 139.5 160.99 148.11 169.69 148.57C174.54 148.81 179.15 146.29 182.77 143.05C192.65 134.2 196.48 120.42 197.89 107.23C198.61 100.52 198.69 93.23 194.97 87.61C191.25 81.99 184.83 79.31 178.46 77.71C165.62 74.48 146.96 76.61 141.92 91.39C137.95 102.94 147.09 121.32 151.69 131.57Z" fill="#F38A6B"/>
<path d="M192.16 109.68C192.16 109.63 192.16 109.58 192.16 109.53V109.65C192.16 109.9 192.22 110.16 192.24 110.43C192.192 110.182 192.159 109.932 192.14 109.68H192.16Z" fill="#32406A"/>
<path d="M201.48 97.94C201.26 98.67 201.03 99.39 200.8 100.11C199.7 103.53 198.597 106.95 197.49 110.37C196.956 108.389 195.923 106.578 194.49 105.11C194.179 104.783 193.845 104.479 193.49 104.2C192.489 105.789 192.02 107.656 192.15 109.53C191.51 105.72 188.36 102.69 185.15 100.41C181.7 97.95 177.81 95.74 175.69 92.07C175.33 91.2686 174.817 90.5451 174.18 89.94C173.284 89.3848 172.23 89.1389 171.18 89.24C169.37 89.24 167.47 89.46 165.62 89.51C162.91 89.57 160.29 89.33 158.12 87.8C157.164 86.945 156.129 86.1817 155.03 85.52C153.03 84.65 150.75 85.34 148.9 86.43C147.023 87.5499 145.395 89.0425 144.117 90.8157C142.84 92.5889 141.939 94.6051 141.47 96.74C140.88 99.57 140.88 102.92 138.61 104.74C136.71 106.24 133.82 105.92 131.87 104.49C129.999 102.932 128.698 100.797 128.17 98.42C127.66 96.51 127.35 94.42 125.96 92.99C124.33 91.35 121.77 91.22 119.61 90.37C117.586 89.5686 115.896 88.101 114.818 86.2096C113.741 84.3182 113.34 82.1159 113.683 79.9662C114.025 77.8165 115.09 75.8478 116.702 74.385C118.315 72.9222 120.377 72.0527 122.55 71.92C125.98 71.71 129.71 73.29 132.69 71.59C140.3 67.24 146.43 59.36 156.28 61.09C161.45 62 166.49 64.28 171.7 63.74C174.03 63.5 176.28 62.69 178.61 62.52C185.68 62.01 192.47 68.39 192.39 75.47C197.45 74.89 201.88 79.47 202.98 84.47C202.98 84.59 203.04 84.7 203.06 84.82C203.87 89.19 202.81 93.64 201.48 97.94Z" fill="black"/>
<path d="M202.16 102.48C202.664 104.059 202.698 105.751 202.26 107.35C201.801 109.699 201.111 111.997 200.2 114.21C199.37 116.21 198.2 118.31 196.11 118.98C195.808 119.098 195.485 119.148 195.162 119.127C194.839 119.106 194.524 119.015 194.24 118.86C191.51 117.09 191.78 109.65 192.88 106.86C194.07 103.85 199.59 96.18 202.16 102.48Z" fill="#F38A6B"/>
<path d="M169.16 106.92C167.653 107.727 165.979 108.173 164.27 108.22C162.27 108.22 158.09 104.51 161.1 104.95C162.31 105.12 163.72 106.47 165.04 106.79C166.09 107.06 168.06 107.42 169.16 106.92Z" fill="#32406A"/>
<path d="M147.77 112.16C149.008 112.38 150.283 112.198 151.41 111.64C152.67 110.91 154.13 106.04 152.32 107.5C151.6 108.09 151.16 109.83 150.41 110.59C149.66 111.35 148.64 112.25 147.77 112.16Z" fill="#32406A"/>
<path d="M151.9 115.26C152.386 115.097 152.889 114.992 153.4 114.95C153.86 114.878 154.33 114.902 154.78 115.02C155.01 115.078 155.222 115.192 155.397 115.353C155.572 115.513 155.703 115.715 155.78 115.94C154.372 115.607 152.897 115.711 151.55 116.24C150.759 116.619 150.06 117.165 149.5 117.84C149.652 117.244 149.952 116.695 150.371 116.244C150.79 115.793 151.316 115.455 151.9 115.26V115.26Z" fill="#32406A"/>
<path d="M166.07 112.34C166.557 112.168 167.065 112.06 167.58 112.02C168.037 111.951 168.504 111.978 168.95 112.1C169.18 112.156 169.391 112.268 169.566 112.427C169.741 112.586 169.873 112.787 169.95 113.01C168.542 112.677 167.067 112.781 165.72 113.31C164.945 113.691 164.262 114.237 163.72 114.91C163.866 114.319 164.157 113.775 164.568 113.326C164.978 112.877 165.495 112.538 166.07 112.34V112.34Z" fill="#32406A"/>
<path d="M157.61 122.84C157.05 123.75 156.28 124.71 156.51 125.76C156.637 126.156 156.86 126.515 157.161 126.803C157.461 127.091 157.829 127.3 158.23 127.41C159.01 127.68 159.86 127.73 160.66 127.93C161.332 128.103 161.98 128.358 162.59 128.69C162.76 128.32 162.45 127.91 162.1 127.69C161.728 127.536 161.388 127.312 161.1 127.03C160.61 126.38 161.1 125.36 160.62 124.69C160.28 124.2 159.62 124.12 159.09 123.79C158.771 123.565 158.513 123.265 158.338 122.916C158.164 122.567 158.078 122.18 158.09 121.79C158.077 121.211 158.215 120.639 158.49 120.13C158.74 120.93 158.09 122.06 157.61 122.84Z" fill="#EB737F"/>
<path d="M166.64 132.06C164.754 132.639 162.808 132.998 160.84 133.13C160.646 133.123 160.455 133.183 160.3 133.3C160.03 133.55 160.22 133.99 160.3 134.35C160.422 134.881 160.512 135.418 160.57 135.96C160.606 136.234 160.719 136.493 160.896 136.705C161.073 136.917 161.307 137.075 161.57 137.16C162.093 137.197 162.61 137.036 163.02 136.71C164.277 136.018 165.696 135.672 167.13 135.71C167.457 135.701 167.782 135.766 168.08 135.9C168.317 136.043 168.538 136.211 168.74 136.4C169.104 136.693 169.531 136.897 169.987 136.996C170.444 137.095 170.918 137.086 171.37 136.97C171.182 136.747 170.955 136.561 170.7 136.42C169.484 135.733 168.545 134.642 168.047 133.337C167.549 132.032 167.521 130.593 167.97 129.27C167.77 130.41 167.79 131.68 166.64 132.06Z" fill="#32406A"/>
<path d="M165.36 133.06C165.04 133.254 164.756 133.501 164.52 133.79C164.358 134.028 164.23 134.287 164.14 134.56L163.71 135.64C164.223 135.682 164.739 135.624 165.23 135.47C165.991 135.307 166.763 135.204 167.54 135.16C167.64 135.16 167.76 135.16 167.81 135.05C167.83 135.009 167.84 134.965 167.84 134.92C167.84 134.875 167.83 134.831 167.81 134.79C167.65 134.39 167.41 134.03 167.24 133.65C167.07 133.27 167.24 132.53 166.79 132.42C166.34 132.31 165.67 132.8 165.36 133.06Z" fill="#EB737F"/>
<path d="M160.1 169.62C163.86 180.851 163.38 193.069 158.75 203.97C157.888 206.273 156.521 208.354 154.75 210.06C153.009 211.401 151.069 212.461 149 213.2C129.49 221.5 108.92 242.14 85.93 235.62C82.26 234.62 78.63 232.68 76.64 229.43C75.9347 228.249 75.4343 226.958 75.16 225.61C74.8165 223.876 74.6922 222.105 74.79 220.34C75.37 206.34 84.23 194.24 90.15 181.51C94.07 173.1 96.79 164.12 100.61 155.71C102.028 152.53 103.665 149.453 105.51 146.5C105.979 145.364 106.85 144.44 107.956 143.905C109.063 143.37 110.328 143.261 111.51 143.6C115.259 144.048 118.948 144.907 122.51 146.16C122.72 154.16 119.51 161.79 117.24 169.46C114.618 178.337 113.202 187.526 113.03 196.78C126.625 191.033 139.151 183.03 150.08 173.11C155.01 168.63 163.08 161 163.28 172.79C163.42 180.25 160.17 188.26 155.7 194.1C153.609 196.719 151.34 199.192 148.91 201.5L139.5 210.85C132.18 218.13 124.73 225.5 115.76 230.62C115.493 230.78 115.223 230.93 114.95 231.07" fill="#FF0D11"/>
<path d="M159.74 236.56C159.06 247.41 154.96 257.9 154.9 268.77C154.748 270.465 155.132 272.166 156 273.63C157 275.07 158.79 275.75 160.46 276.31C177.959 282.155 196.71 283.174 214.74 279.26C216.97 278.77 219.29 278.15 220.94 276.57C222.373 274.979 223.333 273.018 223.71 270.91C225.79 262.34 224.84 253.36 223.71 244.61C220.1 215.964 215 187.525 208.43 159.41C207.86 156.96 207.23 154.41 205.61 152.48C202.96 149.3 198.19 148.6 194.19 149.68C182.67 152.79 162.67 167.8 158.39 179.62C151.89 197.63 160.89 218.22 159.74 236.56Z" fill="#FF0D11"/>
<path d="M152.95 220.26C151.39 225.51 148.55 230.26 146.22 235.26C142.772 242.574 140.414 250.353 139.22 258.35C148.589 255.66 158.514 255.57 167.93 258.09L171.38 211.35C172.595 192.503 176.346 173.905 182.53 156.06C169.16 151.51 163.16 161.7 161.16 172.66C158.35 188.06 157.39 205.41 152.95 220.26Z" fill="#FF0D11"/>
<path d="M182.53 156.06C182.37 156.51 182.22 156.97 182.07 157.42C180.45 162.17 179.07 166.84 177.83 171.51C174.459 184.562 172.313 197.9 171.42 211.35L167.97 258.06C158.555 255.532 148.629 255.618 139.26 258.31C140.455 250.313 142.813 242.534 146.26 235.22C148.59 230.27 151.43 225.51 152.99 220.22C157.19 206.22 158.27 189.91 160.76 175.22L161.21 172.67C161.41 171.57 161.65 170.47 161.94 169.4C164.45 159.8 170.49 151.97 182.53 156.06Z" fill="url(#paint0_linear)"/>
<path d="M189.48 131.59C187.6 137.25 185.68 143.42 180.83 146.9C176.34 150.12 170.32 150.25 164.83 149.34C162.31 148.91 159.69 148.34 157.26 149.06C154.83 149.78 152.8 152.61 153.9 154.92C154.9 157.03 157.9 157.68 158.73 159.87C159.35 161.52 158.45 163.34 158.53 165.1C158.69 168.33 162.32 170.54 165.53 170.21C168.74 169.88 171.53 167.71 173.71 165.35C175.89 162.99 177.88 160.35 180.53 158.47C184.76 155.47 190.15 154.96 195.24 154.1C200.33 153.24 205.78 151.68 208.82 147.52C210.82 144.73 211.08 140.07 208.04 138.44C207.387 138.205 206.786 137.845 206.27 137.38C205.41 136.38 206.15 134.79 206.34 133.45C206.92 129.51 201.92 127.58 198.99 126.36C193.72 124.15 191.16 126.44 189.48 131.59Z" fill="#FF0D11"/>
<path d="M118.34 154.83C116.66 157.45 113.59 158.74 111.04 160.51C108.771 162.109 106.85 164.149 105.39 166.51C95.7808 182.185 88.745 199.299 84.55 217.2C84.2484 219.014 83.5926 220.75 82.62 222.31C80.91 224.66 78.14 225.51 75.16 225.65C74.8165 223.916 74.6922 222.145 74.79 220.38C75.37 206.38 84.23 194.28 90.15 181.55C94.07 173.14 96.79 164.16 100.61 155.75C106.83 153.41 113.41 152.32 119.54 148.54C119.903 150.713 119.477 152.943 118.34 154.83Z" fill="url(#paint1_linear)"/>
<path d="M107.7 128.06C107.852 127.113 108.226 126.216 108.79 125.44C109.597 124.653 110.609 124.109 111.71 123.87C115.964 122.575 120.353 121.773 124.79 121.48C126.891 121.183 129.033 121.485 130.97 122.35C134.38 124.2 135.3 128.58 135.85 132.42C136.016 133.125 135.985 133.862 135.76 134.55C135.245 135.368 134.491 136.007 133.6 136.38C131.076 137.89 129.175 140.252 128.24 143.04C127.993 144.237 127.495 145.369 126.78 146.36C125.964 147.13 124.901 147.584 123.78 147.64C120.25 148.01 117.03 146.25 113.59 145.86C111.31 145.6 106.99 146.86 105.42 144.72C103.43 141.93 106.99 131.14 107.7 128.06Z" fill="#F38A6B"/>
<path d="M122.55 149.43C113.26 155.43 101.9 158.5 94.26 166.51C88.76 172.27 85.49 180.32 79.26 185C78.5808 185.506 77.8693 185.967 77.13 186.38C74.98 187.59 72.02 188.23 70.23 186.54C68.89 185.28 68.68 183.15 67.35 181.9C63.96 178.71 58.46 184.12 54.01 182.76C50.01 181.53 49.65 175.88 50.88 171.85C52.11 167.82 54.05 163.26 51.88 159.65C49.37 155.46 42.34 154.65 41.51 149.84C41.5004 149.76 41.5004 149.68 41.51 149.6C41.19 146.98 43.17 144.47 45.58 143.33C47.99 142.19 50.9 142.11 53.65 142.04C68.3451 141.682 83.0005 140.353 97.52 138.06C103.52 137.12 126.45 129.41 128.24 140.69C128.81 144.36 125.63 147.43 122.55 149.43Z" fill="white"/>
<path d="M112.43 143.89C111.36 148.89 106.17 151.62 101.69 154.05C97.0826 156.538 92.6671 159.366 88.48 162.51C86.68 163.87 84.71 165.88 85.39 168.03C85.61 168.75 86.11 169.36 86.28 170.08C86.4089 171.236 86.1179 172.4 85.46 173.36L80.87 182.06C80.35 183.06 79.81 184.06 79.24 185.06C78.5608 185.566 77.8493 186.027 77.11 186.44C74.96 187.65 72 188.29 70.21 186.6C68.87 185.34 68.66 183.21 67.33 181.96C63.94 178.77 58.44 184.18 53.99 182.82C49.99 181.59 49.63 175.94 50.86 171.91C52.09 167.88 54.03 163.32 51.86 159.71C49.35 155.52 42.32 154.71 41.49 149.9C41.4804 149.82 41.4804 149.74 41.49 149.66C43.7516 149.91 45.9847 150.372 48.16 151.04C52.96 152.26 65.94 151.33 66.8 158.21C67.15 160.99 64.94 163.84 65.96 166.46C67.31 167.8 69.72 166.96 70.96 165.46C72.2 163.96 72.83 162.11 74.13 160.71C75.4901 159.442 77.1065 158.48 78.87 157.89L112.43 143.89Z" fill="url(#paint2_linear)"/>
<path d="M157.87 191.72C156.42 188.77 154.23 185.72 151 185.18L150.88 189.57C148.451 186.212 144.947 183.784 140.95 182.69C136.984 181.615 132.907 181.001 128.8 180.86C127.92 181.93 129.38 183.34 130.62 183.95L137.62 187.39C134.307 186.299 130.848 185.712 127.36 185.65C126.988 185.612 126.614 185.693 126.29 185.88C126.08 186.086 125.953 186.362 125.935 186.656C125.916 186.949 126.007 187.239 126.19 187.47C126.574 187.92 127.066 188.264 127.62 188.47L135.25 192.07C132.15 191.481 128.995 191.229 125.84 191.32C124.84 191.32 123.41 191.83 123.59 192.85C123.69 193.46 124.32 193.79 124.88 194.04L134.45 198.26C131.86 197.77 129.02 197.32 126.7 198.58C129.07 200.97 132.61 201.68 135.58 203.25C139.87 205.53 143.05 209.67 147.58 211.43C150.322 212.328 153.195 212.761 156.08 212.71C157.272 212.83 158.475 212.711 159.62 212.36C168.31 209.06 160.16 196.31 157.87 191.72Z" fill="#F38A6B"/>
<path d="M193.41 114.06C193.85 114.081 194.284 113.956 194.646 113.705C195.008 113.453 195.276 113.09 195.41 112.67C195.647 111.808 195.725 110.91 195.64 110.02C195.597 109.153 195.712 108.286 195.98 107.46C196.115 107.049 196.331 106.67 196.617 106.345C196.902 106.02 197.25 105.757 197.64 105.57C197.897 105.443 198.19 105.408 198.47 105.47C198.657 105.55 198.824 105.67 198.959 105.822C199.094 105.974 199.193 106.155 199.25 106.35C199.546 107.204 199.665 108.109 199.6 109.01C199.559 110.45 199.382 111.883 199.07 113.29C198.979 113.802 198.796 114.293 198.53 114.74C198.306 115.045 198.047 115.323 197.76 115.57C197.314 116.051 196.743 116.397 196.11 116.57C195.747 116.633 195.373 116.583 195.039 116.427C194.705 116.272 194.426 116.018 194.24 115.7C194.064 115.375 193.991 115.004 194.03 114.636C194.07 114.268 194.219 113.921 194.46 113.64" fill="url(#paint3_linear)"/>
<path d="M236.75 232.27C237.135 233.587 237.069 234.995 236.56 236.27C235.796 237.38 234.662 238.182 233.36 238.53C221.49 242.92 208.18 240.26 196.24 236.07C186.924 232.805 177.945 228.645 169.43 223.65C164.92 221 160.32 217.87 158.14 213.12C155.96 208.37 157.35 201.62 162.22 199.72C165.67 198.38 169.51 199.72 172.94 201.15L192.78 209.15C193.88 202.67 190.34 196.43 188 190.29C183.36 178.12 183.75 164.79 191.61 154.11C198.45 144.8 209.43 138.62 218.76 148.63C226.86 157.33 226.62 175.03 228.58 186.13L236.75 232.27Z" fill="#FF0D11"/>
<path d="M236.75 232.27C237.135 233.587 237.069 234.995 236.56 236.27C235.796 237.38 234.662 238.182 233.36 238.53C221.49 242.92 208.18 240.26 196.24 236.07C186.924 232.805 177.945 228.645 169.43 223.65C164.92 221 160.32 217.87 158.14 213.12C155.96 208.37 157.35 201.62 162.22 199.72C165.67 198.38 169.51 199.72 172.94 201.15L192.78 209.15C193.88 202.67 190.34 196.43 188 190.29C183.36 178.12 183.75 164.79 191.61 154.11C198.45 144.8 209.43 138.62 218.76 148.63C226.86 157.33 226.62 175.03 228.58 186.13L236.75 232.27Z" fill="url(#paint4_linear)"/>
<path d="M208.87 147.36C205.87 151.53 200.38 153.08 195.29 153.95C190.2 154.82 184.81 155.34 180.58 158.31C177.93 160.17 175.98 162.84 173.76 165.2C171.54 167.56 168.81 169.72 165.58 170.05C162.35 170.38 158.73 168.18 158.58 164.94C158.5 163.18 159.4 161.36 158.78 159.71C158.257 158.639 157.42 157.753 156.38 157.17C155.383 156.58 154.548 155.752 153.95 154.76C152.85 152.46 154.87 149.67 157.31 148.91C159.75 148.15 162.36 148.76 164.88 149.18C170.33 150.09 176.35 149.96 180.88 146.74C185.73 143.26 187.65 137.1 189.53 131.43C191.24 126.29 193.77 123.99 199.09 126.2C202.02 127.42 207.02 129.35 206.44 133.29C206.37 133.77 206.24 134.29 206.13 134.77C205.978 135.171 205.921 135.601 205.963 136.028C206.004 136.455 206.144 136.866 206.37 137.23C206.886 137.692 207.487 138.048 208.14 138.28C211.16 139.91 210.91 144.58 208.87 147.36Z" fill="url(#paint5_linear)"/>
<path d="M182.07 157.39C180.45 162.14 179.07 166.81 177.83 171.48C176.513 172.793 174.972 173.86 173.28 174.63C171.241 175.329 169.095 175.668 166.94 175.63C164.858 175.801 162.762 175.663 160.72 175.22L161.17 172.67C161.37 171.57 161.61 170.47 161.9 169.4C163.044 169.95 164.316 170.178 165.58 170.06C168.81 169.73 171.58 167.56 173.76 165.21C175.94 162.86 177.93 160.21 180.58 158.32C181.058 157.982 181.556 157.671 182.07 157.39V157.39Z" fill="url(#paint6_linear)"/>
<path d="M208.87 147.36C205.87 151.53 200.38 153.08 195.29 153.95C190.2 154.82 184.81 155.34 180.58 158.31C177.93 160.17 175.98 162.84 173.76 165.2C171.54 167.56 168.81 169.72 165.58 170.05C162.35 170.38 158.73 168.18 158.58 164.94C158.5 163.18 159.4 161.36 158.78 159.71C158.257 158.639 157.42 157.753 156.38 157.17C156.715 156.71 157.14 156.322 157.627 156.028C158.115 155.734 158.657 155.541 159.22 155.46C160.005 155.378 160.791 155.61 161.407 156.104C162.023 156.598 162.419 157.316 162.51 158.1C162.51 158.7 162.29 159.34 162.58 159.85C162.834 160.214 163.216 160.467 163.65 160.56C166.49 161.43 169.58 160.24 172.04 158.56C174.5 156.88 176.61 154.7 179.2 153.23C184.8 150.06 192.03 150.55 197.37 146.96C198.82 145.96 200.19 144.15 199.37 142.62C195.2 141.79 191.43 146.02 187.18 145.72C191.1 144 196.06 142.61 199.18 139.62C201.34 137.57 203.12 135.06 206.09 134.78C205.938 135.181 205.881 135.611 205.923 136.038C205.964 136.465 206.104 136.876 206.33 137.24C206.846 137.702 207.447 138.058 208.1 138.29C211.16 139.91 210.91 144.58 208.87 147.36Z" fill="url(#paint7_linear)"/>
<path d="M75.94 119.45C85.69 119.29 95.46 119.12 105.17 119.91C106.51 120.02 107.86 120.15 109.17 120.17C110.48 120.19 111.96 120.08 113.36 120C118.6 119.71 123.79 119.95 129.02 120.08C122.24 117.4 111.57 119.43 104.3 119.43C94.87 119.44 85.4 119.29 75.94 119.45Z" fill="white"/>
<path d="M112.97 173.4C107.43 177.72 101.52 182.08 98.43 188.4C102.063 187.033 105.333 184.85 107.99 182.02C110.8 179.02 112.86 175.39 115.82 172.55C120.4 168.14 126.76 166.01 131.56 161.83C135.791 158.076 139.299 153.578 141.91 148.56C137.45 149.22 131.73 157.43 128.38 160.46C123.41 164.94 118.31 169.35 112.97 173.4Z" fill="white"/>
<path d="M201.48 97.94C201.175 98.3783 200.841 98.7959 200.48 99.19C198.57 101.26 196.02 102.77 194.48 105.11C194.42 105.2 194.36 105.28 194.31 105.37C193.47 106.72 193.01 108.28 192.19 109.65C192.19 109.65 192.19 109.55 192.19 109.5C191.55 105.69 188.4 102.66 185.19 100.38C181.74 97.92 177.85 95.71 175.73 92.04C175.37 91.2386 174.857 90.5151 174.22 89.91C173.323 89.3548 172.27 89.1089 171.22 89.21C169.41 89.21 167.51 89.43 165.66 89.48C164.89 88.98 164.16 88.39 163.42 87.84C159.932 85.2529 155.905 83.4857 151.64 82.67L174.58 84.39C174.916 84.4421 175.259 84.4112 175.58 84.3C176.19 84.04 176.37 83.3 176.76 82.73C177.231 82.2207 177.867 81.8949 178.556 81.8107C179.244 81.7264 179.94 81.8892 180.52 82.27C181.659 83.0693 182.583 84.1376 183.21 85.38C184.61 87.66 185.37 90.3 188.39 89.73C190.39 89.36 192.11 88.48 194.17 88.29C198.17 87.93 200.08 87.01 202.66 83.71C202.807 83.9423 202.94 84.1826 203.06 84.43C205.05 88.57 204.1 94.18 201.48 97.94Z" fill="url(#paint8_linear)"/>
</g>
<defs>
<linearGradient id="paint0_linear" x1="10246.7" y1="18462.1" x2="11182.6" y2="35532.2" gradientUnits="userSpaceOnUse">
<stop offset="0.01"/>
<stop offset="0.13" stop-opacity="0.69"/>
<stop offset="1" stop-opacity="0"/>
</linearGradient>
<linearGradient id="paint1_linear" x1="6783.17" y1="12475.3" x2="9611.49" y2="16035.5" gradientUnits="userSpaceOnUse">
<stop offset="0.01"/>
<stop offset="0.13" stop-opacity="0.69"/>
<stop offset="1" stop-opacity="0"/>
</linearGradient>
<linearGradient id="paint2_linear" x1="7699.53" y1="1030.89" x2="9282.17" y2="9810.86" gradientUnits="userSpaceOnUse">
<stop offset="0.01"/>
<stop offset="0.13" stop-opacity="0.69"/>
<stop offset="1" stop-opacity="0"/>
</linearGradient>
<linearGradient id="paint3_linear" x1="1852.33" y1="1566.34" x2="1890.94" y2="1566.34" gradientUnits="userSpaceOnUse">
<stop offset="0.01"/>
<stop offset="0.13" stop-opacity="0.69"/>
<stop offset="1" stop-opacity="0"/>
</linearGradient>
<linearGradient id="paint4_linear" x1="28978.7" y1="20609" x2="20162.5" y2="20775.6" gradientUnits="userSpaceOnUse">
<stop offset="0.01"/>
<stop offset="0.13" stop-opacity="0.69"/>
<stop offset="1" stop-opacity="0"/>
</linearGradient>
<linearGradient id="paint5_linear" x1="14215.3" y1="6607.72" x2="14787.5" y2="8638.2" gradientUnits="userSpaceOnUse">
<stop offset="0.01"/>
<stop offset="0.13" stop-opacity="0.69"/>
<stop offset="1" stop-opacity="0"/>
</linearGradient>
<linearGradient id="paint6_linear" x1="5168.58" y1="3571.85" x2="5624.4" y2="3571.85" gradientUnits="userSpaceOnUse">
<stop offset="0.01"/>
<stop offset="0.13" stop-opacity="0.69"/>
<stop offset="1" stop-opacity="0"/>
</linearGradient>
<linearGradient id="paint7_linear" x1="12592.9" y1="6219.91" x2="15511.2" y2="6219.91" gradientUnits="userSpaceOnUse">
<stop offset="0.01"/>
<stop offset="0.13" stop-opacity="0.69"/>
<stop offset="1" stop-opacity="0"/>
</linearGradient>
<linearGradient id="paint8_linear" x1="11983" y1="3305.31" x2="14739.5" y2="3305.31" gradientUnits="userSpaceOnUse">
<stop offset="0.01"/>
<stop offset="0.13" stop-opacity="0.69"/>
<stop offset="1" stop-opacity="0"/>
</linearGradient>
<clipPath id="clip0">
<rect width="314.28" height="297.1" fill="white"/>
</clipPath>
</defs>
</svg>
