<svg width="455" height="400" viewBox="0 0 455 400" fill="none" xmlns="http://www.w3.org/2000/svg">
<g clip-path="url(#clip0)">
<path d="M147.063 47.5001C157.62 47.4959 167.922 50.6258 176.566 56.4637C185.21 62.3016 191.776 70.5637 195.37 80.1251C197.424 85.5306 198.468 91.2438 198.453 97.0001C198.457 103.501 197.13 109.94 194.549 115.947C191.968 121.954 188.182 127.413 183.41 132.01C178.637 136.607 172.97 140.253 166.733 142.739C160.497 145.226 153.812 146.504 147.063 146.5C145.754 146.5 144.493 146.455 143.185 146.365C129.913 145.419 117.539 139.551 108.668 129.995C99.7968 120.439 95.1204 107.941 95.6229 95.1313C96.1253 82.3215 101.767 70.1989 111.362 61.315C120.956 52.4311 133.754 47.4787 147.063 47.5001Z" fill="#FF0D11"/>
<path d="M296.422 303.235L291.891 299.5H296.562C301.145 299.611 305.695 298.722 309.87 296.898C314.045 295.074 317.737 292.364 320.669 288.97C326.511 281.695 329.55 272.693 329.266 263.5L385.328 313V326.5H324.594L296.422 303.235Z" fill="#FF0D11"/>
<path d="M324.594 326.5H133.047L142.391 313L207.797 299.5C207.797 299.5 217.141 308.5 240.5 308.5C263.859 308.5 273.203 299.5 273.203 299.5L296.422 303.235L324.594 326.5Z" fill="#FF0D11"/>
<path d="M267.504 200.5C267.082 200.508 266.661 200.538 266.242 200.59V200.5C264.624 197.761 263.8 194.652 263.86 191.5C263.86 184.03 268.064 178 273.204 178C278.343 178 282.547 184.03 282.547 191.5C282.825 194.151 282.276 196.822 280.969 199.171C279.663 201.52 277.658 203.44 275.212 204.685L273.811 203.2C273.014 202.35 272.041 201.671 270.954 201.206C269.868 200.741 268.693 200.501 267.504 200.5V200.5Z" fill="#5E3616"/>
<path d="M207.797 205C212.957 205 217.141 198.956 217.141 191.5C217.141 184.044 212.957 178 207.797 178C202.636 178 198.453 184.044 198.453 191.5C198.453 198.956 202.636 205 207.797 205Z" fill="#5E3616"/>
<path d="M259.141 128.59C257.739 130.435 234.801 160 203.125 160V133L175.094 155.5V178H165.75C162.033 178 158.468 179.423 155.84 181.954C153.211 184.486 151.735 187.92 151.735 191.5V196C151.73 198.944 152.107 201.876 152.856 204.73L151.735 205C151.735 205 137.719 196 137.719 169C137.54 161.176 139.42 153.436 143.185 146.5V146.365C144.493 146.455 145.755 146.5 147.063 146.5C153.812 146.504 160.497 145.226 166.733 142.74C172.97 140.253 178.637 136.607 183.41 132.01C188.182 127.413 191.968 121.955 194.549 115.947C197.13 109.94 198.457 103.502 198.453 97.0003C198.468 91.244 197.424 85.5308 195.37 80.1253C210.742 72.5481 227.932 69.0532 245.172 70.0003C268.531 70.0003 287.219 92.5003 287.219 92.5003C287.219 92.5003 291.611 83.9953 308.99 83.5003C327.818 83.0053 343.282 105.82 343.282 124V173.005C343.279 176.27 342.359 179.474 340.619 182.275L329.266 200.5L328.939 200.455C329.167 198.981 329.277 197.491 329.266 196V191.5C329.266 187.92 327.789 184.486 325.161 181.954C322.532 179.423 318.967 178 315.25 178H305.907V160C287.219 151 282.547 124 282.547 124C280.491 129.88 276.782 135.095 271.834 139.067C266.885 143.039 260.891 145.612 254.516 146.5L259.141 128.59Z" fill="black"/>
<path d="M275.212 204.685L301.234 232V214C301.257 211.62 302.249 209.344 303.997 207.661C305.744 205.978 308.107 205.022 310.578 205C313.044 205.037 315.398 205.997 317.142 207.677C318.886 209.357 319.883 211.625 319.922 214V245.5L329.265 263.5C329.549 272.693 326.511 281.695 320.669 288.97C317.737 292.364 314.045 295.074 309.87 296.898C305.695 298.722 301.145 299.611 296.562 299.5H291.89L273.203 289.195L259.187 281.5L253.768 275.785L228.493 249.19C227.733 248.377 227.166 247.413 226.832 246.366C226.499 245.32 226.407 244.216 226.562 243.131C226.718 242.047 227.118 241.008 227.734 240.088C228.35 239.168 229.167 238.389 230.128 237.805C231.495 236.961 233.083 236.509 234.707 236.5C235.879 236.489 237.041 236.72 238.113 237.178C239.185 237.636 240.142 238.31 240.92 239.155L263.859 263.5L237.837 235.69C237.076 234.877 236.509 233.913 236.176 232.866C235.842 231.82 235.75 230.716 235.906 229.631C236.062 228.547 236.462 227.508 237.078 226.588C237.694 225.668 238.511 224.889 239.472 224.305C240.839 223.461 242.427 223.009 244.05 223C245.223 222.989 246.385 223.22 247.457 223.678C248.528 224.136 249.486 224.81 250.264 225.655L273.203 250H273.343L247.274 222.235C246.507 221.424 245.932 220.462 245.59 219.416C245.248 218.369 245.147 217.264 245.294 216.176C245.441 215.088 245.832 214.044 246.44 213.116C247.048 212.189 247.859 211.4 248.816 210.805C250.183 209.961 251.771 209.509 253.394 209.5C254.567 209.489 255.728 209.72 256.8 210.178C257.872 210.636 258.83 211.31 259.608 212.155L282.547 236.5L261.103 212.785C260.363 211.992 259.817 211.05 259.503 210.028C259.19 209.006 259.118 207.929 259.293 206.876C259.468 205.824 259.885 204.822 260.513 203.945C261.141 203.067 261.965 202.336 262.925 201.805C263.932 201.185 265.061 200.772 266.242 200.59C266.66 200.538 267.081 200.508 267.503 200.5C268.692 200.501 269.867 200.741 270.954 201.206C272.04 201.671 273.013 202.35 273.81 203.2L275.212 204.685Z" fill="#F2BCA7"/>
<path d="M273.203 289.195V299.5C273.203 299.5 263.859 308.5 240.5 308.5C217.141 308.5 207.797 299.5 207.797 299.5V269.125C221.879 276.343 238.105 278.694 253.768 275.785L259.188 281.5L273.203 289.195Z" fill="#F2B59D"/>
<path d="M207.797 269.125C199.502 264.932 192.27 259.027 186.617 251.832C180.964 244.637 177.029 236.329 175.094 227.5C169.585 226.016 164.602 223.111 160.683 219.098C156.764 215.085 154.057 210.117 152.856 204.73C152.107 201.876 151.73 198.944 151.734 196V191.5C151.734 187.92 153.211 184.486 155.839 181.954C158.468 179.422 162.033 178 165.75 178H175.094V155.5L203.125 133V160C234.8 160 257.739 130.435 259.141 128.59L254.516 146.5C260.891 145.612 266.885 143.039 271.834 139.067C276.782 135.095 280.49 129.88 282.547 124C282.547 124 287.219 151 305.906 160V178H315.25C318.967 178 322.532 179.422 325.161 181.954C327.789 184.486 329.266 187.92 329.266 191.5V196C329.276 197.491 329.167 198.98 328.939 200.455C328.124 207.565 324.963 214.237 319.922 219.49V214C319.883 211.625 318.887 209.357 317.143 207.677C315.399 205.997 313.044 205.037 310.578 205C308.107 205.022 305.744 205.978 303.997 207.661C302.249 209.344 301.258 211.62 301.234 214V232L275.212 204.685C277.658 203.44 279.662 201.52 280.969 199.171C282.275 196.822 282.825 194.151 282.547 191.5C282.547 184.03 278.342 178 273.203 178C268.064 178 263.859 184.03 263.859 191.5C263.8 194.652 264.623 197.761 266.242 200.5V200.59C265.062 200.772 263.933 201.185 262.925 201.805C261.966 202.336 261.141 203.067 260.513 203.945C259.885 204.822 259.468 205.824 259.293 206.876C259.119 207.929 259.19 209.006 259.504 210.028C259.817 211.05 260.363 211.992 261.103 212.785L282.547 236.5L259.608 212.155C258.83 211.31 257.872 210.636 256.8 210.178C255.729 209.72 254.567 209.489 253.394 209.5C251.771 209.509 250.183 209.961 248.816 210.805C247.859 211.4 247.048 212.189 246.44 213.116C245.832 214.044 245.441 215.088 245.294 216.176C245.147 217.264 245.249 218.369 245.591 219.416C245.933 220.462 246.507 221.424 247.274 222.235L273.343 250H273.203L250.264 225.655C249.486 224.81 248.529 224.136 247.457 223.678C246.385 223.22 245.223 222.989 244.051 223C242.427 223.009 240.839 223.461 239.472 224.305C238.511 224.889 237.694 225.668 237.078 226.588C236.462 227.508 236.062 228.547 235.906 229.631C235.751 230.716 235.843 231.82 236.176 232.866C236.51 233.913 237.077 234.877 237.837 235.69L263.859 263.5L240.92 239.155C240.142 238.31 239.185 237.636 238.113 237.178C237.041 236.72 235.88 236.489 234.707 236.5C233.083 236.509 231.496 236.961 230.128 237.805C229.167 238.389 228.35 239.168 227.734 240.088C227.118 241.008 226.718 242.047 226.563 243.131C226.407 244.216 226.499 245.32 226.832 246.366C227.166 247.413 227.733 248.377 228.493 249.19L253.768 275.785C238.105 278.694 221.879 276.343 207.797 269.125V269.125ZM217.141 191.5C217.141 184.03 212.936 178 207.797 178C202.658 178 198.453 184.03 198.453 191.5C198.453 198.97 202.658 205 207.797 205C212.936 205 217.141 198.97 217.141 191.5Z" fill="#F2C4B2"/>
<path d="M273.203 289.195L259.188 281.5L253.768 275.785C244.697 277.473 235.368 277.402 226.326 275.573L235.081 284.785L240.5 290.5L254.516 298.195L265.261 304.13C268.161 303.031 270.847 301.465 273.203 299.5V289.195Z" fill="#ED9776"/>
<path d="M317.165 207.7C317.506 208.025 317.818 208.375 318.1 208.749C319.296 206.337 319.919 203.699 319.922 201.027V196C319.922 193.613 318.937 191.324 317.185 189.636C315.433 187.948 313.056 187 310.578 187H305.906V206.278C307.669 205.24 309.748 204.815 311.796 205.074C313.845 205.332 315.74 206.259 317.165 207.7V207.7Z" fill="#F2A283"/>
<path d="M175.094 218.5V187H170.422C167.944 187 165.567 187.948 163.815 189.636C162.063 191.324 161.078 193.613 161.078 196V201.027C161.073 204.808 162.305 208.496 164.598 211.565C166.892 214.635 170.131 216.93 173.856 218.126L175.094 218.5Z" fill="#F2A283"/>
<path d="M147.063 146.5C145.792 146.5 144.563 146.455 143.297 146.37C139.467 153.332 137.546 161.122 137.719 169C137.719 196 151.735 205 151.735 205L152.856 204.73C152.107 201.876 151.73 198.944 151.735 196V191.5C151.735 187.92 153.211 184.486 155.84 181.954C158.468 179.423 162.033 178 165.75 178H175.094V155.5L151.735 164.5C150.031 161.81 148.964 158.791 148.609 155.658C148.253 152.525 148.619 149.356 149.679 146.374C148.805 146.415 147.946 146.5 147.063 146.5Z" fill="black"/>
<path d="M305.906 160V178H315.25C318.967 178 322.532 179.422 325.16 181.954C327.789 184.486 329.266 187.92 329.266 191.5V169C320.604 168.826 312.303 165.628 305.906 160V160Z" fill="black"/>
<path d="M253.768 275.785C238.105 278.719 221.871 276.367 207.797 269.125V299.5C209.658 301.073 211.749 302.375 214.001 303.366L262.528 283.336L259.188 281.5L253.768 275.785Z" fill="#ED9776"/>
<path d="M277.684 300.427L273.203 299.5C273.203 299.5 263.86 308.5 240.5 308.5C217.141 308.5 207.797 299.5 207.797 299.5L203.312 300.427C203.469 301.272 203.88 302.055 204.494 302.677C204.933 303.1 215.492 313 240.5 313C265.509 313 276.067 303.1 276.506 302.682C277.122 302.059 277.531 301.274 277.684 300.427V300.427Z" fill="#E3E3E3"/>
<path d="M195.37 80.1252C192.219 71.7595 186.785 64.3666 179.64 58.7248C172.495 53.083 163.903 49.4009 154.768 48.0661C145.634 46.7313 136.294 47.7932 127.733 51.1399C119.173 54.4867 111.707 59.9945 106.122 67.0837C100.537 74.1729 97.0393 82.5813 95.9973 91.4237C94.9554 100.266 96.4075 109.216 100.201 117.33C103.994 125.445 109.989 132.424 117.553 137.534C125.118 142.643 133.972 145.694 143.185 146.365C144.493 146.455 145.755 146.5 147.063 146.5C153.813 146.504 160.497 145.226 166.734 142.739C172.97 140.253 178.637 136.607 183.41 132.01C188.182 127.413 191.968 121.954 194.549 115.947C197.13 109.94 198.457 103.502 198.453 97.0002C198.468 91.244 197.424 85.5308 195.37 80.1252V80.1252ZM147.063 142C137.823 142 128.79 139.361 121.107 134.416C113.424 129.472 107.436 122.444 103.9 114.221C100.364 105.998 99.4391 96.9503 101.242 88.2211C103.044 79.492 107.494 71.4738 114.028 65.1804C120.561 58.887 128.886 54.6012 137.948 52.8649C147.011 51.1285 156.405 52.0197 164.941 55.4256C173.478 58.8316 180.774 64.5993 185.908 71.9995C191.042 79.3998 193.782 88.1 193.782 97.0002C193.782 108.935 188.859 120.381 180.098 128.82C171.336 137.259 159.453 142 147.063 142V142Z" fill="#D4D4D4"/>
<path d="M282.117 162.335C282.215 162.308 282.309 162.286 282.407 162.268C283.808 162.025 284.883 164.171 284.883 165.625C284.883 166.034 284.724 175.75 270.867 175.75C257.01 175.75 256.851 166.034 256.851 165.625C256.83 165.032 256.963 164.444 257.238 163.913C257.513 163.383 257.921 162.927 258.426 162.587C259.444 161.989 260.435 162.547 261.229 163.487C261.617 163.937 261.916 164.513 262.327 164.945C262.736 165.337 263.21 165.661 263.728 165.904C264.956 166.595 266.254 167.164 267.601 167.6C269.391 168.096 271.281 168.154 273.099 167.768C274.918 167.382 276.607 166.565 278.015 165.391C279.185 164.148 280.574 163.113 282.117 162.335V162.335Z" fill="black"/>
<path d="M216.711 175.665C216.809 175.692 216.902 175.714 217 175.732C218.402 175.975 219.476 173.829 219.476 172.375C219.476 171.966 219.317 162.25 205.461 162.25C191.604 162.25 191.445 171.966 191.445 172.375C191.424 172.968 191.557 173.556 191.832 174.086C192.107 174.617 192.515 175.073 193.02 175.412C194.038 176.011 195.028 175.453 195.823 174.513C196.21 174.063 196.509 173.486 196.921 173.054C197.33 172.663 197.803 172.339 198.322 172.096C199.55 171.405 200.847 170.836 202.195 170.4C203.985 169.904 205.874 169.846 207.693 170.232C209.511 170.618 211.201 171.435 212.609 172.609C213.779 173.852 215.167 174.887 216.711 175.665V175.665Z" fill="black"/>
<path d="M240.5 218.5C243.08 218.5 245.172 214.471 245.172 209.5C245.172 204.529 243.08 200.5 240.5 200.5C237.92 200.5 235.828 204.529 235.828 209.5C235.828 214.471 237.92 218.5 240.5 218.5Z" fill="#D9896D"/>
<path d="M247.274 222.235L273.203 250C273.231 249.973 273.236 249.942 273.264 249.915L247.274 222.235Z" fill="#F2B59D"/>
<path d="M273.264 249.914C273.236 249.941 273.231 249.973 273.203 250H273.343L273.264 249.914Z" fill="#F2B59D"/>
<path d="M318.871 274.984C317.446 278.613 315.075 281.828 311.986 284.318C308.897 286.809 305.195 288.492 301.235 289.204C296.014 290.486 290.479 289.746 285.818 287.143L259.188 272.5L228.699 238.935C227.32 240.299 226.531 242.119 226.492 244.023C226.454 245.928 227.17 247.775 228.494 249.19L253.769 275.785L259.188 281.5L273.204 289.195L291.891 299.5H296.563C301.146 299.611 305.695 298.722 309.87 296.898C314.045 295.075 317.737 292.364 320.67 288.97C326.512 281.695 329.55 272.693 329.266 263.5C326.825 264.648 324.647 266.256 322.861 268.228C321.076 270.201 319.719 272.498 318.871 274.984V274.984Z" fill="#F2B096"/>
<path d="M282.87 227.212L261.173 203.326C259.907 204.593 259.194 206.279 259.181 208.038C259.168 209.796 259.856 211.492 261.103 212.776L282.547 236.5C283.815 235.28 284.553 233.642 284.613 231.918C284.673 230.193 284.05 228.511 282.87 227.212Z" fill="#F2B096"/>
<path d="M273.526 240.712L247.396 211.943C246.028 213.326 245.255 215.156 245.233 217.066C245.21 218.976 245.94 220.823 247.274 222.235L273.264 249.914C274.5 248.693 275.214 247.068 275.263 245.362C275.311 243.657 274.691 241.997 273.526 240.712V240.712Z" fill="#F2B096"/>
<path d="M267.172 261.907C267.861 261.575 268.458 261.09 268.914 260.492C269.37 259.894 269.672 259.2 269.796 258.467C269.919 257.735 269.859 256.985 269.623 256.278C269.386 255.572 268.978 254.93 268.433 254.406L238.202 225.286C236.79 226.61 235.953 228.4 235.859 230.295C235.764 232.19 236.419 234.049 237.692 235.497L261.384 260.85C262.095 261.612 263.047 262.128 264.093 262.319C265.138 262.51 266.22 262.365 267.172 261.907V261.907Z" fill="#F2B096"/>
<path d="M310.578 230.137V205C308.107 205.022 305.744 205.978 303.997 207.661C302.249 209.344 301.257 211.62 301.234 214V232L302.603 233.318C303.256 233.948 304.089 234.376 304.995 234.55C305.901 234.723 306.84 234.634 307.694 234.294C308.547 233.953 309.277 233.376 309.79 232.637C310.304 231.897 310.578 231.027 310.578 230.137Z" fill="#F2B096"/>
<path d="M259.188 281.5L253.768 275.785C251.117 276.264 248.438 276.59 245.747 276.761L249.096 280.285L254.516 286L268.531 293.695L273.203 296.269V289.195L259.188 281.5Z" fill="#ED9776"/>
<path d="M228.493 249.19C227.553 248.185 226.913 246.954 226.64 245.627C226.366 244.3 226.471 242.927 226.942 241.653C226.426 241.824 225.929 242.042 225.456 242.305C224.495 242.889 223.678 243.668 223.062 244.588C222.446 245.508 222.046 246.547 221.89 247.631C221.735 248.716 221.827 249.82 222.16 250.866C222.494 251.913 223.061 252.877 223.821 253.69L245.746 276.762C248.438 276.591 251.117 276.265 253.768 275.785L228.493 249.19Z" fill="#ED9776"/>
<path d="M282.547 236.5L261.103 212.785C260.145 211.86 259.498 210.678 259.248 209.393C258.998 208.109 259.156 206.782 259.701 205.585C259.196 205.776 258.71 206.011 258.248 206.287C256.932 207.123 255.889 208.301 255.24 209.685C256.931 210.028 258.461 210.888 259.603 212.137L282.547 236.5Z" fill="#ED9776"/>
<path d="M250.264 225.655L273.203 250H273.343L247.274 222.235C246.319 221.226 245.666 219.986 245.385 218.647C245.103 217.309 245.204 215.922 245.676 214.635C245.144 214.81 244.631 215.034 244.144 215.305C242.738 216.182 241.662 217.47 241.073 218.98C240.485 220.49 240.415 222.142 240.874 223.693C241.875 223.265 242.955 223.029 244.05 223C245.223 222.989 246.385 223.22 247.456 223.678C248.528 224.136 249.486 224.81 250.264 225.655V225.655Z" fill="#ED9776"/>
<path d="M296.562 218.5V227.095L301.234 232V214C301.242 212.727 301.537 211.471 302.099 210.319C300.463 211.034 299.073 212.183 298.092 213.632C297.112 215.081 296.581 216.77 296.562 218.5V218.5Z" fill="#ED9776"/>
<path d="M240.92 239.155L263.859 263.5L237.837 235.69C236.897 234.685 236.257 233.454 235.983 232.127C235.71 230.8 235.815 229.427 236.286 228.153C235.77 228.324 235.273 228.542 234.8 228.805C233.375 229.672 232.28 230.961 231.679 232.478C231.077 233.995 231.002 235.659 231.465 237.22C232.484 236.773 233.587 236.528 234.707 236.5C235.88 236.489 237.041 236.72 238.113 237.178C239.185 237.636 240.142 238.31 240.92 239.155V239.155Z" fill="#ED9776"/>
<path d="M153.669 96.9999L178.397 73.1814C178.843 72.7663 179.199 72.2697 179.444 71.7207C179.689 71.1717 179.818 70.5812 179.823 69.9837C179.829 69.3862 179.71 68.7936 179.475 68.2406C179.241 67.6876 178.894 67.1851 178.455 66.7626C178.016 66.3401 177.495 66.0059 176.921 65.7797C176.346 65.5534 175.731 65.4396 175.111 65.4447C174.491 65.4499 173.877 65.5741 173.307 65.8099C172.737 66.0458 172.222 66.3886 171.791 66.8184L147.063 90.6369L122.335 66.8184C121.453 65.9987 120.273 65.5451 119.048 65.5553C117.823 65.5656 116.652 66.0389 115.785 66.8732C114.919 67.7075 114.428 68.8362 114.417 70.0161C114.407 71.196 114.877 72.3327 115.729 73.1814L140.457 96.9999L115.729 120.818C115.282 121.233 114.926 121.73 114.682 122.279C114.437 122.828 114.308 123.419 114.302 124.016C114.297 124.614 114.415 125.206 114.65 125.759C114.885 126.312 115.232 126.815 115.671 127.237C116.109 127.66 116.631 127.994 117.205 128.22C117.779 128.446 118.394 128.56 119.015 128.555C119.635 128.55 120.248 128.426 120.818 128.19C121.388 127.954 121.904 127.611 122.335 127.181L147.063 103.363L171.791 127.181C172.672 128.001 173.852 128.455 175.077 128.444C176.302 128.434 177.474 127.961 178.34 127.127C179.206 126.292 179.698 125.164 179.708 123.984C179.719 122.804 179.248 121.667 178.397 120.818L153.669 96.9999Z" fill="#E3E3E3"/>
</g>
<path opacity="0.18" d="M448.007 339.07C445.763 343.761 442.884 348.081 439.462 351.896C423.193 369.926 396.923 373.277 373.539 369.874C350.155 366.47 327.729 357.521 304.271 355.129C266.956 351.331 230.225 364.328 194.814 377.075C159.402 389.822 122.672 402.95 85.3568 399.415C50.2186 396.104 14.2471 373.882 3.40095 339.044C2.72472 336.887 2.15592 334.694 1.69691 332.474C-9.41048 279.619 37.7679 230.142 34.5464 176.092C33.6509 160.993 28.7999 146.471 26.7725 131.49C20.0061 81.4351 49.1614 28.4625 93.6034 9.85441C171.591 -22.7755 255.948 37.4512 337.195 21.3531C418.193 5.36008 428.79 45.6908 421.116 128.81C418.535 157.16 421.412 185.769 429.574 212.914C436.639 236.332 447.609 258.449 452.597 282.458C456.515 301.276 456.08 322.289 448.007 339.07Z" fill="#FF0D11"/>
<defs>
<clipPath id="clip0">
<rect x="100" y="43" width="299" height="288" fill="white"/>
</clipPath>
</defs>
</svg>
