<svg width="477" height="404" viewBox="0 0 477 404" fill="none" xmlns="http://www.w3.org/2000/svg">
<path opacity="0.18" d="M439.792 332.003C429.328 374.029 380.329 398.698 334.1 402.969C327.926 403.543 321.738 403.857 315.564 403.948C280.769 404.51 245.947 398.515 211.025 396.178C205.751 395.825 200.477 395.551 195.203 395.407C145.445 393.984 90.9883 402.094 49.6539 376.314C17.0533 355.993 1.07652 318.16 0.0217149 281.737C-1.03309 245.314 36.6306 222.858 49.654 188.485C66.4043 144.278 60.4973 86.2223 96.7687 53.6387C129.468 24.2939 121.389 -2.91135 166 1.60725C207.588 5.81243 192.511 -3.57739 233.69 1.60725C292.605 9.02508 448.132 40.7916 439.792 95.4851C436.698 115.806 478.119 205.995 476.417 226.485C472.887 268.615 450.045 290.774 439.792 332.003Z" fill="#FF0D11"/>
<path d="M316.75 369.234H127.094L190.312 354.938C190.312 354.938 199.344 364.469 221.922 364.469C244.5 364.469 253.531 354.938 253.531 354.938L316.75 369.234Z" fill="#FF0D11"/>
<path d="M239.984 302.516H203.859C203.859 302.516 203.859 288.219 221.922 288.219C239.984 288.219 239.984 302.516 239.984 302.516Z" fill="#8F312C"/>
<path d="M136.125 245.328C136.121 248.445 136.485 251.551 137.209 254.573L136.125 254.859C136.125 254.859 122.578 245.328 122.578 216.734C122.578 188.141 140.641 178.609 140.641 178.609C133.076 178.777 125.629 176.612 119.212 172.379C112.795 168.147 107.688 162.031 104.516 154.781C125.168 150.213 144.989 142.168 163.219 130.953C194.828 111.891 208.375 111.891 226.438 111.891C249.016 111.891 267.078 135.719 267.078 135.719C267.078 135.719 271.323 126.712 288.121 126.188C306.319 125.663 321.266 149.825 321.266 169.078V220.976C321.263 224.433 320.374 227.826 318.692 230.793L307.719 250.094L307.448 250.046C307.629 248.481 307.72 246.905 307.719 245.328V240.562C307.719 236.771 306.291 233.134 303.751 230.453C301.21 227.772 297.765 226.266 294.172 226.266H285.141V207.203C279.535 204.065 274.851 199.368 271.594 193.621V173.844C267.163 172.079 262.64 170.583 258.047 169.364C246.249 166.11 234.115 164.413 221.922 164.312C209.729 164.413 197.594 166.11 185.797 169.364C181.204 170.583 176.681 172.079 172.25 173.844V190.523L158.703 202.438V226.266H149.672C146.079 226.266 142.633 227.772 140.093 230.453C137.552 233.134 136.125 236.771 136.125 240.562V245.328Z" fill="black"/>
<path d="M221.922 207.203C238.872 207.376 255.67 210.6 271.594 216.734V193.621C274.851 199.368 279.535 204.065 285.141 207.203V226.266H294.172C297.765 226.266 301.21 227.772 303.751 230.453C306.292 233.134 307.719 236.771 307.719 240.562V245.328C307.72 246.905 307.629 248.481 307.448 250.046C306.898 256.637 304.474 262.898 300.493 268.009C296.513 273.12 291.161 276.843 285.141 278.688C283.27 288.037 279.467 296.836 274.003 304.456C268.539 312.076 261.549 318.329 253.531 322.77C243.803 328.245 232.947 331.109 221.922 331.109C210.897 331.109 200.041 328.245 190.313 322.77C182.295 318.329 175.305 312.076 169.841 304.456C164.377 296.836 160.574 288.037 158.703 278.688C153.379 277.116 148.563 274.039 144.774 269.789C140.986 265.539 138.37 260.278 137.209 254.573C136.485 251.551 136.121 248.445 136.125 245.328V240.562C136.125 236.771 137.552 233.134 140.093 230.453C142.633 227.772 146.079 226.266 149.672 226.266H158.703V202.438L172.25 190.523V216.734C188.173 210.6 204.972 207.376 221.922 207.203V207.203ZM203.859 302.516H239.984C239.984 302.516 239.984 288.219 221.922 288.219C203.859 288.219 203.859 302.516 203.859 302.516Z" fill="#D47470"/>
<path d="M253.531 322.77V354.938C253.531 354.938 244.5 364.469 221.922 364.469C199.344 364.469 190.312 354.938 190.312 354.938V322.77C200.041 328.245 210.897 331.109 221.922 331.109C232.947 331.109 243.803 328.245 253.531 322.77V322.77Z" fill="#F2B59D"/>
<path d="M253.531 322.77C243.803 328.245 232.947 331.109 221.922 331.109C210.897 331.109 200.041 328.245 190.312 322.77V354.938C192.112 356.603 194.132 357.982 196.309 359.031L253.531 333.154V322.77Z" fill="#ED9776"/>
<path d="M285.141 207.203C267.078 197.672 262.562 169.078 262.562 169.078C260.575 175.305 256.99 180.828 252.207 185.034C247.425 189.241 241.631 191.966 235.469 192.906L239.939 173.939C230.572 187.007 218.114 197.246 203.814 203.629C198.06 205.952 191.957 207.163 185.797 207.203V178.609L158.703 202.438V226.266H285.141V207.203Z" fill="#D47470"/>
<path d="M140.641 178.609C140.641 178.609 122.578 188.141 122.578 216.734C122.578 245.328 136.125 254.859 136.125 254.859L137.209 254.573C136.485 251.551 136.121 248.445 136.125 245.328V240.562C136.125 236.771 137.552 233.134 140.093 230.453C142.633 227.772 146.079 226.266 149.672 226.266H158.703V202.438L136.125 211.969C127.094 197.672 140.641 178.609 140.641 178.609Z" fill="black"/>
<path d="M285.141 207.203V226.266H294.172C297.765 226.266 301.21 227.772 303.751 230.453C306.291 233.134 307.719 236.771 307.719 240.562V216.734C299.347 216.55 291.324 213.163 285.141 207.203Z" fill="black"/>
<path d="M226.438 102.359H217.406C217.464 99.9126 218.007 97.5059 219.002 95.295C219.997 93.0842 221.421 91.1186 223.182 89.5255C225.381 87.1093 226.438 85.8417 226.438 83.2968C226.438 80.752 225.381 79.4843 223.182 77.0682L229.693 70.463C231.454 72.0561 232.878 74.0217 233.873 76.2325C234.868 78.4434 235.411 80.8501 235.469 83.2968C235.411 85.7436 234.868 88.1503 233.873 90.3611C232.878 92.572 231.454 94.5376 229.693 96.1307C227.494 98.5468 226.438 99.8145 226.438 102.359Z" fill="#C74841"/>
<path d="M262.562 102.359H253.531C253.589 99.9126 254.132 97.5059 255.127 95.295C256.122 93.0842 257.546 91.1186 259.307 89.5255C261.506 87.1093 262.562 85.8417 262.562 83.2968C262.562 80.752 261.506 79.4843 259.307 77.0682L265.818 70.463C267.579 72.0561 269.003 74.0217 269.998 76.2325C270.993 78.4434 271.536 80.8501 271.594 83.2968C271.536 85.7436 270.993 88.1503 269.998 90.3611C269.003 92.572 267.579 94.5376 265.818 96.1307C263.619 98.5468 262.562 99.8145 262.562 102.359Z" fill="#C74841"/>
<path d="M190.312 102.359H181.281C181.339 99.9126 181.882 97.5059 182.877 95.295C183.872 93.0842 185.296 91.1186 187.057 89.5255C189.256 87.1093 190.312 85.8417 190.312 83.2968C190.312 80.752 189.256 79.4843 187.057 77.0682L193.568 70.463C195.329 72.0561 196.753 74.0217 197.748 76.2325C198.743 78.4434 199.286 80.8501 199.344 83.2968C199.286 85.7436 198.743 88.1503 197.748 90.3611C196.753 92.572 195.329 94.5376 193.568 96.1307C191.369 98.5468 190.312 99.8145 190.312 102.359Z" fill="#C74841"/>
<path d="M244.5 240.563C244.297 237.925 244.768 235.278 245.864 232.897C246.96 230.517 248.641 228.49 250.731 227.028C253.536 228.337 256.476 229.297 259.492 229.888C261.588 232.999 262.666 236.747 262.562 240.563C262.562 248.474 258.498 254.86 253.531 254.86C248.564 254.86 244.5 248.474 244.5 240.563Z" fill="#5E3616"/>
<path d="M193.112 227.028C195.203 228.49 196.884 230.517 197.98 232.897C199.076 235.278 199.547 237.925 199.344 240.563C199.344 248.474 195.28 254.86 190.313 254.86C185.346 254.86 181.281 248.474 181.281 240.563C181.178 236.747 182.256 232.999 184.352 229.888C187.368 229.297 190.307 228.337 193.112 227.028V227.028Z" fill="#5E3616"/>
<path d="M285.141 269.156V235.797H289.656C292.051 235.797 294.349 236.801 296.042 238.589C297.736 240.376 298.687 242.8 298.687 245.328V250.651C298.693 254.656 297.502 258.561 295.285 261.812C293.068 265.063 289.938 267.494 286.337 268.761L285.141 269.156Z" fill="#B8514D"/>
<path d="M158.703 269.156V235.797H154.188C151.792 235.797 149.495 236.801 147.801 238.589C146.108 240.376 145.156 242.8 145.156 245.328V250.651C145.151 254.656 146.342 258.561 148.559 261.812C150.775 265.063 153.906 267.494 157.507 268.761L158.703 269.156Z" fill="#B8514D"/>
<path d="M221.922 269.156C224.416 269.156 226.438 264.889 226.438 259.625C226.438 254.361 224.416 250.094 221.922 250.094C219.428 250.094 217.406 254.361 217.406 259.625C217.406 264.889 219.428 269.156 221.922 269.156Z" fill="#B54F4A"/>
<path d="M276.109 199.778C274.438 197.868 272.927 195.808 271.594 193.621V216.734C255.67 210.6 238.872 207.376 221.922 207.203C204.971 207.376 188.173 210.6 172.25 216.734V190.523L167.734 194.493L158.703 202.438V211.969L167.734 202.438V226.266C185.211 220.106 203.497 216.89 221.922 216.734C240.346 216.89 258.633 220.106 276.109 226.266V207.718C278.95 209.506 281.982 210.933 285.141 211.969V207.203C281.718 205.344 278.655 202.826 276.109 199.778V199.778Z" fill="#B8514D"/>
<path d="M271.594 235.797C267.24 235.834 262.893 235.421 258.616 234.562C255.262 233.899 251.992 232.828 248.871 231.369C245.491 229.81 242.418 227.593 239.813 224.836C238.978 223.927 238.519 222.705 238.537 221.439C238.555 220.173 239.049 218.967 239.91 218.085C240.771 217.204 241.929 216.719 243.128 216.738C244.328 216.758 245.471 217.279 246.306 218.188C248.118 220.09 250.252 221.618 252.597 222.691C255.082 223.843 257.685 224.687 260.355 225.208C264.059 225.949 267.824 226.304 271.594 226.266C272.792 226.266 273.94 226.768 274.787 227.661C275.634 228.555 276.11 229.767 276.11 231.031C276.11 232.295 275.634 233.507 274.787 234.401C273.94 235.295 272.792 235.797 271.594 235.797Z" fill="black"/>
<path d="M172.25 235.797C171.052 235.797 169.904 235.295 169.057 234.401C168.21 233.507 167.734 232.295 167.734 231.031C167.734 229.767 168.21 228.555 169.057 227.661C169.904 226.768 171.052 226.266 172.25 226.266C176.016 226.304 179.776 225.951 183.476 225.212C186.152 224.69 188.761 223.843 191.252 222.687C193.595 221.614 195.727 220.088 197.538 218.188C198.37 217.278 199.51 216.755 200.708 216.733C201.906 216.711 203.063 217.193 203.925 218.071C204.787 218.95 205.282 220.153 205.303 221.417C205.324 222.682 204.868 223.903 204.035 224.812C201.435 227.579 198.363 229.804 194.982 231.37C191.854 232.828 188.576 233.9 185.214 234.563C180.942 235.422 176.599 235.835 172.25 235.797V235.797Z" fill="black"/>
<path d="M271.594 216.735C255.67 210.6 238.872 207.376 221.922 207.203C204.971 207.376 188.173 210.6 172.25 216.735V173.844C176.681 172.079 181.204 170.583 185.797 169.364V197.672C197.554 194.231 209.724 192.625 221.922 192.906C234.119 192.625 246.29 194.231 258.047 197.672V169.364C262.64 170.583 267.163 172.079 271.594 173.844V216.735Z" fill="#CEE5DD"/>
<path d="M258.047 169.364V197.672C246.29 194.231 234.119 192.625 221.922 192.906C209.724 192.625 197.554 194.231 185.797 197.672V169.364C197.594 166.11 209.729 164.413 221.922 164.312C234.115 164.413 246.249 166.11 258.047 169.364V169.364Z" fill="#66B9DE"/>
<path d="M221.922 197.672C235.593 197.682 249.222 199.28 262.562 202.438V170.684C261.176 170.255 259.695 169.817 258.047 169.364V197.672C246.29 194.231 234.119 192.625 221.922 192.906C209.724 192.625 197.554 194.231 185.797 197.672V169.364C184.149 169.841 182.668 170.255 181.281 170.684V202.438C194.621 199.28 208.25 197.682 221.922 197.672V197.672Z" fill="#55ADD4"/>
<path d="M258.047 188.064V169.364C246.25 166.11 234.115 164.413 221.922 164.312C211.608 164.38 201.33 165.616 191.266 168.001C196.418 178.929 223.986 187.369 258.047 188.064Z" fill="#75D5FF"/>
<path d="M375.453 107.125V121.422H339.328V92.8281C339.328 87.7724 341.231 82.9238 344.619 79.3489C348.006 75.774 352.6 73.7656 357.391 73.7656C362.181 73.7656 366.775 75.774 370.163 79.3489C373.55 82.9238 375.453 87.7724 375.453 92.8281V107.125Z" fill="#D4D4D4"/>
<path d="M375.453 205.011C379.543 208.872 382.426 213.952 383.72 219.579C385.014 225.207 384.659 231.117 382.701 236.526C380.743 241.936 377.275 246.591 372.755 249.875C368.236 253.159 362.878 254.917 357.391 254.917C351.903 254.917 346.546 253.159 342.026 249.875C337.507 246.591 334.038 241.936 332.08 236.526C330.122 231.117 329.767 225.207 331.061 219.579C332.355 213.952 335.238 208.872 339.328 205.011V121.422H375.453V205.011Z" fill="#E7544C"/>
<path d="M352.875 92.8283C352.882 89.0377 353.96 85.3355 355.971 82.1946C357.982 79.0538 360.834 76.617 364.164 75.1955C361.425 74.0163 358.454 73.5665 355.512 73.8856C352.569 74.2047 349.747 75.283 347.293 77.0253C344.838 78.7677 342.828 81.1206 341.439 83.8765C340.05 86.6325 339.325 89.7068 339.328 92.8283V121.422H352.875V92.8283Z" fill="#BFBFBF"/>
<path d="M343.844 226.266C343.851 222.252 344.66 218.286 346.216 214.624C347.772 210.962 350.041 207.686 352.875 205.011V121.422H339.328V205.011C334.795 209.273 331.753 215.022 330.692 221.331C329.632 227.64 330.616 234.143 333.484 239.79C336.353 245.437 340.939 249.901 346.505 252.462C352.071 255.023 358.291 255.532 364.164 253.906C358.355 252.323 353.209 248.751 349.531 243.748C345.854 238.746 343.853 232.597 343.844 226.266Z" fill="#C74841"/>
<path d="M375.453 205.011V92.8281C375.453 87.7724 373.55 82.9238 370.163 79.3489C366.775 75.774 362.181 73.7656 357.391 73.7656C352.6 73.7656 348.006 75.774 344.619 79.3489C341.231 82.9238 339.328 87.7724 339.328 92.8281V205.011C335.238 208.872 332.355 213.952 331.061 219.579C329.767 225.207 330.122 231.117 332.08 236.526C334.038 241.936 337.507 246.591 342.026 249.875C346.546 253.159 351.903 254.917 357.391 254.917C362.878 254.917 368.236 253.159 372.755 249.875C377.275 246.591 380.743 241.936 382.701 236.526C384.659 231.117 385.014 225.207 383.72 219.579C382.426 213.952 379.543 208.872 375.453 205.011V205.011ZM357.391 250.094C352.819 250.103 348.353 248.644 344.586 245.912C340.818 243.18 337.926 239.303 336.295 234.797C334.664 230.29 334.369 225.366 335.452 220.678C336.534 215.991 338.941 211.762 342.354 208.552C342.823 208.105 343.198 207.558 343.455 206.948C343.712 206.338 343.844 205.678 343.844 205.011V92.8281C343.844 89.0364 345.271 85.3999 347.812 82.7187C350.352 80.0375 353.798 78.5312 357.391 78.5312C360.983 78.5312 364.429 80.0375 366.97 82.7187C369.51 85.3999 370.937 89.0364 370.937 92.8281V205.011C370.938 205.679 371.071 206.339 371.328 206.949C371.586 207.559 371.962 208.105 372.432 208.552C375.843 211.763 378.248 215.993 379.328 220.68C380.409 225.367 380.114 230.29 378.482 234.796C376.851 239.302 373.96 243.178 370.193 245.91C366.426 248.642 361.961 250.101 357.391 250.094V250.094Z" fill="#E3E3E3"/>
<path d="M366.422 188.141H375.453V197.672H366.422C365.224 197.672 364.076 197.17 363.229 196.276C362.382 195.382 361.906 194.17 361.906 192.906C361.906 191.642 362.382 190.43 363.229 189.536C364.076 188.643 365.224 188.141 366.422 188.141Z" fill="#E3E3E3"/>
<path d="M366.422 159.547H375.453V169.078H366.422C365.224 169.078 364.076 168.576 363.229 167.682C362.382 166.789 361.906 165.576 361.906 164.312C361.906 163.049 362.382 161.836 363.229 160.943C364.076 160.049 365.224 159.547 366.422 159.547Z" fill="#E3E3E3"/>
<path d="M366.422 130.953H375.453V140.484H366.422C365.224 140.484 364.076 139.982 363.229 139.089C362.382 138.195 361.906 136.983 361.906 135.719C361.906 134.455 362.382 133.243 363.229 132.349C364.076 131.455 365.224 130.953 366.422 130.953Z" fill="#E3E3E3"/>
<path d="M366.422 102.359H375.453V111.891H366.422C365.224 111.891 364.076 111.389 363.229 110.495C362.382 109.601 361.906 108.389 361.906 107.125V107.125C361.906 105.861 362.382 104.649 363.229 103.755C364.076 102.861 365.224 102.359 366.422 102.359V102.359Z" fill="#E3E3E3"/>
<path d="M370.563 230.946C373.778 231.732 375.57 226.857 375.449 223.754C375.545 221.603 375.057 219.467 374.043 217.598C373.029 215.729 371.53 214.204 369.723 213.203C367.192 211.965 364.348 211.631 361.622 212.25C360.47 212.407 359.387 212.916 358.506 213.713C358.045 214.172 357.71 214.754 357.539 215.398C357.368 216.042 357.367 216.724 357.535 217.368C357.815 218.078 358.246 218.711 358.795 219.217L367.993 229.035C368.665 229.911 369.555 230.573 370.563 230.946V230.946Z" fill="white"/>
<path d="M257.862 355.919L253.531 354.938C253.531 354.938 244.5 364.469 221.922 364.469C199.344 364.469 190.313 354.938 190.313 354.938L185.978 355.919C186.129 356.814 186.527 357.643 187.12 358.302C187.545 358.75 197.75 369.234 221.922 369.234C246.094 369.234 256.299 358.75 256.724 358.307C257.319 357.647 257.715 356.816 257.862 355.919V355.919Z" fill="#E3E3E3"/>
</svg>
