<svg width="389" height="471" viewBox="0 0 389 471" fill="none" xmlns="http://www.w3.org/2000/svg">
<path d="M175.288 217.304L95.2678 217.673L96.4845 316.685L176.505 316.315L175.288 217.304Z" fill="#CCCCCC"/>
<path d="M57.6094 465.812L16.8716 465.982L12 427.362L61.4673 427.156L57.6094 465.812Z" fill="#E6E6E6"/>
<path d="M139.036 437.428L137.917 458.23C137.866 459.172 137.998 460.117 138.304 461.001C138.61 461.885 139.082 462.689 139.69 463.357C140.297 464.026 141.026 464.545 141.827 464.879C142.628 465.212 143.482 465.353 144.333 465.292L153.978 464.601C154.425 464.569 154.859 464.428 155.249 464.189C155.64 463.949 155.977 463.617 156.237 463.216C156.497 462.815 156.674 462.355 156.754 461.868C156.834 461.381 156.817 460.879 156.702 460.399L151.052 436.707L139.036 437.428Z" fill="#E6E6E6"/>
<path d="M219.931 449.353C231.329 452.241 239.496 456.384 244.897 462.016C246.82 464.007 249.319 465.174 251.939 465.305C255.285 465.484 258.014 465.057 260.056 464.032L260.056 464.032C260.579 463.772 261.029 463.362 261.358 462.844C261.688 462.326 261.885 461.718 261.929 461.084C261.984 460.44 261.881 459.79 261.633 459.201C261.384 458.612 260.998 458.107 260.514 457.736L233.309 436.646L221.926 441.765L219.293 444.732C219.007 445.053 218.794 445.444 218.67 445.873C218.545 446.303 218.512 446.76 218.574 447.207C218.636 447.655 218.791 448.082 219.026 448.454C219.262 448.826 219.572 449.134 219.931 449.353L219.931 449.353Z" fill="#E6E6E6"/>
<path d="M180.795 109.966L103.768 109.532C103.809 97.118 106.269 84.9166 111.84 73.9825C115.499 66.8014 115.322 59.0054 114.339 52.4413C112.82 42.3116 115.933 31.9258 123.055 25.4401C128.497 20.4752 135.41 17.9004 142.494 18.2008L143.99 18.2628C148.864 18.4644 153.626 20.0171 157.838 22.7785C162.05 25.5398 165.578 29.4213 168.097 34.0666C170.661 39.0262 171.741 44.7444 171.18 50.3948C170.757 55.7109 171.991 61.0734 174.79 66.4799C179.65 78.3577 180.858 93.58 180.795 109.966Z" fill="#2F2E41"/>
<path d="M236.356 437.738L221.293 442.171L145.506 265.067L152.234 438.127L137.118 438.196C119.965 356.841 89.6487 262.997 102.395 233.266L180.539 227.815L236.356 437.738Z" fill="#F50057"/>
<path d="M142.579 80.3538C153.831 80.3018 162.828 70.1664 162.675 57.7156C162.522 45.2648 153.277 35.2135 142.025 35.2655C130.773 35.3174 121.776 45.4529 121.929 57.9037C122.082 70.3544 131.327 80.4057 142.579 80.3538Z" fill="#FFB9B9"/>
<path d="M160.556 99.1799L127.012 97.1529C130.194 88.7952 131.407 80.7556 130.003 73.1391L154.977 73.0238C154.992 78.8767 157.748 88.9885 160.556 99.1799Z" fill="#FFB9B9"/>
<path d="M183.248 234.347L109.714 240.505L115.497 96.1152L128.264 92.0562L142.767 95.6255L157.127 87.5589L166.372 91.1533L183.248 234.347Z" fill="#F50057"/>
<path d="M123.407 338.624L72.9742 326.129C87.2498 271.203 112.64 145.581 103.397 100.898L129.524 87.6868L123.407 338.624Z" fill="#E6E6E6"/>
<path d="M97.1419 180.2L77.9222 167.198L93.5287 114.446C95.2747 109.002 98.6909 104.422 103.187 101.498L108.619 97.9651L105.985 151.068L97.1419 180.2Z" fill="#E6E6E6"/>
<path d="M228.083 326.14C212.34 336.372 172.744 342.219 155.241 335.204C153.35 285.646 149.114 145.459 156.452 86.1079L185.53 99.0646L183.383 138.347C169.972 172.005 211.553 288.826 228.083 326.14Z" fill="#E6E6E6"/>
<path d="M223.902 173.069L206.076 166.606L182.051 136.898L185.53 99.0643L225.712 159.97L223.902 173.069Z" fill="#E6E6E6"/>
<path d="M168.639 201.632C168.946 203.041 169.745 204.262 170.86 205.028C171.975 205.795 173.314 206.043 174.585 205.72L189.602 201.876L187.294 191.247L172.277 195.09C171.006 195.416 169.909 196.288 169.227 197.515C168.544 198.741 168.333 200.222 168.639 201.632Z" fill="#FFB9B9"/>
<path d="M159.975 51.9099C148.596 46.8131 137.415 46.4921 126.449 51.3373L121.625 33.1778L163.686 32.9837L159.975 51.9099Z" fill="#2F2E41"/>
<path d="M182.037 189.262L190.795 206.676C205.111 202.175 217.393 188.136 229.141 171.59L225.712 159.97L205.411 165.882L182.037 189.262Z" fill="#E6E6E6"/>
<path d="M175.351 153.293L172.723 153.305C172.217 112.163 164.209 83.5267 156.749 83.5611L156.056 80.6552C162.747 80.6243 167.159 92.5375 169.682 102.537C173.102 116.093 175.116 134.119 175.351 153.293Z" fill="#3F3D56"/>
<path d="M114.764 143.391L112.135 143.403C111.672 105.723 119.093 82.2804 130.443 82.228L129.822 85.1399C121.971 85.1761 114.27 103.202 114.764 143.391Z" fill="#3F3D56"/>
<path d="M174.135 161.299C177.765 161.282 180.667 158.013 180.618 153.996C180.569 149.98 177.586 146.738 173.957 146.754C170.327 146.771 167.425 150.041 167.474 154.057C167.523 158.073 170.506 161.316 174.135 161.299Z" fill="#3F3D56"/>
<path d="M104.463 160.893L101.834 160.905C101.706 150.479 106.909 141.973 113.431 141.943L113.467 144.852C108.394 144.875 104.355 152.071 104.463 160.893Z" fill="#3F3D56"/>
<path d="M125.493 160.796L122.865 160.808C122.756 151.986 118.541 144.828 113.467 144.852L113.431 141.943C119.954 141.913 125.365 150.37 125.493 160.796Z" fill="#3F3D56"/>
<path d="M124.224 164.438C125.676 164.432 126.837 163.124 126.817 161.517C126.797 159.911 125.604 158.614 124.152 158.62C122.7 158.627 121.539 159.935 121.559 161.542C121.579 163.148 122.772 164.445 124.224 164.438Z" fill="#3F3D56"/>
<path d="M103.193 164.535C104.645 164.529 105.806 163.221 105.786 161.614C105.767 160.008 104.574 158.711 103.122 158.718C101.67 158.724 100.509 160.032 100.529 161.639C100.548 163.245 101.741 164.542 103.193 164.535Z" fill="#3F3D56"/>
<path d="M69.9685 135.029L86.4103 138.194L124.624 197.006L104.644 191.912L69.9685 135.029Z" fill="#F50057"/>
<path d="M67.0505 134.32C66.8006 134.326 66.5572 134.405 66.3458 134.55C66.1344 134.696 65.9627 134.902 65.8488 135.147C65.7348 135.392 65.6826 135.667 65.6978 135.943C65.7131 136.219 65.795 136.487 65.9352 136.717L101.701 195.389C101.9 195.717 102.205 195.949 102.553 196.037L118.909 200.207C119.185 200.277 119.473 200.253 119.734 200.138C119.996 200.023 120.219 199.823 120.374 199.563C120.529 199.303 120.609 198.997 120.602 198.685C120.596 198.372 120.504 198.068 120.338 197.813L81.1195 137.456C81.0132 137.291 80.8787 137.152 80.724 137.044C80.5692 136.937 80.397 136.864 80.2174 136.83L67.3136 134.345C67.2267 134.328 67.1386 134.32 67.0505 134.32Z" fill="#3F3D56"/>
<path d="M89.4271 176.285L90.5345 187.135L105.882 185.376C107.181 185.227 108.369 184.513 109.184 183.39C109.999 182.268 110.374 180.829 110.227 179.39C110.08 177.951 109.423 176.63 108.401 175.718C107.379 174.806 106.074 174.377 104.775 174.526L89.4271 176.285Z" fill="#FFB9B9"/>
<path d="M76.0478 175.089C76.1156 178.79 77.5026 182.326 79.9065 184.925C82.3104 187.524 85.5363 188.976 88.8814 188.965L91.4085 188.953L93.0398 171.98L77.7324 165.982L76.0478 175.089Z" fill="#E6E6E6"/>
<path d="M17.7263 413.678C25.4835 429.171 41.2964 430.698 41.2964 430.698C41.2964 430.698 44.5325 407.108 36.7753 391.615C29.0182 376.123 13.2053 374.595 13.2053 374.595C13.2053 374.595 9.96918 398.185 17.7263 413.678Z" fill="#E6E6E6"/>
<path d="M59.2363 418.693C52.4405 428.983 38.0854 430.129 38.0854 430.129C38.0854 430.129 34.7484 414.592 41.5442 404.303C48.34 394.013 62.6951 392.867 62.6951 392.867C62.6951 392.867 66.032 408.404 59.2363 418.693Z" fill="#E6E6E6"/>
</svg>
