<svg width="484" height="404" viewBox="0 0 484 404" fill="none" xmlns="http://www.w3.org/2000/svg">
<path opacity="0.18" d="M446.792 332.003C436.328 374.029 387.329 398.698 341.1 402.969C334.926 403.543 328.738 403.857 322.564 403.948C287.769 404.51 252.947 398.515 218.025 396.178C212.751 395.825 207.477 395.551 202.203 395.407C152.445 393.984 97.9883 402.094 56.6539 376.314C24.0533 355.993 8.07651 318.16 7.02171 281.737C5.9669 245.314 -6.00164 184.373 7.02172 150C23.7721 105.793 67.4973 86.2223 103.769 53.6387C136.468 24.2939 128.389 -2.91135 173 1.60725C214.588 5.81243 199.511 -3.57739 240.69 1.60725C299.605 9.02508 455.132 40.7916 446.792 95.4851C443.698 115.806 485.119 205.995 483.417 226.485C479.887 268.615 457.045 290.774 446.792 332.003Z" fill="#FF0D11"/>
<path d="M141.439 252.121C158.251 252.121 171.879 223.897 171.879 189.081C171.879 154.265 158.251 126.041 141.439 126.041C124.628 126.041 111 154.265 111 189.081C111 223.897 124.628 252.121 141.439 252.121Z" fill="#FF0D11"/>
<path d="M141.16 189.735C142.678 162.294 145.738 143.758 145.768 143.574L145.105 143.46C145.074 143.644 142.009 162.21 140.488 189.686C139.085 215.045 138.746 253.402 145.104 292.123L145.769 292.011C139.421 253.355 139.759 215.056 141.16 189.735Z" fill="#3F3D56"/>
<path d="M168.645 176.296L141.123 191.248L141.441 191.85L168.963 176.899L168.645 176.296Z" fill="#3F3D56"/>
<path d="M112.387 183.79L112.069 184.393L139.595 199.337L139.913 198.734L112.387 183.79Z" fill="#3F3D56"/>
<path d="M352.51 245.567C374.32 245.567 392 208.952 392 163.784C392 118.616 374.32 82 352.51 82C330.7 82 313.02 118.616 313.02 163.784C313.02 208.952 330.7 245.567 352.51 245.567Z" fill="#FF0D11"/>
<path d="M352.03 164.621C354 129.016 357.97 104.966 358.01 104.727L357.381 104.619C357.341 104.858 353.366 128.936 351.393 164.575C349.573 197.468 349.134 247.22 357.381 297.444L358.01 297.338C349.773 247.176 350.212 197.479 352.03 164.621Z" fill="#3F3D56"/>
<path d="M387.86 147.303L352.155 166.7L352.456 167.272L388.162 147.874L387.86 147.303Z" fill="#3F3D56"/>
<path d="M314.763 157.025L314.462 157.596L350.173 176.984L350.474 176.412L314.763 157.025Z" fill="#3F3D56"/>
<path d="M304.931 267.718C313.08 267.718 319.686 254.037 319.686 237.161C319.686 220.285 313.08 206.605 304.931 206.605C296.782 206.605 290.177 220.285 290.177 237.161C290.177 254.037 296.782 267.718 304.931 267.718Z" fill="#E6E6E6"/>
<path d="M304.918 238.478L305.005 238.644L318.346 231.396L318.045 230.825L304.946 237.941C305.671 224.399 307.153 215.309 307.183 215.13L306.554 215.022C306.521 215.217 304.76 226.012 304.134 241.633L290.923 234.455L290.622 235.027L303.962 242.274L304.122 241.972C303.621 254.864 303.902 270.985 306.554 287.134L307.183 287.027C304.292 269.42 304.228 251.846 304.918 238.478Z" fill="#3F3D56"/>
<path d="M379.691 304.153C301.103 278.902 229.841 280.248 183.898 285.823C134.126 291.863 102.542 304.025 102.229 304.147L102 303.542C102.314 303.42 133.972 291.229 183.823 285.179C213.146 281.625 242.732 280.857 272.196 282.885C308.773 285.398 344.925 292.33 379.884 303.536L379.691 304.153Z" fill="#3F3D56"/>
<path d="M203.019 297.017C203.019 297.017 203.24 292.33 207.758 292.874Z" fill="#3F3D56"/>
<path d="M201.743 292.556C202.991 292.556 204.004 291.529 204.004 290.261C204.004 288.993 202.991 287.966 201.743 287.966C200.494 287.966 199.481 288.993 199.481 290.261C199.481 291.529 200.494 292.556 201.743 292.556Z" fill="#FF0D11"/>
<path d="M202.013 294.126H201.375V298.661H202.013V294.126Z" fill="#3F3D56"/>
<path d="M285.364 297.989C285.364 297.989 285.584 293.301 290.102 293.846Z" fill="#3F3D56"/>
<path d="M284.087 293.528C285.336 293.528 286.348 292.501 286.348 291.233C286.348 289.965 285.336 288.938 284.087 288.938C282.838 288.938 281.826 289.965 281.826 291.233C281.826 292.501 282.838 293.528 284.087 293.528Z" fill="#FF0D11"/>
<path d="M284.357 295.098H283.719V299.633H284.357V295.098Z" fill="#3F3D56"/>
<path d="M149.719 289.89C149.719 289.89 149.939 285.203 154.457 285.748Z" fill="#3F3D56"/>
<path d="M148.442 285.429C149.691 285.429 150.704 284.402 150.704 283.134C150.704 281.866 149.691 280.839 148.442 280.839C147.193 280.839 146.181 281.866 146.181 283.134C146.181 284.402 147.193 285.429 148.442 285.429Z" fill="#FF0D11"/>
<path d="M148.713 286.999H148.074V291.535H148.713V286.999Z" fill="#3F3D56"/>
<path d="M184.508 283.735C184.508 283.735 184.728 279.048 189.246 279.592Z" fill="#3F3D56"/>
<path d="M183.231 279.274C184.48 279.274 185.492 278.247 185.492 276.979C185.492 275.711 184.48 274.684 183.231 274.684C181.982 274.684 180.97 275.711 180.97 276.979C180.97 278.247 181.982 279.274 183.231 279.274Z" fill="#FF0D11"/>
<path d="M183.501 280.844H182.863V285.38H183.501V280.844Z" fill="#3F3D56"/>
<path d="M271.64 292.482C271.64 292.482 271.86 287.794 276.378 288.339Z" fill="#3F3D56"/>
<path d="M270.363 288.021C271.612 288.021 272.624 286.993 272.624 285.726C272.624 284.458 271.612 283.431 270.363 283.431C269.114 283.431 268.102 284.458 268.102 285.726C268.102 286.993 269.114 288.021 270.363 288.021Z" fill="#FF0D11"/>
<path d="M270.633 289.591H269.995V294.126H270.633V289.591Z" fill="#3F3D56"/>
<path d="M369.783 283.085L382.92 302.855L370.689 315.268L369.104 312.05L371.822 305.613C371.822 305.613 371.369 299.636 369.783 298.027C368.198 296.418 361.177 286.763 361.177 286.763L369.783 283.085Z" fill="#FFB8B8"/>
<path d="M353.023 219.177C353.023 219.177 355.514 223.179 350.305 240.42C350.305 240.42 374.603 282.044 370.752 284.802C366.902 287.561 356.483 293.666 353.765 291.827C351.047 289.988 331.28 227.683 331.28 227.683L353.023 219.177Z" fill="#2F2E41"/>
<path d="M380.541 299.292L384.505 303.315C386.543 305.384 387.902 308.372 384.052 310.901C380.202 313.429 366.839 322.855 362.309 319.866C357.779 316.878 367.745 314.119 367.745 314.119C367.745 314.119 369.393 307.918 370.267 309.294C371.142 310.671 371.142 313.429 371.142 313.429L380.541 299.292Z" fill="#2F2E41"/>
<path d="M332.639 293.889C332.639 293.889 325.392 307.452 325.392 309.062C325.392 310.671 325.845 315.268 325.845 315.268L312.029 318.717L307.273 316.418L308.858 312.28C308.858 312.28 317.465 309.292 319.277 303.544C321.088 297.797 323.127 291.82 323.127 291.82L332.639 293.889Z" fill="#FFB8B8"/>
<path d="M341.019 158.948C346.273 158.948 350.532 154.625 350.532 149.293C350.532 143.961 346.273 139.638 341.019 139.638C335.766 139.638 331.507 143.961 331.507 149.293C331.507 154.625 335.766 158.948 341.019 158.948Z" fill="#FFB8B8"/>
<path d="M338.528 157.569L343.069 170.814L353.023 166.304C353.023 166.304 346.228 155.73 346.228 154.351L338.528 157.569Z" fill="#FFB8B8"/>
<path d="M337.169 204.695H349.173C349.173 204.695 357.779 218.028 352.797 232.051C352.034 234.198 351.276 237.206 350.52 240.763C348.782 248.941 347.05 260.02 345.276 270.2C342.785 284.5 340.208 297.028 337.407 297.255C331.745 297.715 320.734 297.638 320.734 295.339C320.734 293.04 328.11 226.534 328.11 226.534L329.695 223.775L329.995 211.759C330.042 209.863 330.82 208.061 332.161 206.74C333.502 205.42 335.3 204.685 337.169 204.695V204.695Z" fill="#2F2E41"/>
<path d="M325.278 308.947C325.278 308.947 327.883 313.429 327.204 316.648C326.524 319.866 325.392 319.406 320.409 319.866C315.426 320.326 298.44 320.326 298.44 317.108C298.44 313.889 311.691 309.71 311.747 310.995C311.802 312.28 312.255 314.809 310.896 315.269C309.538 315.728 310.783 315.383 310.783 315.383L325.278 308.947Z" fill="#2F2E41"/>
<path d="M338.53 233.388C338.53 233.388 337.545 249.718 330.973 244.857C324.402 239.995 333.534 231.214 333.534 231.214L338.53 233.388Z" fill="white"/>
<path d="M351.645 211.881C351.961 212.026 352.31 212.08 352.654 212.039C352.998 211.997 353.324 211.862 353.598 211.646C353.995 211.33 354.26 210.872 354.339 210.365C355.289 204.806 356.446 189.395 357.112 181.602C357.948 171.823 353.772 164.249 353.737 164.203L351.276 160.769C351.02 160.41 350.653 160.149 350.233 160.03C349.813 159.91 349.365 159.938 348.963 160.11C348.963 160.11 341.28 168.2 341.252 168.513C341.131 169.854 340.217 172.826 335.451 177.664C330.236 182.957 330.207 187.576 330.323 188.866C330.33 188.951 330.334 189.036 330.334 189.12C330.324 189.699 330.402 190.276 330.564 190.831C332.748 197.82 331.038 206.188 328.291 214.922C328.187 215.317 328.206 215.735 328.346 216.118C328.486 216.501 328.74 216.83 329.073 217.06C329.875 217.614 328.913 216.792 329.2 217.148C331.093 219.503 333.817 216.221 336.933 212.64C338.019 211.393 339.249 209.979 340.699 208.508C342.693 206.484 346.502 211.102 348.273 211.102C349.439 211.116 350.588 211.382 351.645 211.881V211.881Z" fill="#575A89"/>
<path d="M352.701 167.769C352.701 167.769 357.677 172.028 354.85 177.551C352.024 183.074 352.399 187.148 352.399 187.148C352.399 187.148 351.647 225.09 342.815 223.247L338.797 234.505L331.542 231.847L335.737 221.917C335.737 221.917 332.377 221.705 333.359 219.381C334.048 217.749 337.764 200.035 339.915 189.635C340.826 185.228 341.457 182.134 341.457 182.134C341.457 182.134 344.315 166.62 352.701 167.769Z" fill="#575A89"/>
<path opacity="0.2" d="M353.745 187.051L350.948 205.681L352.457 185.76L353.745 187.051Z" fill="black"/>
<path d="M330.641 145.015C330.641 145.015 329.042 132.383 342.09 136.525C342.09 136.525 351.41 134.79 354.466 146.622L357.56 159.024L356.052 158.191L355.349 159.751L352.905 160.379L351.859 158.272L351.354 160.831L331.337 162.856C331.337 162.856 340.302 157.475 340.444 147.83L338.736 149.662L330.641 145.015Z" fill="#2F2E41"/>
<path opacity="0.2" d="M345.527 270.927L349.99 240.739L346.36 273.328L345.527 270.927Z" fill="black"/>
<path d="M352.821 141.758C355.601 141.758 357.855 139.47 357.855 136.649C357.855 133.827 355.601 131.54 352.821 131.54C350.042 131.54 347.788 133.827 347.788 136.649C347.788 139.47 350.042 141.758 352.821 141.758Z" fill="#2F2E41"/>
<path d="M347.635 135.398C347.718 134.102 348.284 132.887 349.219 131.999C350.154 131.112 351.386 130.62 352.666 130.623C352.562 130.61 352.459 130.594 352.353 130.587C351.693 130.543 351.031 130.632 350.405 130.849C349.78 131.065 349.202 131.404 348.705 131.847C348.208 132.29 347.803 132.828 347.511 133.43C347.219 134.033 347.047 134.687 347.005 135.357C346.962 136.027 347.05 136.698 347.264 137.334C347.477 137.969 347.812 138.555 348.248 139.059C348.685 139.563 349.215 139.975 349.809 140.27C350.402 140.566 351.047 140.74 351.707 140.783C351.813 140.79 351.917 140.787 352.022 140.788C350.753 140.624 349.592 139.976 348.777 138.975C347.962 137.973 347.553 136.694 347.635 135.398V135.398Z" fill="#2F2E41"/>
<path opacity="0.2" d="M338.457 192.856L334.029 216.947L339.769 190.338L338.457 192.856Z" fill="black"/>
<path d="M338.734 156.251L336.153 158.226C333.495 156.868 331.501 153.727 330.776 150.729L333.589 149.288C333.81 152.346 335.949 154.38 338.734 156.251Z" fill="white"/>
<path d="M339.806 149.724H333.375C333.318 149.724 333.263 149.701 333.223 149.66C333.183 149.619 333.16 149.564 333.16 149.506C333.16 149.448 333.183 149.393 333.223 149.352C333.263 149.311 333.318 149.288 333.375 149.288H339.806C339.862 149.288 339.917 149.311 339.957 149.352C339.997 149.393 340.02 149.448 340.02 149.506C340.02 149.564 339.997 149.619 339.957 149.66C339.917 149.701 339.862 149.724 339.806 149.724V149.724Z" fill="white"/>
<path d="M338.519 156.251C338.484 156.251 338.45 156.242 338.419 156.226C338.388 156.209 338.362 156.185 338.342 156.155C338.322 156.126 338.31 156.092 338.306 156.057C338.303 156.021 338.308 155.986 338.321 155.953L340.036 151.601C340.046 151.574 340.061 151.55 340.081 151.53C340.101 151.509 340.124 151.493 340.15 151.481C340.176 151.47 340.204 151.464 340.232 151.464C340.26 151.463 340.288 151.469 340.314 151.479C340.34 151.49 340.364 151.506 340.384 151.526C340.405 151.546 340.421 151.569 340.432 151.596C340.443 151.622 340.449 151.65 340.449 151.679C340.449 151.708 340.444 151.736 340.433 151.762L338.718 156.114C338.702 156.155 338.675 156.189 338.64 156.214C338.604 156.238 338.562 156.251 338.519 156.251V156.251Z" fill="white"/>
<path d="M340.238 152.294C341.107 152.294 341.811 151.294 341.811 150.059C341.811 148.825 341.107 147.824 340.238 147.824C339.369 147.824 338.665 148.825 338.665 150.059C338.665 151.294 339.369 152.294 340.238 152.294Z" fill="#FFB8B8"/>
<path d="M229.407 156.792L246.159 160.683L253.237 147.134L238.913 141.458L229.407 156.792Z" fill="#2F2E41"/>
<path d="M238.308 229.73C238.308 229.73 232.923 242.255 232.923 245.898C232.923 245.898 235.054 255.805 234.381 258.538L232.025 263.661L227.089 261.612L225.743 247.948L225.968 226.086L238.308 229.73Z" fill="#FFB9B9"/>
<path d="M241.337 154.806C241.337 154.806 241.785 162.321 240.888 164.599C239.99 166.876 244.253 171.203 244.253 171.203L250.984 162.321C250.984 162.321 246.497 157.767 247.619 152.757L241.337 154.806Z" fill="#FFB9B9"/>
<path d="M227.314 206.843C227.314 206.843 220.807 219.14 227.089 218.229C233.372 217.318 231.24 206.501 231.24 206.501" fill="#E6E6E6"/>
<path d="M231.24 206.501L233.371 184.981L233.259 171.886L228.323 172.797V184.867L227.314 206.843" fill="#FFB9B9"/>
<path d="M225.855 260.018L235.503 256.146L236.625 275.503C236.625 275.503 238.644 281.424 237.971 283.702C237.971 283.702 238.42 287.573 237.298 287.801C236.176 288.029 233.035 288.484 232.811 288.256C232.586 288.029 232.586 287.345 232.586 287.345C232.586 287.345 230.343 288.939 230.118 290.761C230.118 290.761 220.695 293.722 220.471 290.989C220.246 288.256 225.182 285.979 225.182 285.979L228.996 280.058L225.855 260.018Z" fill="#2F2E41"/>
<path d="M258.389 229.73C258.389 229.73 253.004 242.255 253.004 245.898C253.004 245.898 255.135 255.805 254.462 258.538L252.106 263.661L247.17 261.612L245.824 247.948L246.048 226.086L258.389 229.73Z" fill="#FFB9B9"/>
<path d="M246.273 260.018L255.92 256.146L257.042 275.503C257.042 275.503 259.062 281.424 258.388 283.702C258.388 283.702 258.837 287.573 257.715 287.801C256.593 288.029 253.452 288.484 253.228 288.256C253.004 288.029 253.004 287.345 253.004 287.345C253.004 287.345 250.76 288.939 250.536 290.761C250.536 290.761 241.112 293.722 240.888 290.989C240.663 288.256 245.599 285.979 245.599 285.979L249.414 280.058L246.273 260.018Z" fill="#2F2E41"/>
<path d="M250.762 149.57C250.761 151.363 250.109 153.093 248.93 154.429C247.751 155.765 246.128 156.613 244.372 156.81C242.616 157.007 240.849 156.541 239.411 155.499C237.973 154.457 236.963 152.914 236.576 151.164C236.458 150.641 236.399 150.106 236.4 149.57C236.401 147.637 237.159 145.785 238.505 144.419C239.852 143.053 241.677 142.286 243.581 142.286C245.484 142.286 247.31 143.053 248.657 144.419C250.003 145.785 250.76 147.637 250.762 149.57V149.57Z" fill="#FFB9B9"/>
<path d="M244.478 164.143L250.049 161.207L252.555 163.232C252.555 163.232 258.613 163.005 260.857 165.737C263.1 168.47 264.334 175.416 264.334 175.416C264.334 175.416 256.93 173.822 257.828 180.198L256.481 176.555L255.247 179.629L240.215 184.867L233.484 173.252C233.484 173.252 228.997 171.886 227.426 175.074C227.426 175.074 227.763 163.574 232.138 163.232C235.08 163.003 237.298 163.005 237.298 163.005L239.766 162.549L241.347 161.98L244.478 164.143Z" fill="#575A89"/>
<path d="M254.013 189.08C254.013 189.08 265.793 224.947 262.427 229.957C262.427 229.957 249.863 236.334 224.734 227.68L234.942 187.486C241.213 186.184 247.57 186.715 254.013 189.08Z" fill="#2F2E41"/>
<path d="M254.013 189.08L257.329 177.517C253.352 173.127 256.784 163.393 256.784 163.393L251.986 162.349C251.986 162.349 247.17 175.53 242.234 173.936C237.298 172.341 239.991 162.094 239.991 162.094L235.503 162.549L233.484 170.52L234.942 187.486C241.024 186.956 247.403 187.572 254.013 189.08Z" fill="#575A89"/>
<path d="M259.847 206.501L261.417 184.867L261.866 171.886L256.93 172.797V184.867L255.92 206.843" fill="#FFB9B9"/>
<path d="M255.92 206.843C255.92 206.843 249.414 219.14 255.696 218.229C261.978 217.318 259.847 206.501 259.847 206.501" fill="white"/>
<path d="M264.334 175.416C264.334 175.416 263.537 163.721 256.868 163.761V177.286C256.868 177.286 261.866 174.277 264.334 175.416Z" fill="#575A89"/>
<path d="M245.877 151.45C245.839 151.45 245.802 151.438 245.771 151.416C245.74 151.394 245.717 151.362 245.704 151.326C245.691 151.29 245.69 151.25 245.701 151.213C245.711 151.176 245.733 151.143 245.762 151.119L249.424 148.146C249.443 148.13 249.464 148.119 249.488 148.112C249.511 148.105 249.535 148.103 249.559 148.105C249.583 148.108 249.606 148.115 249.628 148.127C249.649 148.139 249.667 148.155 249.683 148.174C249.698 148.193 249.709 148.215 249.716 148.239C249.722 148.262 249.724 148.287 249.721 148.311C249.719 148.336 249.711 148.359 249.7 148.381C249.688 148.402 249.672 148.421 249.653 148.436L245.991 151.41C245.959 151.436 245.918 151.45 245.877 151.45Z" fill="white"/>
<path d="M246.154 155.91C246.073 156.01 245.993 156.111 245.908 156.204C244.937 156.651 243.879 156.873 242.813 156.853C241.746 156.833 240.697 156.573 239.742 156.09C238.788 155.607 237.951 154.915 237.292 154.063C236.634 153.211 236.171 152.22 235.938 151.164L239.407 150.516L246.154 151.164C244.609 153.074 244.795 153.736 246.154 155.91Z" fill="white"/>
<path d="M239.526 139.369C239.526 139.369 235.816 140.077 234.957 144.775C234.823 145.567 234.799 146.374 234.885 147.173C234.97 148.077 234.846 149.987 232.912 152.236C231.65 153.695 230.473 155.228 229.39 156.827V156.827L233.267 157.875L235 151.354C235.84 148.193 237.134 145.174 238.84 142.395L238.876 142.337C238.876 142.337 240.163 145.83 243.615 146.309L242.551 144.887C242.551 144.887 246.586 147.254 248.872 147.978C249.133 148.06 249.367 148.213 249.548 148.421C249.73 148.628 249.852 148.882 249.902 149.155C249.952 149.428 249.927 149.709 249.831 149.969C249.735 150.228 249.571 150.457 249.357 150.629C249.341 150.642 249.324 150.655 249.307 150.668C247.626 151.964 244.195 155.057 245.551 158.049C246.906 161.042 245.326 161.587 245.326 161.587L248.24 160.462L249.574 159.882L249.439 160.883L255.951 161.021C255.951 161.021 257.71 161.011 254.585 156.243C254.585 156.243 253.83 154.456 254.45 153.09C254.947 152.056 255.194 150.917 255.171 149.766C254.975 144.96 252.98 135.182 239.526 139.369Z" fill="#2F2E41"/>
<path d="M148.182 276.277C148.182 276.277 148.182 307.201 141.189 315.313C141.189 315.313 139.691 319.369 139.191 320.889C138.912 321.755 138.578 322.602 138.192 323.424V325.452C138.192 325.452 124.706 323.931 123.208 320.383L125.705 317.341C125.705 317.341 126.205 316.834 125.705 315.313C125.206 313.792 126.704 313.792 126.704 313.792L130.201 305.681L129.701 272.221L132.199 226.087L153.676 225.073L148.182 276.277Z" fill="#2F2E41"/>
<path d="M137.193 322.41C137.193 322.41 140.689 333.057 137.193 333.563C133.697 334.07 103.229 334.577 103.728 330.522C104.228 326.466 114.217 326.973 114.217 326.973L124.706 320.382L137.193 322.41Z" fill="#2F2E41"/>
<path d="M168.161 226.087C168.161 226.087 169.16 232.678 165.164 239.775C161.168 246.873 163.665 270.7 163.665 270.7L199.128 302.132C199.128 302.132 192.136 314.299 189.638 313.792C187.141 313.285 147.682 280.839 147.682 280.839L132.198 228.115L168.161 226.087Z" fill="#2F2E41"/>
<path d="M198.641 300.788C198.641 300.788 209.372 303.491 207.922 306.759C206.472 310.028 190.583 336.42 187.476 333.82C184.368 331.221 190.138 322.928 190.138 322.928L190.269 310.408L198.641 300.788Z" fill="#2F2E41"/>
<path d="M160.169 131.793C160.173 134.463 159.269 137.054 157.608 139.126C156.295 140.777 154.563 142.033 152.597 142.756C150.632 143.48 148.509 143.644 146.459 143.23C145.432 143.029 144.438 142.682 143.507 142.199C142.027 141.443 140.727 140.37 139.695 139.055C138.662 137.74 137.923 136.213 137.526 134.581C137.303 133.669 137.191 132.732 137.193 131.793C137.193 128.7 138.403 125.734 140.557 123.547C142.712 121.361 145.634 120.132 148.681 120.132C151.728 120.132 154.65 121.361 156.804 123.547C158.959 125.734 160.169 128.7 160.169 131.793V131.793Z" fill="#A0616A"/>
<path d="M157.72 135.906L157.212 150.91L147.546 154.787C147.546 154.787 146.598 139.423 145.26 138.572C143.921 137.72 157.72 135.906 157.72 135.906Z" fill="#A0616A"/>
<path d="M145.185 156.633C145.185 156.633 158.671 142.945 162.167 143.452C165.663 143.959 165.663 145.48 165.663 146.494C165.663 147.508 164.664 148.015 165.663 148.522C166.662 149.029 167.661 148.522 167.661 150.043C167.661 151.563 176.652 166.772 173.655 183.502C170.658 200.232 167.162 208.343 168.66 217.469C170.159 226.594 169.16 228.622 169.16 228.622C169.16 228.622 131.699 231.664 131.2 228.115C130.7 224.566 132.698 226.594 130.201 224.059C127.703 221.524 128.702 221.524 128.702 220.004C128.702 218.483 139.691 156.633 145.185 156.633Z" fill="#575A89"/>
<path d="M152.178 225.58C152.178 225.58 146.184 240.282 141.689 236.733C137.193 233.185 143.686 221.018 143.686 221.018L152.178 225.58Z" fill="white"/>
<path d="M166.662 157.647C166.662 157.647 178.398 159.011 174.028 180.889C169.659 202.767 152.677 228.115 152.677 228.115L141.189 222.538L156.173 192.627L152.677 173.87C152.677 173.87 150.679 156.126 166.662 157.647Z" fill="#575A89"/>
<path opacity="0.2" d="M156.423 192.881L139.94 220.764L141.439 222.285L156.423 192.881Z" fill="black"/>
<path opacity="0.2" d="M165.148 205.875L151.928 227.861H156.423L165.148 205.875Z" fill="black"/>
<path opacity="0.2" d="M135.286 245.831L134.622 246.088L147.765 281.066L148.429 280.809L135.286 245.831Z" fill="black"/>
<path d="M145.256 159.416C145.648 159.416 145.966 159.094 145.966 158.695C145.966 158.297 145.648 157.974 145.256 157.974C144.863 157.974 144.545 158.297 144.545 158.695C144.545 159.094 144.863 159.416 145.256 159.416Z" fill="#D0CDE1"/>
<path d="M139.216 178.889C139.292 178.889 139.366 178.864 139.427 178.818C139.488 178.773 139.533 178.708 139.555 178.635L145.595 158.802C145.609 158.757 145.614 158.709 145.61 158.662C145.605 158.615 145.592 158.569 145.57 158.527C145.548 158.485 145.519 158.448 145.483 158.417C145.447 158.387 145.405 158.364 145.361 158.35C145.316 158.336 145.269 158.331 145.223 158.336C145.176 158.34 145.131 158.354 145.09 158.376C145.049 158.398 145.012 158.428 144.982 158.465C144.952 158.501 144.93 158.544 144.916 158.589L138.877 178.422C138.86 178.476 138.857 178.533 138.866 178.588C138.875 178.644 138.898 178.697 138.93 178.742C138.963 178.787 139.007 178.824 139.056 178.85C139.106 178.875 139.161 178.889 139.216 178.889V178.889Z" fill="#D0CDE1"/>
<path d="M146.378 140.723L143.507 143.495C140.55 141.985 137.694 137.916 136.888 134.581L140.655 132.979C140.901 136.38 143.28 138.641 146.378 140.723Z" fill="white"/>
<path d="M147.093 134.431C147.082 134.431 147.071 134.43 147.059 134.428L140.383 133.46C140.352 133.456 140.322 133.445 140.295 133.429C140.268 133.413 140.245 133.391 140.226 133.366C140.207 133.341 140.193 133.312 140.185 133.281C140.178 133.25 140.176 133.218 140.18 133.187C140.185 133.155 140.195 133.125 140.211 133.097C140.227 133.07 140.248 133.046 140.273 133.027C140.298 133.008 140.327 132.994 140.357 132.986C140.387 132.978 140.419 132.976 140.45 132.981L147.126 133.949C147.186 133.958 147.24 133.989 147.278 134.036C147.316 134.084 147.335 134.144 147.331 134.205C147.327 134.267 147.3 134.324 147.256 134.365C147.212 134.407 147.154 134.431 147.093 134.431V134.431Z" fill="white"/>
<path d="M146.139 140.723C146.097 140.723 146.057 140.712 146.02 140.691C145.984 140.67 145.954 140.64 145.933 140.603C145.912 140.567 145.901 140.525 145.901 140.483C145.9 140.441 145.911 140.399 145.931 140.362L148.144 136.365C148.159 136.338 148.179 136.313 148.204 136.293C148.229 136.274 148.257 136.259 148.287 136.251C148.317 136.242 148.349 136.239 148.38 136.243C148.411 136.247 148.441 136.257 148.469 136.273C148.496 136.288 148.52 136.309 148.539 136.334C148.559 136.359 148.573 136.388 148.581 136.419C148.59 136.449 148.592 136.481 148.588 136.513C148.584 136.544 148.574 136.575 148.559 136.603L146.347 140.6C146.326 140.637 146.296 140.668 146.259 140.69C146.223 140.712 146.181 140.723 146.139 140.723V140.723Z" fill="white"/>
<path d="M153.881 138.798C152.951 138.299 151.87 138.196 150.864 137.886C147.262 136.776 144.85 132.644 145.62 128.905C145.762 128.425 145.826 127.925 145.809 127.424C145.674 126.317 144.558 125.602 143.487 125.348C142.417 125.095 141.278 125.132 140.254 124.724C138.674 124.093 137.625 122.445 137.397 120.738C137.17 119.031 137.669 117.289 138.481 115.776L138.868 116.906C139.457 116.399 139.895 115.734 140.131 114.987C140.571 115.062 140.984 115.251 141.331 115.534C141.678 115.818 141.948 116.187 142.115 116.606C142.735 116.978 142.825 115.452 143.51 115.227C143.798 115.133 144.093 115.312 144.366 115.441C145.748 116.095 147.353 115.536 148.835 115.174C151.402 114.549 154.077 114.546 156.645 115.164C158.351 115.577 160.039 116.297 161.26 117.575C162.262 118.624 162.887 119.982 163.419 121.34C164.728 124.685 165.593 128.304 165.161 131.876C164.801 134.799 163.596 137.548 161.698 139.777C160.71 140.933 157.485 144.966 155.716 144.278C153.494 143.414 156.499 140.203 153.881 138.798Z" fill="#2F2E41"/>
</svg>
