<svg width="477" height="404" viewBox="0 0 477 404" fill="none" xmlns="http://www.w3.org/2000/svg">
<path opacity="0.18" d="M439.792 332.003C429.328 374.029 380.329 398.698 334.1 402.969C327.926 403.543 321.738 403.857 315.564 403.948C280.769 404.51 245.947 398.515 211.025 396.178C205.751 395.825 200.477 395.551 195.203 395.407C145.445 393.984 90.9883 402.094 49.6539 376.314C17.0533 355.993 1.07652 318.16 0.0217149 281.737C-1.03309 245.314 36.6306 222.858 49.654 188.485C66.4043 144.278 60.4973 86.2223 96.7687 53.6387C129.468 24.2939 121.389 -2.91135 166 1.60725C207.588 5.81243 192.511 -3.57739 233.69 1.60725C292.605 9.02508 448.132 40.7916 439.792 95.4851C436.698 115.806 478.119 205.995 476.417 226.485C472.887 268.615 450.045 290.774 439.792 332.003Z" fill="#FF0D11"/>
<path d="M256.188 232.188H220.812C220.812 232.188 220.812 210.625 238.5 210.625C256.188 210.625 256.188 232.188 256.188 232.188Z" fill="#D9896D"/>
<path d="M331.89 163.619L318.094 180.438L317.607 180.481C317.924 179.049 318.087 177.589 318.094 176.125V171.813C318.087 169.527 317.153 167.337 315.496 165.721C313.839 164.105 311.593 163.194 309.25 163.188H300.406V145.938C278.297 145.938 278.297 111.438 278.297 111.438C278.297 111.438 265.031 133 251.766 133L256.143 115.836C254.817 117.604 233.105 145.938 203.125 145.938V120.063L176.594 141.625V163.188H167.75C165.407 163.194 163.161 164.105 161.504 165.721C159.847 167.337 158.913 169.527 158.906 171.813V176.125C159.019 180.752 160.543 185.241 163.284 189.019C161.957 188.502 141.219 179.748 141.219 158.875C141.469 152.226 143.177 145.706 146.228 139.755C149.279 133.804 153.602 128.56 158.906 124.375C151.498 124.527 144.206 122.567 137.923 118.737C131.639 114.907 126.638 109.373 123.531 102.813C123.531 102.813 158.906 98.5001 176.594 89.8751C194.281 81.2501 203.125 68.3126 238.5 68.3126C247.125 68.0553 255.68 69.8908 263.398 73.6543C271.116 77.4178 277.755 82.9915 282.719 89.8751C284.584 87.0048 287.217 84.6849 290.333 83.1651C293.45 81.6454 296.933 80.9833 300.406 81.2501C313.672 81.2501 335.781 89.8751 335.781 115.75V152.838C335.782 156.759 334.409 160.563 331.89 163.619V163.619Z" fill="black"/>
<path d="M265.031 243.529C256.854 247.612 247.803 249.749 238.617 249.767C229.432 249.785 220.372 247.684 212.178 243.633C203.984 239.583 196.89 233.7 191.474 226.464C186.058 219.228 182.474 210.845 181.016 202C173.814 199.715 167.594 195.165 163.328 189.062L163.284 189.019C160.543 185.241 159.019 180.752 158.906 176.125V171.812C158.913 169.527 159.847 167.337 161.504 165.721C163.161 164.105 165.407 163.194 167.75 163.188H176.594V141.625L203.125 120.062V145.938C233.105 145.938 254.817 117.604 256.143 115.836L251.766 133C265.031 133 278.297 111.438 278.297 111.438C278.297 111.438 278.297 145.938 300.406 145.938V163.188H309.25C311.593 163.194 313.839 164.105 315.496 165.721C317.153 167.337 318.087 169.527 318.094 171.812V176.125C318.087 177.589 317.924 179.049 317.607 180.481C316.095 185.525 313.331 190.128 309.559 193.881C305.788 197.635 301.125 200.423 295.984 202C294.44 210.775 290.844 219.085 285.477 226.287C280.109 233.489 273.113 239.389 265.031 243.529V243.529ZM220.812 232.188H256.188C256.188 232.188 256.188 210.625 238.5 210.625C220.812 210.625 220.812 232.188 220.812 232.188Z" fill="#F2C4B2"/>
<path d="M375.578 331.375V335.687H318.094C321.929 335.825 325.742 335.062 329.212 333.464C332.683 331.865 335.709 329.478 338.036 326.502C342.387 320.327 344.673 312.991 344.581 305.5H344.625L375.578 331.375Z" fill="#FF0D11"/>
<path d="M309.25 335.687H119.109V317.316C119.114 311.496 121.127 305.846 124.825 301.277C128.523 296.709 133.69 293.487 139.494 292.131L205.159 276.908C206.106 276.696 207.006 276.316 207.812 275.787C210.964 280.967 215.46 285.246 220.848 288.191C226.235 291.137 232.324 292.644 238.5 292.562H249.997L278.297 319.99L309.25 335.687Z" fill="#FF0D11"/>
<path d="M176.594 171.812H172.172C170.999 171.812 169.874 172.267 169.045 173.076C168.216 173.884 167.75 174.981 167.75 176.125V180.438C167.75 185.203 171.708 193.375 176.594 193.375V171.812Z" fill="#F2A283"/>
<path d="M300.406 171.812H304.828C306.001 171.812 307.126 172.267 307.955 173.076C308.784 173.884 309.25 174.981 309.25 176.125V180.438C309.25 185.203 305.27 193.375 300.406 193.375V171.812Z" fill="#F2A283"/>
<path d="M158.906 124.375C153.602 128.56 149.279 133.804 146.228 139.755C143.177 145.706 141.469 152.226 141.219 158.875C141.219 179.748 161.957 188.502 163.284 189.019C160.543 185.241 159.019 180.752 158.906 176.125V171.812C158.913 169.527 159.847 167.337 161.504 165.721C163.161 164.105 165.407 163.194 167.75 163.188H176.594V141.625L150.062 150.25C149.604 140.852 152.757 131.625 158.906 124.375V124.375Z" fill="black"/>
<path d="M300.406 145.938V163.188H309.25C311.593 163.194 313.839 164.105 315.496 165.721C317.153 167.337 318.087 169.527 318.094 171.812V154.562L300.406 145.938Z" fill="black"/>
<path d="M203.125 120.062L176.594 141.625V145.938V150.25L203.125 128.688V120.062Z" fill="black"/>
<path d="M278.297 120.062C278.297 120.062 278.297 154.562 300.406 154.562V145.938C278.297 145.938 278.297 111.438 278.297 111.438C278.297 111.438 266.495 130.602 254.021 132.78L251.766 141.625C265.031 141.625 278.297 120.062 278.297 120.062Z" fill="black"/>
<path d="M252.964 128.299L256.143 115.836C254.817 117.604 233.105 145.938 203.125 145.938V154.563C227.109 154.563 245.77 136.45 252.964 128.299Z" fill="black"/>
<path d="M256.187 182.594C255.722 182.594 255.269 182.45 254.892 182.184C254.609 181.984 254.378 181.722 254.219 181.418C254.06 181.115 253.977 180.779 253.977 180.438C253.977 169.561 268.874 164.244 277.753 162.04C278.316 161.914 278.907 162.008 279.4 162.302C279.893 162.595 280.249 163.065 280.391 163.611C280.533 164.157 280.45 164.736 280.161 165.223C279.871 165.711 279.397 166.068 278.841 166.219C273.473 167.552 261.878 171.105 259.04 177.488C265.52 176.11 272.217 176.007 278.739 177.186C279.314 177.3 279.819 177.633 280.143 178.11C280.467 178.588 280.583 179.171 280.466 179.732C280.349 180.293 280.008 180.786 279.518 181.102C279.028 181.418 278.43 181.531 277.855 181.416C270.867 180.191 263.683 180.557 256.864 182.486C256.646 182.556 256.417 182.592 256.187 182.594V182.594Z" fill="#5E3616"/>
<path d="M273.468 148.176C273.561 148.15 273.649 148.128 273.742 148.111C275.069 147.878 276.086 149.935 276.086 151.328C276.086 151.721 275.936 161.031 262.82 161.031C249.705 161.031 249.555 151.721 249.555 151.328C249.534 150.76 249.66 150.196 249.92 149.688C250.181 149.179 250.567 148.743 251.045 148.417C252.009 147.844 252.946 148.378 253.698 149.28C254.065 149.711 254.348 150.263 254.737 150.677C255.125 151.052 255.573 151.362 256.064 151.595C257.225 152.258 258.454 152.803 259.729 153.221C261.423 153.696 263.212 153.752 264.933 153.382C266.654 153.012 268.253 152.229 269.586 151.104C270.693 149.912 272.007 148.921 273.468 148.176Z" fill="black"/>
<path d="M220.812 182.594C221.277 182.592 221.73 182.448 222.108 182.184C222.391 181.984 222.622 181.722 222.781 181.418C222.94 181.115 223.023 180.779 223.023 180.438C223.023 169.561 208.126 164.244 199.247 162.04C198.684 161.914 198.093 162.008 197.6 162.302C197.107 162.595 196.751 163.065 196.609 163.611C196.467 164.157 196.55 164.736 196.839 165.223C197.129 165.711 197.603 166.068 198.159 166.219C203.527 167.552 215.121 171.105 217.96 177.488C211.48 176.11 204.783 176.007 198.261 177.186C197.686 177.3 197.181 177.633 196.857 178.11C196.533 178.588 196.417 179.171 196.534 179.732C196.651 180.293 196.992 180.786 197.482 181.102C197.972 181.418 198.57 181.531 199.145 181.416C206.133 180.192 213.317 180.558 220.136 182.486C220.354 182.557 220.582 182.593 220.812 182.594Z" fill="#5E3616"/>
<path d="M203.541 148.176C203.448 148.15 203.359 148.128 203.267 148.111C201.94 147.878 200.923 149.935 200.923 151.328C200.923 151.721 201.073 161.031 214.189 161.031C227.304 161.031 227.454 151.721 227.454 151.328C227.474 150.76 227.349 150.196 227.088 149.688C226.828 149.179 226.442 148.743 225.964 148.417C224.996 147.844 224.063 148.378 223.311 149.28C222.944 149.711 222.661 150.263 222.267 150.677C221.881 151.053 221.432 151.364 220.941 151.595C219.781 152.259 218.554 152.804 217.279 153.221C215.586 153.696 213.797 153.752 212.076 153.382C210.355 153.012 208.755 152.229 207.423 151.104C206.315 149.913 205.001 148.922 203.541 148.176V148.176Z" fill="black"/>
<path d="M238.5 202C240.942 202 242.922 198.138 242.922 193.375C242.922 188.612 240.942 184.75 238.5 184.75C236.058 184.75 234.078 188.612 234.078 193.375C234.078 198.138 236.058 202 238.5 202Z" fill="#D9896D"/>
<path d="M278.297 319.99L249.997 292.562H238.5C232.324 292.644 226.235 291.137 220.848 288.191C215.46 285.246 210.964 280.967 207.812 275.787C207.006 276.316 206.106 276.696 205.159 276.908L186.826 281.16C190.359 289.936 202.891 305.5 247.344 305.5L265.031 335.687H309.25L278.297 319.99Z" fill="#FF0D11"/>
<path d="M282.719 301.188L265.031 286.042V286.473L261.007 283.123C259.424 281.616 257.295 280.779 255.082 280.794C253.577 280.803 252.101 281.189 250.793 281.915C249.902 282.365 249.132 283.014 248.548 283.809C247.963 284.604 247.579 285.523 247.429 286.49C247.278 287.457 247.363 288.446 247.679 289.375C247.995 290.303 248.532 291.146 249.245 291.834L249.997 292.567L278.297 319.99L309.25 335.688H318.094C321.929 335.825 325.742 335.062 329.212 333.464C332.683 331.866 335.709 329.478 338.036 326.502C342.387 320.327 344.673 312.991 344.581 305.5C344.618 305.113 344.632 304.724 344.625 304.336L335.781 292.563V262.375C335.686 260.118 334.723 257.978 333.085 256.38C331.447 254.782 329.252 253.843 326.938 253.75C324.623 253.843 322.428 254.782 320.79 256.38C319.152 257.978 318.189 260.118 318.094 262.375V275.313L292.137 251.766C291.359 251.012 290.434 250.417 289.416 250.017C288.399 249.617 287.309 249.42 286.212 249.438C284.672 249.435 283.16 249.838 281.834 250.602C280.947 250.998 280.171 251.598 279.574 252.352C278.977 253.105 278.576 253.988 278.406 254.926C278.237 255.863 278.303 256.827 278.6 257.734C278.897 258.641 279.415 259.464 280.11 260.133L300.406 279.625L278.695 259.615C277.923 258.865 277.005 258.272 275.995 257.872C274.985 257.472 273.904 257.273 272.814 257.286C271.292 257.269 269.794 257.657 268.48 258.408C267.607 258.901 266.863 259.584 266.305 260.404C265.746 261.223 265.389 262.158 265.261 263.134C265.132 264.11 265.236 265.101 265.565 266.032C265.893 266.962 266.437 267.807 267.154 268.499L270.846 272.121L269.851 271.345C268.541 270.104 266.846 269.321 265.031 269.12V286.042L282.719 301.188Z" fill="#F2BCA7"/>
<path d="M259.636 270.138C258.745 270.592 257.975 271.246 257.391 272.045C256.807 272.843 256.423 273.766 256.273 274.736C256.122 275.706 256.208 276.697 256.523 277.629C256.839 278.561 257.375 279.408 258.089 280.099L265.031 286.042V269.12C264.665 269.062 264.296 269.027 263.926 269.016C262.421 269.026 260.944 269.412 259.636 270.138V270.138Z" fill="#F2BCA7"/>
<path d="M257.722 271.768C256.686 272.942 256.147 274.457 256.215 276.004C256.283 277.552 256.953 279.016 258.089 280.099L278.018 297.164C279.293 298.254 280.944 298.831 282.638 298.777C284.332 298.723 285.942 298.043 287.141 296.875V296.875L257.722 271.768Z" fill="#F2AB8F"/>
<path d="M302.728 324.337L281.459 315.445C279.37 314.573 277.472 313.32 275.865 311.753L250.47 286.986C249.951 286.468 249.578 285.829 249.384 285.13C249.191 284.431 249.184 283.695 249.365 282.993C248.741 283.554 248.242 284.232 247.896 284.988C247.551 285.743 247.367 286.559 247.356 287.386C247.344 288.213 247.506 289.034 247.831 289.798C248.156 290.562 248.637 291.253 249.245 291.829L249.997 292.562L278.297 319.99L309.25 335.688H318.094C321.929 335.825 325.742 335.062 329.212 333.464C332.683 331.865 335.709 329.478 338.036 326.502C342.33 320.403 344.606 313.169 344.559 305.772C343.704 311.174 341.044 316.15 336.992 319.926C332.939 323.702 327.721 326.067 322.149 326.653C315.582 327.748 308.83 326.943 302.728 324.337V324.337Z" fill="#F2AB8F"/>
<path d="M293.773 290.406C294.064 290.123 294.294 289.787 294.451 289.417C294.609 289.047 294.689 288.651 294.689 288.25C294.689 287.85 294.609 287.453 294.451 287.083C294.294 286.713 294.064 286.377 293.773 286.094L266.822 259.809C265.727 261.024 265.151 262.602 265.213 264.218C265.274 265.835 265.969 267.367 267.154 268.499L270.846 272.121L269.851 271.345C269.78 271.276 269.692 271.229 269.617 271.16L289.352 290.406C289.642 290.69 289.987 290.914 290.366 291.068C290.745 291.221 291.152 291.3 291.562 291.3C291.973 291.3 292.38 291.221 292.759 291.068C293.138 290.914 293.483 290.69 293.773 290.406V290.406Z" fill="#F2AB8F"/>
<path d="M307.039 281.781C307.329 281.498 307.56 281.162 307.717 280.792C307.874 280.422 307.955 280.025 307.955 279.625C307.955 279.225 307.874 278.828 307.717 278.458C307.56 278.088 307.329 277.752 307.039 277.469L280.508 251.594C279.467 252.442 278.75 253.607 278.473 254.901C278.195 256.195 278.373 257.543 278.978 258.727L300.406 279.625L302.617 281.781C302.907 282.064 303.252 282.289 303.631 282.442C304.011 282.596 304.417 282.675 304.828 282.675C305.239 282.675 305.645 282.596 306.025 282.442C306.404 282.289 306.749 282.064 307.039 281.781V281.781Z" fill="#F2AB8F"/>
<path d="M249.245 291.829C248.532 291.142 247.995 290.299 247.679 289.37C247.363 288.441 247.278 287.453 247.428 286.486C247.579 285.518 247.963 284.599 248.548 283.804C249.132 283.009 249.902 282.36 250.793 281.911C252.101 281.185 253.577 280.799 255.082 280.789C257.295 280.774 259.424 281.611 261.007 283.118L265.031 286.469V286.038L258.089 280.099C257.375 279.407 256.839 278.561 256.523 277.629C256.208 276.697 256.122 275.706 256.273 274.736C256.424 273.765 256.807 272.843 257.391 272.045C257.976 271.246 258.745 270.592 259.637 270.138C260.944 269.412 262.421 269.026 263.926 269.016C264.296 269.027 264.666 269.062 265.031 269.12V243.529C256.755 247.418 247.687 249.437 238.5 249.437C229.313 249.437 220.245 247.418 211.969 243.529V268.499C211.973 269.959 211.594 271.396 210.866 272.672C210.138 273.948 209.087 275.021 207.812 275.787C210.964 280.967 215.46 285.246 220.848 288.191C226.235 291.137 232.324 292.644 238.5 292.563H249.997L249.245 291.829Z" fill="#FF5D54"/>
<path d="M326.938 258.062C326.94 257.249 327.179 256.453 327.626 255.766C328.072 255.08 328.709 254.53 329.462 254.181C328.65 253.905 327.798 253.759 326.938 253.75C324.623 253.843 322.428 254.782 320.79 256.38C319.152 257.977 318.189 260.117 318.094 262.375V275.312L326.938 283.938V258.062Z" fill="#F2AB8F"/>
<path d="M265.031 243.529C256.755 247.418 247.687 249.437 238.5 249.437C229.313 249.437 220.245 247.418 211.969 243.529V268.499C211.973 269.959 211.594 271.396 210.866 272.672C210.138 273.948 209.087 275.021 207.812 275.787C209.269 278.211 211.042 280.44 213.087 282.42L265.031 252.025V243.529Z" fill="#E7544C"/>
<path d="M181.016 245.125C180.059 245.127 179.127 244.824 178.363 244.262L160.675 231.325C160.168 230.954 159.749 230.482 159.446 229.939C159.143 229.397 158.963 228.797 158.918 228.181C158.873 227.565 158.964 226.946 159.186 226.367C159.407 225.789 159.754 225.263 160.202 224.826L165.442 219.716L151.831 209.762C151.367 209.423 150.975 208.997 150.679 208.51C150.384 208.022 150.189 207.483 150.107 206.922C150.025 206.362 150.057 205.791 150.201 205.242C150.345 204.694 150.598 204.178 150.947 203.725C151.295 203.272 151.732 202.89 152.231 202.602C152.731 202.313 153.284 202.123 153.859 202.043C154.434 201.963 155.019 201.994 155.582 202.135C156.144 202.275 156.673 202.523 157.138 202.862L174.825 215.8C175.332 216.171 175.751 216.643 176.054 217.186C176.357 217.728 176.537 218.328 176.582 218.944C176.627 219.56 176.536 220.179 176.314 220.758C176.093 221.336 175.746 221.862 175.298 222.299L170.058 227.409L183.669 237.362C184.411 237.906 184.96 238.663 185.236 239.527C185.513 240.391 185.504 241.318 185.211 242.176C184.917 243.035 184.354 243.782 183.601 244.311C182.848 244.84 181.944 245.125 181.016 245.125Z" fill="#FF5D54"/>
<path d="M172.172 253.75H145.641C144.84 253.75 144.055 253.538 143.368 253.137C142.681 252.736 142.119 252.16 141.741 251.472C141.363 250.784 141.184 250.008 141.223 249.228C141.262 248.448 141.517 247.694 141.962 247.044L146.224 240.812H127.953C126.78 240.812 125.656 240.358 124.826 239.549C123.997 238.741 123.531 237.644 123.531 236.5C123.531 235.356 123.997 234.259 124.826 233.451C125.656 232.642 126.78 232.188 127.953 232.188H154.484C155.285 232.187 156.07 232.399 156.757 232.8C157.444 233.202 158.006 233.777 158.384 234.466C158.762 235.154 158.941 235.929 158.902 236.709C158.863 237.489 158.608 238.244 158.163 238.893L153.901 245.125H172.172C173.345 245.125 174.469 245.579 175.299 246.388C176.128 247.197 176.594 248.294 176.594 249.438C176.594 250.581 176.128 251.678 175.299 252.487C174.469 253.296 173.345 253.75 172.172 253.75Z" fill="#FF5D54"/>
<path d="M172.172 279.625H145.641C144.468 279.625 143.343 279.171 142.514 278.362C141.685 277.553 141.219 276.456 141.219 275.312C141.219 274.169 141.685 273.072 142.514 272.263C143.343 271.454 144.468 271 145.641 271H163.912L159.649 264.768C159.205 264.119 158.95 263.364 158.911 262.584C158.872 261.804 159.051 261.029 159.429 260.341C159.806 259.652 160.368 259.077 161.055 258.675C161.742 258.274 162.528 258.062 163.328 258.063H189.859C191.032 258.063 192.157 258.517 192.986 259.326C193.815 260.134 194.281 261.231 194.281 262.375C194.281 263.519 193.815 264.616 192.986 265.424C192.157 266.233 191.032 266.688 189.859 266.688H171.588L175.851 272.919C176.295 273.569 176.55 274.323 176.589 275.103C176.628 275.883 176.449 276.659 176.071 277.347C175.694 278.035 175.132 278.611 174.445 279.012C173.758 279.413 172.972 279.625 172.172 279.625V279.625Z" fill="#FF5D54"/>
<path d="M300.406 240.813C299.478 240.813 298.574 240.528 297.821 239.998C297.068 239.469 296.505 238.722 296.211 237.864C295.918 237.005 295.909 236.078 296.186 235.214C296.462 234.35 297.011 233.593 297.753 233.05L311.364 223.097L306.124 217.986C305.676 217.55 305.329 217.024 305.108 216.445C304.886 215.866 304.795 215.248 304.84 214.632C304.885 214.015 305.065 213.416 305.368 212.873C305.671 212.331 306.09 211.858 306.597 211.488L324.284 198.55C325.223 197.864 326.402 197.569 327.563 197.731C328.724 197.893 329.771 198.498 330.475 199.413C331.179 200.328 331.481 201.478 331.315 202.61C331.149 203.742 330.529 204.764 329.591 205.45L315.98 215.403L321.22 220.514C321.668 220.95 322.014 221.476 322.236 222.055C322.457 222.634 322.549 223.252 322.504 223.868C322.459 224.485 322.279 225.084 321.976 225.627C321.673 226.169 321.254 226.642 320.747 227.013L303.059 239.95C302.295 240.512 301.363 240.814 300.406 240.813V240.813Z" fill="#FF5D54"/>
<path d="M335.781 249.438H309.25C308.077 249.438 306.953 248.983 306.123 248.174C305.294 247.366 304.828 246.269 304.828 245.125C304.828 243.981 305.294 242.884 306.123 242.076C306.953 241.267 308.077 240.812 309.25 240.812H327.521L323.258 234.581C322.814 233.931 322.559 233.177 322.52 232.397C322.481 231.617 322.66 230.841 323.038 230.153C323.416 229.465 323.978 228.889 324.665 228.488C325.351 228.087 326.137 227.875 326.938 227.875H353.469C354.642 227.875 355.766 228.329 356.595 229.138C357.425 229.947 357.891 231.044 357.891 232.188C357.891 233.331 357.425 234.428 356.595 235.237C355.766 236.046 354.642 236.5 353.469 236.5H335.198L339.46 242.732C339.905 243.381 340.16 244.136 340.199 244.916C340.237 245.696 340.058 246.471 339.681 247.159C339.303 247.848 338.741 248.423 338.054 248.825C337.367 249.226 336.582 249.438 335.781 249.438V249.438Z" fill="#FF5D54"/>
<path d="M249.997 292.563L249.245 291.83C248.254 290.862 247.616 289.605 247.428 288.25H238.5C233.055 288.34 227.684 287.01 222.942 284.398C218.201 281.786 214.26 277.987 211.526 273.394C211.351 273.109 211.142 272.845 210.903 272.609C210.175 273.914 209.107 275.01 207.808 275.787C207.001 276.316 206.102 276.696 205.155 276.908L203.602 277.266C203.638 277.34 203.744 277.542 203.952 277.905C207.484 283.757 212.54 288.594 218.608 291.925C224.675 295.257 231.538 296.964 238.5 296.875H251.766C252.499 296.859 253.216 296.66 253.848 296.297L249.997 292.563Z" fill="#E3E3E3"/>
</svg>
