<svg width="477" height="404" viewBox="0 0 477 404" fill="none" xmlns="http://www.w3.org/2000/svg">
<path opacity="0.18" d="M439.792 332.003C429.328 374.029 380.329 398.698 334.1 402.969C327.926 403.543 321.738 403.857 315.564 403.948C280.769 404.51 245.947 398.515 211.025 396.178C205.751 395.825 200.477 395.551 195.203 395.407C145.445 393.984 90.9883 402.094 49.6539 376.314C17.0533 355.993 1.07652 318.16 0.0217149 281.737C-1.03309 245.314 36.6306 222.858 49.654 188.485C66.4043 144.278 60.4973 86.2223 96.7687 53.6387C129.468 24.2939 121.389 -2.91135 166 1.60725C207.588 5.81243 192.511 -3.57739 233.69 1.60725C292.605 9.02508 448.132 40.7916 439.792 95.4851C436.698 115.806 478.119 205.995 476.417 226.485C472.887 268.615 450.045 290.774 439.792 332.003Z" fill="#FF0D11"/>
<g clip-path="url(#clip0)">
<g opacity="0.5">
<path opacity="0.5" d="M409.226 156.249H363.074V139.731C363.074 135.142 361.125 130.741 357.657 127.497C354.188 124.252 349.483 122.429 344.577 122.429H133.265C128.814 122.429 124.546 124.083 121.399 127.026C118.252 129.97 116.484 133.962 116.484 138.125V156.259H109.536C104.359 156.257 99.394 158.178 95.7309 161.598C92.0677 165.019 90.0064 169.661 90 174.502V256.395C90.0038 261 91.8672 265.434 95.2172 268.808C98.5673 272.183 103.157 274.249 108.066 274.593V293.117H127.793V274.648H152.633V293.273H172.36V274.648H349.893V293.273H369.62V274.648H386.06V293.1H405.807V274.648H409.361C411.678 274.649 413.971 274.223 416.111 273.394C418.251 272.565 420.196 271.35 421.834 269.818C423.471 268.286 424.771 266.468 425.657 264.466C426.544 262.465 427 260.319 427 258.153V172.878C427 170.694 426.541 168.532 425.648 166.514C424.755 164.497 423.446 162.664 421.795 161.119C420.145 159.575 418.185 158.35 416.029 157.515C413.872 156.679 411.56 156.249 409.226 156.249V156.249ZM359.6 228.519V242.356H286.058C286.854 241.022 287.272 239.52 287.27 237.992V228.519H359.6Z" fill="url(#paint0_linear)"/>
</g>
<path d="M132.66 267.727H113.667V289.935H132.66V267.727Z" fill="#FF0D11"/>
<path d="M365.52 267.893H346.526V290.101H365.52V267.893Z" fill="#FF0D11"/>
<path d="M400.342 267.727H381.349V289.935H400.342V267.727Z" fill="#FF0D11"/>
<path d="M175.574 267.893H156.58V290.101H175.574V267.893Z" fill="#FF0D11"/>
<path opacity="0.3" d="M132.66 267.727H113.667V289.935H132.66V267.727Z" fill="black"/>
<path opacity="0.3" d="M365.52 267.893H346.526V290.101H365.52V267.893Z" fill="black"/>
<path opacity="0.3" d="M400.342 267.727H381.349V289.935H400.342V267.727Z" fill="black"/>
<path opacity="0.3" d="M175.574 267.893H156.58V290.101H175.574V267.893Z" fill="black"/>
<path d="M355.848 158.163H403.632C408.171 158.163 412.524 159.85 415.734 162.852C418.943 165.854 420.746 169.926 420.746 174.171V256.288C420.746 260.5 418.958 264.539 415.773 267.518C412.589 270.496 408.271 272.169 403.768 272.169H355.848V158.163Z" fill="#FF0D11"/>
<path opacity="0.3" d="M355.848 158.163H403.632C408.171 158.163 412.524 159.85 415.734 162.852C418.943 165.854 420.746 169.926 420.746 174.171V256.288C420.746 260.5 418.958 264.539 415.773 267.518C412.589 270.496 408.271 272.169 403.768 272.169H355.848V158.163Z" fill="black"/>
<path d="M137.913 125.591H229.393V227.752H121.754V140.702C121.755 136.694 123.458 132.851 126.488 130.017C129.519 127.183 133.628 125.591 137.913 125.591V125.591Z" fill="#FF0D11"/>
<path opacity="0.3" d="M138.434 125.591H229.393V227.752H121.754V141.19C121.754 139.141 122.186 137.113 123.024 135.22C123.862 133.327 125.091 131.607 126.64 130.159C128.189 128.71 130.028 127.561 132.051 126.778C134.075 125.994 136.244 125.591 138.434 125.591V125.591Z" fill="black"/>
<path d="M162.681 125.591H251.378V227.752H143.74V143.305C143.74 138.607 145.735 134.102 149.286 130.78C152.838 127.458 157.655 125.591 162.678 125.591H162.681Z" fill="#FF0D11"/>
<path d="M250.857 125.591H341.378C346.102 125.591 350.632 127.347 353.973 130.471C357.313 133.596 359.19 137.834 359.19 142.253V227.752H250.857V125.591Z" fill="#FF0D11"/>
<path d="M385.924 158.163H403.643C408.18 158.166 412.53 159.853 415.738 162.855C418.945 165.857 420.746 169.927 420.746 174.171V256.288C420.746 260.5 418.958 264.539 415.774 267.518C412.589 270.496 408.271 272.169 403.768 272.169H385.924V158.163Z" fill="#FF0D11"/>
<path d="M385.921 241.076H167.482V272.169H385.921V241.076Z" fill="#FF0D11"/>
<path d="M217.675 162.171L193.806 168.679C183.297 171.544 177.261 181.835 180.324 191.665L188.231 217.039C191.294 226.869 202.297 232.516 212.806 229.65L236.674 223.143C247.184 220.278 253.22 209.986 250.157 200.156L242.25 174.782C239.187 164.952 228.184 159.306 217.675 162.171Z" fill="url(#paint1_linear)"/>
<path d="M216.36 165.202L194.102 171.27C184.302 173.942 178.674 183.539 181.53 192.706L188.903 216.367C191.759 225.534 202.02 230.799 211.82 228.127L234.077 222.059C243.877 219.387 249.506 209.79 246.649 200.623L239.276 176.962C236.42 167.795 226.16 162.53 216.36 165.202Z" fill="#F55F44"/>
<path opacity="0.1" d="M216.36 165.202L194.102 171.27C184.302 173.942 178.674 183.539 181.53 192.706L188.903 216.367C191.759 225.534 202.02 230.799 211.82 228.127L234.077 222.059C243.877 219.387 249.506 209.79 246.649 200.623L239.276 176.962C236.42 167.795 226.16 162.53 216.36 165.202Z" fill="black"/>
<path d="M217.508 164.447L195.251 170.515C185.451 173.187 179.822 182.784 182.678 191.951L190.051 215.612C192.908 224.779 203.168 230.044 212.968 227.372L235.225 221.304C245.025 218.632 250.654 209.035 247.798 199.868L240.425 176.207C237.568 167.041 227.308 161.775 217.508 164.447Z" fill="#F55F44"/>
<path d="M212.748 184.875C214.893 183.463 215.409 180.692 213.9 178.685C212.391 176.679 209.429 176.196 207.283 177.607C205.138 179.019 204.622 181.79 206.131 183.797C207.64 185.803 210.602 186.286 212.748 184.875Z" fill="url(#paint2_linear)"/>
<path d="M235.47 197.077C237.615 195.665 238.131 192.894 236.622 190.888C235.113 188.881 232.151 188.398 230.005 189.81C227.86 191.221 227.344 193.992 228.853 195.999C230.362 198.006 233.324 198.488 235.47 197.077Z" fill="url(#paint3_linear)"/>
<path d="M200.226 209.398C202.371 207.987 202.887 205.216 201.378 203.209C199.87 201.202 196.907 200.72 194.762 202.131C192.616 203.543 192.1 206.314 193.609 208.32C195.118 210.327 198.081 210.81 200.226 209.398Z" fill="url(#paint4_linear)"/>
<path d="M221.651 222.455C223.797 221.043 224.312 218.272 222.804 216.265C221.295 214.259 218.332 213.776 216.187 215.188C214.041 216.599 213.525 219.37 215.034 221.377C216.543 223.384 219.506 223.866 221.651 222.455Z" fill="url(#paint5_linear)"/>
<path d="M211.836 183.663C213.266 182.722 213.61 180.875 212.604 179.538C211.599 178.201 209.625 177.879 208.195 178.82C206.765 179.76 206.421 181.607 207.427 182.944C208.432 184.282 210.407 184.603 211.836 183.663Z" fill="#F99F8F"/>
<path d="M234.558 195.865C235.988 194.924 236.332 193.077 235.326 191.74C234.321 190.403 232.346 190.081 230.917 191.022C229.487 191.962 229.143 193.809 230.149 195.146C231.154 196.484 233.129 196.805 234.558 195.865Z" fill="#F99F8F"/>
<path d="M199.315 208.186C200.744 207.246 201.088 205.399 200.083 204.062C199.077 202.724 197.103 202.403 195.673 203.343C194.243 204.284 193.899 206.131 194.905 207.468C195.911 208.805 197.885 209.127 199.315 208.186Z" fill="#F99F8F"/>
<path d="M220.739 221.243C222.169 220.302 222.513 218.455 221.507 217.118C220.502 215.781 218.528 215.459 217.098 216.4C215.668 217.34 215.324 219.187 216.33 220.524C217.335 221.862 219.31 222.183 220.739 221.243Z" fill="#F99F8F"/>
<path d="M115.06 158.163H184.892V272.169H115.06C110.073 272.169 105.29 270.316 101.763 267.018C98.2363 263.72 96.2546 259.247 96.2537 254.582V175.754C96.2537 171.088 98.235 166.614 101.762 163.315C105.289 160.016 110.072 158.163 115.06 158.163V158.163Z" fill="#FF0D11"/>
<path opacity="0.3" d="M115.192 158.163H167.371C169.674 158.163 171.953 158.587 174.08 159.412C176.207 160.237 178.14 161.445 179.767 162.969C181.395 164.492 182.685 166.301 183.565 168.291C184.445 170.281 184.897 172.414 184.895 174.568V255.778C184.895 260.125 183.049 264.294 179.762 267.368C176.476 270.442 172.019 272.169 167.371 272.169H115.192C110.169 272.169 105.352 270.303 101.8 266.981C98.2489 263.659 96.2537 259.153 96.2537 254.455V175.867C96.2564 171.171 98.2529 166.668 101.804 163.348C105.355 160.028 110.171 158.163 115.192 158.163V158.163Z" fill="black"/>
<path opacity="0.1" d="M150.247 158.163H180.747C182.313 158.163 183.815 158.745 184.923 159.781C186.031 160.817 186.653 162.222 186.653 163.688V266.645C186.653 268.11 186.031 269.515 184.923 270.551C183.815 271.587 182.313 272.169 180.747 272.169H150.247V158.163Z" fill="black"/>
<path d="M148.489 158.163H178.989C180.555 158.163 182.057 158.745 183.165 159.781C184.273 160.817 184.895 162.222 184.895 163.688V266.645C184.895 268.11 184.273 269.515 183.165 270.551C182.057 271.587 180.555 272.169 178.989 272.169H148.489V158.163Z" fill="#FF0D11"/>
<path d="M286.2 217.389H176.981V245.522H286.2V217.389Z" fill="#FF0D11"/>
<path d="M395.596 217.551H286.377V245.684H395.596V217.551Z" fill="#FF0D11"/>
<path opacity="0.15" d="M276.959 217.389H186.222C181.118 217.389 176.981 221.259 176.981 226.033V236.877C176.981 241.651 181.118 245.522 186.222 245.522H276.959C282.062 245.522 286.2 241.651 286.2 236.877V226.033C286.2 221.259 282.062 217.389 276.959 217.389Z" fill="white"/>
<path d="M298.95 165.647C302.446 165.647 305.28 162.996 305.28 159.726C305.28 156.456 302.446 153.805 298.95 153.805C295.454 153.805 292.62 156.456 292.62 159.726C292.62 162.996 295.454 165.647 298.95 165.647Z" fill="#FF0D11"/>
<path opacity="0.3" d="M298.95 165.647C302.446 165.647 305.28 162.996 305.28 159.726C305.28 156.456 302.446 153.805 298.95 153.805C295.454 153.805 292.62 156.456 292.62 159.726C292.62 162.996 295.454 165.647 298.95 165.647Z" fill="black"/>
<path d="M200.814 165.647C204.31 165.647 207.144 162.996 207.144 159.726C207.144 156.456 204.31 153.805 200.814 153.805C197.318 153.805 194.484 156.456 194.484 159.726C194.484 162.996 197.318 165.647 200.814 165.647Z" fill="#FF0D11"/>
<path opacity="0.3" d="M200.814 165.647C204.31 165.647 207.144 162.996 207.144 159.726C207.144 156.456 204.31 153.805 200.814 153.805C197.318 153.805 194.484 156.456 194.484 159.726C194.484 162.996 197.318 165.647 200.814 165.647Z" fill="black"/>
<path d="M197.646 128.467C198.52 128.467 199.23 127.473 199.23 126.248C199.23 125.022 198.52 124.028 197.646 124.028C196.771 124.028 196.061 125.022 196.061 126.248C196.061 127.473 196.771 128.467 197.646 128.467Z" fill="#FDA57D"/>
<path opacity="0.15" d="M386.355 217.551H295.619C290.515 217.551 286.377 221.421 286.377 226.195V237.04C286.377 241.814 290.515 245.684 295.619 245.684H386.355C391.459 245.684 395.596 241.814 395.596 237.04V226.195C395.596 221.421 391.459 217.551 386.355 217.551Z" fill="white"/>
<g opacity="0.5">
<path opacity="0.5" d="M323.621 160.597C322.895 156.863 322.151 153.087 320.494 149.613C318.679 145.797 315.836 142.487 312.243 140.007C311.709 139.63 311.048 139.445 310.381 139.487C309.338 139.572 309.019 140.169 308.856 140.787C308.835 140.862 308.817 140.933 308.803 141.008C308.393 142.902 308.668 144.774 309.262 146.62C310.002 148.924 311.242 151.17 312.274 153.399C314.133 157.394 315.365 161.619 315.933 165.943C316.009 166.515 316.068 167.103 316.082 167.691C316.092 168.041 316.083 168.392 316.054 168.741C316.008 169.426 315.841 170.099 315.561 170.733C315.512 170.837 315.46 170.945 315.404 171.058C315.349 171.171 315.289 171.27 315.224 171.357C314.591 172.332 313.605 173.027 312.639 173.713C311.673 174.399 310.579 175.13 309.425 175.5H309.464C308.927 175.681 308.359 175.768 307.789 175.757C306.007 175.705 304.106 174.363 302.314 174.678L302.112 174.72C300.278 175.185 298.871 177.882 298.857 179.595C298.857 179.731 298.857 179.864 298.857 179.991C298.857 180.037 298.857 180.082 298.874 180.128C298.891 180.173 298.895 180.3 298.909 180.381C298.923 180.463 298.93 180.482 298.944 180.531C298.957 180.58 298.975 180.677 298.996 180.749C299.017 180.82 299.027 180.849 299.044 180.898C299.062 180.947 299.089 181.031 299.114 181.096C299.138 181.161 299.155 181.194 299.176 181.239C299.197 181.285 299.232 181.363 299.263 181.421L299.34 181.558C299.374 181.613 299.406 181.671 299.444 181.727L299.534 181.857L299.652 182.013L299.753 182.133L299.889 182.276L300 182.386L300.149 182.52L300.271 182.62L300.434 182.744L300.563 182.838L300.74 182.952L300.872 183.036L301.066 183.144L301.202 183.215L301.421 183.316L301.549 183.374C301.653 183.42 301.761 183.462 301.869 183.501L302.025 183.556L302.275 183.641L302.456 183.693L302.661 183.751L302.862 183.8L303.057 183.845L303.272 183.888L303.46 183.923L303.686 183.959L303.867 183.985L304.099 184.014L304.273 184.034L304.516 184.053H304.686H304.937H305.096H305.357H305.902H306.187H306.288L306.594 184.031H306.653C307.52 183.96 308.374 183.784 309.193 183.508C311.788 182.588 313.99 180.908 316.03 179.143C320.074 175.65 323.895 171.315 324.219 166.174C324.344 164.318 323.979 162.446 323.621 160.597Z" fill="url(#paint6_linear)"/>
</g>
<path opacity="0.1" d="M306.517 159.362H273.766V168.231H306.517V159.362Z" fill="black"/>
<path d="M306.517 159.362H273.766V167.425H306.517V159.362Z" fill="#FF0D11"/>
<path d="M292.728 160.438C295.583 160.438 297.898 158.273 297.898 155.602C297.898 152.932 295.583 150.767 292.728 150.767C289.873 150.767 287.558 152.932 287.558 155.602C287.558 158.273 289.873 160.438 292.728 160.438Z" fill="#FF0D11"/>
<path d="M282.979 163.044L282.917 162.986C283.034 162.903 283.129 162.795 283.195 162.672C283.26 162.549 283.294 162.413 283.294 162.276C283.294 162.138 283.26 162.002 283.195 161.879C283.129 161.756 283.034 161.649 282.917 161.565L282.972 161.5C283.098 161.592 283.199 161.708 283.269 161.842C283.339 161.975 283.376 162.122 283.376 162.271C283.376 162.419 283.339 162.566 283.269 162.699C283.199 162.833 283.098 162.95 282.972 163.041L282.979 163.044Z" fill="#4D8AF0"/>
<path opacity="0.1" d="M282.979 163.044L282.917 162.986C283.034 162.903 283.129 162.795 283.195 162.672C283.26 162.549 283.294 162.413 283.294 162.276C283.294 162.138 283.26 162.002 283.195 161.879C283.129 161.756 283.034 161.649 282.917 161.565L282.972 161.5C283.098 161.592 283.199 161.708 283.269 161.842C283.339 161.975 283.376 162.122 283.376 162.271C283.376 162.419 283.339 162.566 283.269 162.699C283.199 162.833 283.098 162.95 282.972 163.041L282.979 163.044Z" fill="black"/>
<path d="M282.917 163.044C282.791 162.953 282.69 162.836 282.62 162.703C282.55 162.569 282.514 162.422 282.514 162.274C282.514 162.125 282.55 161.979 282.62 161.845C282.69 161.712 282.791 161.595 282.917 161.504L282.973 161.569C282.855 161.652 282.76 161.759 282.695 161.882C282.629 162.005 282.595 162.141 282.595 162.279C282.595 162.416 282.629 162.552 282.695 162.675C282.76 162.798 282.855 162.906 282.973 162.989L282.917 163.044Z" fill="#4D8AF0"/>
<path d="M309.401 189.061C311.774 188.22 313.785 186.683 315.654 185.071C319.351 181.879 322.839 177.921 323.138 173.219C323.246 171.503 322.916 169.794 322.586 168.101C321.922 164.689 321.245 161.237 319.74 158.066C318.081 154.58 315.484 151.557 312.201 149.291C311.712 148.946 311.106 148.777 310.495 148.817C309.453 148.905 309.189 149.574 309.05 150.214C308.206 154.114 310.523 157.897 312.218 161.536C313.917 165.186 315.043 169.047 315.561 172.998C315.78 174.675 315.859 176.488 314.914 177.931C314.338 178.815 313.434 179.458 312.552 180.082C311.232 181.015 309.773 181.993 308.119 181.948C306.465 181.902 304.617 180.573 302.908 181.002C301.198 181.431 299.944 183.891 299.934 185.467C299.913 189.737 306.225 190.186 309.401 189.061Z" fill="#FFD180"/>
<g opacity="0.1">
<path opacity="0.1" d="M314.908 177.931C314.331 178.815 313.428 179.458 312.545 180.082C311.662 180.764 310.67 181.312 309.606 181.707C311.107 181.613 312.451 180.732 313.671 179.858C314.553 179.234 315.456 178.587 316.033 177.707C316.975 176.267 316.898 174.457 316.679 172.774C316.161 168.822 315.036 164.962 313.337 161.312C311.642 157.669 309.321 153.883 310.169 149.99C310.192 149.76 310.266 149.537 310.385 149.334C310.505 149.132 310.668 148.955 310.864 148.814C310.735 148.803 310.606 148.803 310.478 148.814C309.436 148.901 309.172 149.571 309.033 150.211C308.188 154.111 310.506 157.893 312.201 161.533C313.9 165.183 315.025 169.043 315.543 172.995C315.773 174.675 315.853 176.488 314.908 177.931Z" fill="black"/>
<path opacity="0.1" d="M301.066 185.253C301.066 183.797 302.174 181.584 303.665 180.921C303.411 180.915 303.157 180.942 302.911 181.002C301.233 181.428 299.947 183.891 299.937 185.467C299.916 189.451 305.402 190.101 308.72 189.266C305.423 189.714 301.045 188.801 301.066 185.253Z" fill="black"/>
</g>
<g opacity="0.5">
<path opacity="0.5" d="M276.868 140.832C276.868 140.832 286.332 139.061 291.064 140.832C291.064 140.832 293.902 134.635 296.741 134.635C299.579 134.635 300.524 144.384 300.524 144.384L304.308 158.547C304.308 158.547 322.287 188.642 304.308 204.572C286.329 220.502 257.944 202.791 257.944 191.284C257.944 179.777 263.621 155.882 263.621 155.882C263.621 155.882 269.298 136.41 271.191 134.639C273.085 132.867 276.868 140.832 276.868 140.832Z" fill="url(#paint7_linear)"/>
</g>
<path d="M277.188 142.064C277.188 142.064 286.283 140.361 290.831 142.064C290.831 142.064 293.558 136.107 296.289 136.107C299.02 136.107 299.927 145.466 299.927 145.466L303.564 159.079C303.564 159.079 320.848 188.002 303.564 203.324C286.28 218.647 258.99 201.621 258.99 190.563C258.99 179.504 264.448 156.528 264.448 156.528C264.448 156.528 269.906 137.81 271.726 136.107C273.547 134.405 277.188 142.064 277.188 142.064Z" fill="#FFD180"/>
<g opacity="0.1">
<path opacity="0.1" d="M309.919 174.984C308.523 169.453 306.384 164.11 303.554 159.083L304.127 161.234C306.591 165.604 308.534 170.215 309.919 174.984Z" fill="white"/>
<path opacity="0.1" d="M260.626 188.272C260.626 177.223 265.028 158.68 265.028 158.68C265.028 158.68 270.486 139.961 272.307 138.259C274.127 136.556 277.765 144.215 277.765 144.215C277.765 144.215 286.86 142.512 291.408 144.215C291.408 144.215 294.139 138.259 296.866 138.259C297.908 138.259 298.711 139.669 299.273 141.395C298.718 138.87 297.773 136.107 296.293 136.107C293.565 136.107 290.835 142.064 290.835 142.064C286.287 140.361 277.191 142.064 277.191 142.064C277.191 142.064 273.554 134.408 271.733 136.107C269.913 137.807 264.455 156.528 264.455 156.528C264.455 156.528 260.053 175.052 260.053 186.12C260.05 187.121 260.626 188.59 260.626 188.272Z" fill="white"/>
</g>
<path d="M294.927 158.657C295.933 158.657 296.748 157.895 296.748 156.954C296.748 156.014 295.933 155.251 294.927 155.251C293.922 155.251 293.107 156.014 293.107 156.954C293.107 157.895 293.922 158.657 294.927 158.657Z" fill="#58555D"/>
<path d="M274.006 158.657C275.011 158.657 275.826 157.895 275.826 156.954C275.826 156.014 275.011 155.251 274.006 155.251C273 155.251 272.185 156.014 272.185 156.954C272.185 157.895 273 158.657 274.006 158.657Z" fill="#58555D"/>
<path d="M284.922 160.36C286.428 160.36 287.649 159.597 287.649 158.657C287.649 157.716 286.428 156.954 284.922 156.954C283.415 156.954 282.194 157.716 282.194 158.657C282.194 159.597 283.415 160.36 284.922 160.36Z" fill="#58555D"/>
<path d="M308.474 154.823L300.287 156.524L300.484 157.355L308.671 155.654L308.474 154.823Z" fill="#FFD180"/>
<path d="M309.396 158.228L300.299 159.924L300.477 160.759L309.574 159.063L309.396 158.228Z" fill="#FFD180"/>
<path d="M258.707 152.302L258.369 153.093L267.465 156.496L267.803 155.706L258.707 152.302Z" fill="#FFD180"/>
<path d="M255.893 156.541L255.754 157.383L267.58 159.085L267.719 158.244L255.893 156.541Z" fill="#FFD180"/>
<path opacity="0.1" d="M282.653 169.544C280.272 169.546 277.895 169.356 275.548 168.978C271.036 168.251 266.695 166.792 262.721 164.666L263.037 163.291C267.056 165.327 271.395 166.753 275.892 167.516C282.441 168.565 293.704 168.25 305.152 162.342L305.916 163.642C297.606 167.938 288.858 169.544 282.653 169.544Z" fill="black"/>
<path d="M305.152 162.027C293.687 167.935 282.437 168.25 275.892 167.2C271.395 166.438 267.056 165.012 263.037 162.976L262.197 164.23C266.362 166.371 270.871 167.865 275.548 168.653C277.896 169.033 280.274 169.223 282.656 169.222C288.861 169.222 297.595 167.62 305.934 163.33L305.152 162.027ZM282.948 169.105C282.913 169.105 282.879 169.095 282.85 169.077C282.82 169.059 282.798 169.033 282.784 169.002C282.771 168.972 282.767 168.939 282.774 168.907C282.781 168.874 282.798 168.845 282.823 168.822C282.848 168.799 282.879 168.783 282.914 168.776C282.948 168.77 282.984 168.773 283.016 168.786C283.048 168.798 283.076 168.82 283.095 168.847C283.115 168.874 283.125 168.906 283.125 168.939C283.124 168.982 283.105 169.024 283.072 169.054C283.039 169.084 282.994 169.101 282.948 169.101V169.105Z" fill="#F55F44"/>
<path opacity="0.1" d="M281.187 171.406C281.187 171.842 281.372 172.26 281.702 172.568C282.031 172.877 282.478 173.05 282.945 173.05V173.05C283.411 173.05 283.858 172.877 284.188 172.568C284.517 172.26 284.703 171.842 284.703 171.406V171.406C284.703 170.969 284.517 170.551 284.188 170.243C283.858 169.934 283.411 169.761 282.945 169.761V169.761C282.478 169.761 282.031 169.934 281.702 170.243C281.372 170.551 281.187 170.969 281.187 171.406V171.406ZM282.945 170.583C282.887 170.583 282.831 170.567 282.783 170.537C282.735 170.507 282.697 170.465 282.675 170.415C282.653 170.365 282.647 170.31 282.659 170.257C282.67 170.204 282.698 170.156 282.738 170.117C282.779 170.079 282.831 170.053 282.888 170.043C282.944 170.032 283.003 170.038 283.056 170.058C283.11 170.079 283.155 170.114 283.187 170.159C283.219 170.204 283.237 170.256 283.237 170.31C283.237 170.382 283.206 170.451 283.152 170.502C283.098 170.553 283.025 170.583 282.948 170.583H282.945Z" fill="url(#paint8_linear)"/>
<path d="M281.364 171.406C281.364 171.799 281.531 172.176 281.828 172.454C282.125 172.731 282.528 172.888 282.948 172.888C283.368 172.888 283.771 172.731 284.068 172.454C284.365 172.176 284.532 171.799 284.532 171.406C284.532 171.013 284.365 170.636 284.068 170.358C283.771 170.08 283.368 169.924 282.948 169.924C282.528 169.924 282.125 170.08 281.828 170.358C281.531 170.636 281.364 171.013 281.364 171.406ZM282.948 170.665C282.896 170.665 282.845 170.65 282.801 170.623C282.758 170.596 282.724 170.557 282.704 170.512C282.684 170.467 282.679 170.418 282.689 170.37C282.699 170.322 282.724 170.278 282.761 170.243C282.798 170.209 282.845 170.185 282.897 170.176C282.948 170.166 283.001 170.171 283.049 170.19C283.097 170.208 283.139 170.24 283.168 170.281C283.197 170.321 283.212 170.369 283.212 170.418C283.212 170.483 283.184 170.546 283.135 170.592C283.085 170.639 283.018 170.665 282.948 170.665V170.665Z" fill="#4D8AF0"/>
<path d="M302.821 162.521C278.609 175.845 264.656 163.496 264.656 163.496L302.821 162.521Z" fill="#FFD180"/>
<path d="M369.241 227.98C367.758 224.044 351.87 235.129 351.87 235.129L348.198 234.924L341.131 228.802L346.064 224.187L304.638 190.959C303.532 190.073 302.24 189.413 300.846 189.021C299.451 188.63 297.984 188.515 296.539 188.684L262.099 192.701C261.95 190.855 260.734 188.662 259.014 186.423C255.481 181.002 248.043 174.883 245.298 172.709L241.087 146.23L244.655 141.222C243.995 141.053 243.345 140.85 242.71 140.611L243.464 139.552L243.186 139.481L243.533 139.097H243.491L252.378 129.478C253.038 128.764 253.377 127.839 253.322 126.896C253.268 125.954 252.825 125.068 252.087 124.425L232.197 110.288C232.8 108.942 233.089 107.491 233.044 106.031C233.201 103.224 231.856 100.374 227.35 98.2646C224.562 97.0211 221.641 96.056 218.637 95.3853C213.686 94.1937 208.484 94.2655 203.573 95.5933C203.493 95.4991 203.406 95.4048 203.315 95.3073C197.194 88.7624 189.165 98.1671 188.852 98.557L157.473 131.204C156.62 132.471 156.308 133.992 156.599 135.465C156.89 136.938 157.762 138.254 159.043 139.152L175.654 150.803L175.602 150.903L176.54 151.553C175.845 152.853 174.875 153.73 173.607 153.864L176.15 155.053C175.749 155.316 175.283 155.48 174.795 155.531L186.441 160.977C186.441 166.638 187.066 192.555 196.905 205.277C197.914 206.843 199.113 208.293 200.48 209.599C200.48 209.599 201.318 209.174 202.846 208.485L204.604 211.777C206.536 215.391 209.635 218.345 213.462 220.22C217.289 222.095 221.649 222.796 225.926 222.224L280.593 214.919L280.012 216.544L280.325 216.502L262.607 266.222L265.532 267.135L265.476 267.233L265.89 267.399L262.204 273.898L250.603 282.243C250.603 282.243 284.508 298.099 288.076 295.596C291.644 293.094 275.569 282.243 275.569 282.243L274.676 278.906L278.578 271.201L281.847 272.221L308.119 223.073L309.012 221.402L326.793 242.2L331.806 237.514L332.348 238.028L332.393 237.986L339.342 244.563L344.376 257.416C344.376 257.416 370.718 231.915 369.241 227.98ZM231.314 132.406L230.967 132.029C228.848 134.508 225.099 137.508 220.919 139.539V136.806L221.117 136.644V135.454C223.759 133.18 225.67 130.26 226.633 127.025C227.597 123.79 227.576 120.367 226.572 117.142L238.113 125.432L231.314 132.406ZM192.142 101.589L191.864 101.329L192.146 101.589H192.142ZM182.918 118.968C182.842 119.835 182.811 120.707 182.824 121.584C182.804 122.858 182.88 124.132 183.05 125.396C183.644 129.813 185.336 133.423 188.821 135.145C191.857 136.64 193.855 136.559 195.127 135.539L195.266 135.656C195.372 137.383 195.852 139.072 196.676 140.621C190.171 139.351 183.959 137.01 178.329 133.709C178.329 133.709 178.35 133.93 178.374 134.327L173.6 129.861L182.918 118.968Z" fill="url(#paint9_linear)"/>
<path d="M270.024 257.848L262.224 271.63L274.356 276.491L282.156 261.091L270.024 257.848Z" fill="#FDA57D"/>
<path d="M274.356 276.491L275.222 279.741C275.222 279.741 290.821 290.28 287.354 292.71C283.886 295.141 250.954 279.741 250.954 279.741L262.221 271.633L274.356 276.491Z" fill="#333333"/>
<path opacity="0.1" d="M281.326 262.521L269.051 258.696L265.4 265.143L277.532 270.008L281.326 262.521Z" fill="black"/>
<path d="M325.445 232.032L337.16 243.127L345.759 233.758L332.39 222.179L325.445 232.032Z" fill="#FDA57D"/>
<path opacity="0.1" d="M332.873 222.719L325.928 232.575L330.368 236.777L339.376 228.35L332.873 222.719Z" fill="black"/>
<path d="M345.759 233.754L349.327 233.953C349.327 233.953 364.752 223.193 366.194 227.014C367.636 230.836 342.052 255.612 342.052 255.612L337.164 243.126L345.759 233.754Z" fill="#333333"/>
<path d="M234.684 150.803L252.688 131.304C253.329 130.611 253.658 129.711 253.605 128.795C253.551 127.88 253.121 127.019 252.403 126.394L213.227 98.6221L208.471 105.563L238.832 127.424L225.943 140.644L234.684 150.803Z" fill="#FDA57D"/>
<path opacity="0.1" d="M232.617 133.823L226.318 140.283L235.07 150.455L244.103 140.686C239.696 139.381 235.735 137.014 232.617 133.823V133.823Z" fill="black"/>
<path d="M182.414 155.034L162.031 140.735C160.787 139.862 159.94 138.583 159.657 137.153C159.375 135.722 159.678 134.245 160.506 133.014L191.006 101.267L197.26 107.117L176.161 131.701L188.633 143.367L182.414 155.034Z" fill="#FDA57D"/>
<path opacity="0.1" d="M178.103 152.154L181.438 154.494L187.692 142.828L179.84 135.506C180.007 137.989 180.476 147.637 178.103 152.154Z" fill="black"/>
<path d="M281.322 211.66L262.61 264.165L281.322 269.998L312.503 211.66L287.558 205.826L281.322 211.66Z" fill="#4D8AF0"/>
<path opacity="0.1" d="M280.454 213.281L279.519 215.907L299.166 213.281L306.84 222.257L311.638 213.281L286.69 207.448L280.454 213.281Z" fill="black"/>
<path d="M190.965 101.303C190.965 101.303 198.955 91.6643 205.025 98.1507C211.094 104.637 195.492 105.446 195.492 105.446L190.965 101.303Z" fill="#FDA57D"/>
<path d="M200.244 199.993L206.272 211.273C208.148 214.784 211.158 217.653 214.875 219.475C218.592 221.296 222.828 221.977 226.982 221.422L300.031 211.673L324.979 240.842L343.688 223.342L303.439 191.073C302.365 190.212 301.111 189.57 299.756 189.189C298.402 188.808 296.977 188.696 295.573 188.86L200.244 199.993Z" fill="#4D8AF0"/>
<path opacity="0.1" d="M181.914 137.063C181.914 137.063 183.558 156.008 177.321 156.658L189.794 162.508C189.794 162.508 189.099 196.86 202.266 209.177C202.266 209.177 226.52 196.86 252.16 197.51C277.799 198.16 245.906 174.174 245.906 174.174L241.695 147.618L245.169 142.743C240.472 141.427 236.267 138.899 233.037 135.448C229.563 139.5 221.621 144.995 214.732 144.995H211.751C201.481 144.995 190.558 143.045 181.904 137.878L181.914 137.063Z" fill="black"/>
<path d="M180.757 135.441C180.757 135.441 182.414 154.387 176.161 155.034L188.633 160.883C188.633 160.883 187.939 195.236 201.106 207.552C201.106 207.552 225.359 195.236 250.999 195.886C276.639 196.536 244.746 172.549 244.746 172.549L240.535 145.993L244.009 141.118C239.312 139.803 235.107 137.274 231.877 133.823C228.403 137.875 220.461 143.37 213.571 143.37H210.59C200.321 143.37 189.398 140.618 180.743 135.441H180.757Z" fill="#3AD29F"/>
<path d="M197.187 130.099V136.598C197.187 139.899 198.589 143.064 201.085 145.398L215.899 159.255L220.829 150.029C221.688 148.423 222.135 146.652 222.135 144.856V130.099H197.187Z" fill="#FDA57D"/>
<path opacity="0.1" d="M197.378 137.602C197.378 137.843 197.378 138.08 197.402 138.32C200.833 141.183 205.271 142.763 209.868 142.759C214.466 142.756 218.9 141.169 222.326 138.301V131.09H197.378V137.602Z" fill="black"/>
<path d="M209.659 141.768C219.992 141.768 228.368 133.933 228.368 124.269C228.368 114.604 219.992 106.769 209.659 106.769C199.327 106.769 190.951 114.604 190.951 124.269C190.951 133.933 199.327 141.768 209.659 141.768Z" fill="#FDA57D"/>
<path opacity="0.1" d="M197.187 119.332H228.372C228.372 119.332 240.844 107.666 228.372 101.833C225.663 100.626 222.827 99.6888 219.908 99.038C200.943 94.5404 182.908 109.213 185.347 127.372C185.923 131.662 187.567 135.171 190.951 136.832C204.115 143.305 197.187 119.332 197.187 119.332Z" fill="black"/>
<path d="M197.187 118.523H228.372C228.372 118.523 240.844 106.857 228.372 101.024C225.663 99.8165 222.827 98.8798 219.908 98.2289C200.943 93.7313 182.908 108.404 185.347 126.563C185.923 130.853 187.567 134.362 190.951 136.023C204.115 142.506 197.187 118.523 197.187 118.523Z" fill="#333333"/>
<path d="M198.09 127.333C199.048 127.333 199.824 126.063 199.824 124.496C199.824 122.929 199.048 121.659 198.09 121.659C197.133 121.659 196.357 122.929 196.357 124.496C196.357 126.063 197.133 127.333 198.09 127.333Z" fill="#FDA57D"/>
<path opacity="0.1" d="M188.557 160.571L189.425 158.137L192.024 159.759L188.557 160.571Z" fill="black"/>
<path opacity="0.1" d="M244.794 172.553C244.794 172.553 235.358 176.777 232.756 180.839Z" fill="black"/>
<path opacity="0.1" d="M240.556 145.98L239.69 148.411L237.957 145.98H240.556Z" fill="black"/>
<path d="M197.187 118.523H228.372C228.372 118.523 240.844 106.857 228.372 101.024C225.663 99.8165 222.827 98.8798 219.908 98.2289C200.943 93.7313 182.908 108.404 185.347 126.563C185.923 130.853 187.567 134.362 190.951 136.023C204.115 142.506 197.187 118.523 197.187 118.523Z" fill="#333333"/>
<path opacity="0.1" d="M281.083 184.044C281.083 184.044 287.409 196.909 279.102 198.017C270.795 199.125 274.586 187.241 274.586 187.241C274.586 187.241 273.755 183.715 271.733 183.517" fill="black"/>
<path opacity="0.1" d="M288.726 183.732C288.726 183.732 281.204 196.022 289.372 197.803C297.54 199.584 294.893 187.446 294.893 187.446C294.893 187.446 296.053 184.005 298.089 183.972" fill="black"/>
<path d="M280.35 183.683C280.35 183.683 286.676 196.548 278.369 197.657C270.062 198.765 273.853 186.881 273.853 186.881C273.853 186.881 273.022 183.345 271.007 183.147" fill="#FFD180"/>
<path d="M289.313 183.189C289.313 183.189 281.777 195.483 289.959 197.25C298.141 199.018 295.48 186.894 295.48 186.894C295.48 186.894 296.64 183.452 298.676 183.42" fill="#FFD180"/>
<path opacity="0.5" d="M275.847 194.982H275.704V197.494H275.847V194.982Z" fill="#58555D"/>
<path opacity="0.5" d="M278.147 194.982H278.004V197.494H278.147V194.982Z" fill="#58555D"/>
<path opacity="0.5" d="M276.9 194.183H276.757V197.696H276.9V194.183Z" fill="#58555D"/>
<path opacity="0.5" d="M290.786 194.446H290.644V196.958H290.786V194.446Z" fill="#58555D"/>
<path opacity="0.5" d="M293.086 194.446H292.944V196.958H293.086V194.446Z" fill="#58555D"/>
<path opacity="0.5" d="M291.839 193.643H291.696V197.156H291.839V193.643Z" fill="#58555D"/>
<g opacity="0.5">
<path opacity="0.5" d="M286.122 341.968C294.78 339.252 299.444 330.485 296.541 322.387C293.637 314.289 284.265 309.926 275.608 312.642C266.95 315.358 262.286 324.124 265.189 332.222C268.093 340.32 277.465 344.683 286.122 341.968Z" fill="url(#paint10_linear)"/>
</g>
<path d="M285.786 341.031C293.891 338.489 298.257 330.282 295.539 322.702C292.821 315.121 284.048 311.036 275.943 313.579C267.839 316.121 263.472 324.328 266.19 331.908C268.908 339.489 277.682 343.573 285.786 341.031Z" fill="#F55F44"/>
<g opacity="0.5">
<path opacity="0.5" d="M239.673 346.698C237.45 347.396 234.681 346.899 233.649 344.904C233.055 343.75 233.197 342.46 233.336 341.212C233.489 339.844 233.618 338.664 232.794 337.901C232.369 337.562 231.868 337.317 231.328 337.183C230.633 336.965 229.883 336.783 229.167 336.607C227.891 336.333 226.644 335.95 225.443 335.464C223.08 334.427 221.569 332.675 221.402 330.777C221.26 329.153 222.097 327.671 222.896 326.251C223.695 324.83 224.501 323.42 224.119 322.026C223.601 320.144 221.187 319.251 219.061 318.451L218.713 318.328C216.114 317.353 213.328 315.296 214.023 312.657C214.266 311.737 214.888 311.032 215.489 310.382C215.897 309.96 216.247 309.491 216.531 308.988C217.469 307.139 216.184 305.001 215.611 304.166C215.162 303.516 214.631 302.918 214.117 302.323C213.311 301.45 212.598 300.505 211.987 299.502L211.89 299.333C210.479 296.838 210.451 296.734 210.57 294.014V293.689L211.799 293.734V294.059C211.695 296.526 211.695 296.526 212.977 298.794L213.074 298.963C213.648 299.9 214.317 300.782 215.072 301.598C215.604 302.213 216.153 302.849 216.636 303.529C218.126 305.638 218.491 307.805 217.64 309.479C217.307 310.067 216.896 310.613 216.417 311.104C215.882 311.702 215.374 312.267 215.201 312.93C214.659 314.981 217.428 316.612 219.151 317.255L219.481 317.379C221.764 318.224 224.605 319.277 225.279 321.724C225.78 323.54 224.852 325.178 223.952 326.764C223.198 328.096 222.483 329.364 222.597 330.664C222.75 332.409 224.421 333.738 225.933 334.404C227.066 334.861 228.242 335.22 229.445 335.477C230.182 335.655 230.942 335.844 231.686 336.074C232.408 336.26 233.074 336.6 233.631 337.069C234.872 338.219 234.698 339.795 234.531 341.319C234.406 342.457 234.285 343.533 234.729 344.39C235.532 345.944 238.019 346.171 239.75 345.408C241.167 344.784 242.282 343.721 243.464 342.6C243.846 342.236 244.242 341.862 244.645 341.505C246.847 339.555 249.074 338.703 251.089 339.032C251.729 339.156 252.352 339.345 252.948 339.594C253.412 339.784 253.892 339.939 254.383 340.055C255.478 340.238 256.607 340.027 257.544 339.466C258.481 338.905 259.157 338.034 259.438 337.027C259.483 336.835 259.514 336.633 259.549 336.422C259.657 335.746 259.778 334.979 260.355 334.385C260.932 333.79 261.846 333.572 262.495 333.432L269.201 331.983L269.479 333.104L262.773 334.554C262.137 334.69 261.585 334.833 261.269 335.158C260.953 335.483 260.859 336.026 260.772 336.591C260.737 336.812 260.699 337.043 260.647 337.27C260.294 338.575 259.423 339.705 258.211 340.429C256.998 341.154 255.536 341.419 254.122 341.17C253.565 341.04 253.02 340.866 252.493 340.65C251.977 340.433 251.438 340.267 250.884 340.156C248.842 339.831 246.83 341.154 245.499 342.33C245.114 342.671 244.725 343.042 244.349 343.396C243.144 344.54 241.9 345.726 240.285 346.438C240.086 346.535 239.882 346.622 239.673 346.698V346.698Z" fill="url(#paint11_linear)"/>
</g>
<path d="M239.84 346.126C237.616 346.824 234.847 346.327 233.816 344.332C233.221 343.178 233.364 341.888 233.503 340.64C233.656 339.272 233.784 338.093 232.961 337.329C232.536 336.99 232.035 336.745 231.495 336.611C230.8 336.393 230.05 336.211 229.334 336.035C228.058 335.761 226.811 335.378 225.609 334.892C223.247 333.855 221.736 332.103 221.569 330.206C221.426 328.581 222.264 327.099 223.063 325.679C223.862 324.259 224.668 322.848 224.286 321.454C223.768 319.573 221.354 318.679 219.227 317.879L218.88 317.756C216.281 316.781 213.495 314.724 214.19 312.085C214.433 311.166 215.055 310.46 215.656 309.81C216.063 309.388 216.413 308.919 216.698 308.416C217.636 306.567 216.351 304.429 215.777 303.594C215.329 302.944 214.798 302.346 214.283 301.751C213.478 300.878 212.764 299.933 212.154 298.93L212.057 298.761C210.646 296.266 210.618 296.162 210.736 293.442V293.117L211.966 293.162V293.487C211.862 295.954 211.862 295.954 213.144 298.222L213.241 298.391C213.814 299.328 214.483 300.21 215.239 301.026C215.77 301.641 216.319 302.278 216.802 302.957C218.293 305.066 218.658 307.233 217.806 308.907C217.474 309.495 217.063 310.041 216.583 310.532C216.048 311.13 215.541 311.695 215.367 312.358C214.825 314.409 217.594 316.04 219.318 316.684L219.648 316.807C221.93 317.652 224.772 318.705 225.446 321.152C225.946 322.968 225.019 324.606 224.119 326.192C223.365 327.525 222.649 328.792 222.764 330.092C222.917 331.837 224.588 333.166 226.099 333.832C227.233 334.289 228.408 334.648 229.612 334.905C230.348 335.083 231.109 335.272 231.853 335.503C232.575 335.688 233.241 336.028 233.798 336.497C235.039 337.647 234.865 339.223 234.698 340.748C234.573 341.885 234.451 342.961 234.896 343.819C235.699 345.372 238.186 345.599 239.916 344.836C241.334 344.212 242.449 343.149 243.63 342.028C244.012 341.664 244.408 341.29 244.811 340.933C247.014 338.983 249.241 338.132 251.256 338.46C251.896 338.584 252.519 338.773 253.115 339.022C253.579 339.213 254.059 339.367 254.55 339.483C255.645 339.666 256.774 339.455 257.711 338.894C258.648 338.333 259.324 337.462 259.605 336.455C259.65 336.263 259.681 336.061 259.716 335.85C259.824 335.174 259.945 334.407 260.522 333.813C261.099 333.218 262.012 333 262.662 332.861L269.367 331.411L269.645 332.532L262.94 333.982C262.304 334.118 261.752 334.261 261.436 334.586C261.12 334.911 261.026 335.454 260.939 336.019C260.904 336.24 260.866 336.471 260.814 336.698C260.461 338.003 259.59 339.133 258.377 339.857C257.165 340.582 255.703 340.847 254.289 340.598C253.731 340.468 253.186 340.294 252.66 340.078C252.144 339.861 251.604 339.695 251.051 339.584C249.008 339.259 246.997 340.582 245.666 341.758C245.281 342.099 244.891 342.47 244.516 342.824C243.311 343.968 242.067 345.154 240.451 345.866C240.253 345.964 240.049 346.05 239.84 346.126Z" fill="#F55F44"/>
<path opacity="0.2" d="M279.964 316.992C279.964 316.992 288.528 315.78 292.721 326.959" stroke="black" stroke-miterlimit="10"/>
<path opacity="0.2" d="M270.489 334.801C270.489 334.801 264.132 326.384 275.461 317.103" stroke="black" stroke-miterlimit="10"/>
<path opacity="0.2" d="M273.092 331.726C273.092 331.726 270.024 327.31 273.241 323.352" stroke="black" stroke-miterlimit="10"/>
<path opacity="0.2" d="M278.584 321.675C278.584 321.675 282.646 323.176 283.216 329.939" stroke="black" stroke-miterlimit="10"/>
<path opacity="0.2" d="M283.351 313.759C283.351 313.759 289.695 314.893 294.121 323.053" stroke="black" stroke-miterlimit="10"/>
<path opacity="0.2" d="M275.176 316.323C275.176 316.323 278.175 314.341 280.957 315.377" stroke="black" stroke-miterlimit="10"/>
<path opacity="0.2" d="M277.441 335.038C277.441 335.038 281.451 337.423 291.783 330.54" stroke="black" stroke-miterlimit="10"/>
<path opacity="0.2" d="M276.729 339.782C276.729 339.782 279.238 342.119 284.459 340.133" stroke="black" stroke-miterlimit="10"/>
<path opacity="0.2" d="M269.291 319.04C268.214 320.534 267.49 322.226 267.168 324.003C266.845 325.78 266.932 327.601 267.422 329.344" stroke="black" stroke-miterlimit="10"/>
<path opacity="0.2" d="M272.657 334.118C272.657 334.118 272.327 336.305 274.944 337.391" stroke="black" stroke-miterlimit="10"/>
<path opacity="0.2" d="M293.454 331.587C293.454 331.587 293.294 335.811 290.793 336.065" stroke="black" stroke-miterlimit="10"/>
<path opacity="0.2" d="M279.728 337.8C281.237 337.988 282.773 337.852 284.218 337.402C285.663 336.951 286.979 336.198 288.066 335.2" stroke="black" stroke-miterlimit="10"/>
<path opacity="0.2" d="M283.591 322.708C283.591 322.708 285.762 324.109 285.547 326.608" stroke="black" stroke-miterlimit="10"/>
<path opacity="0.2" d="M275.308 325.48C275.308 325.48 274.704 328.447 276.264 330.212" stroke="black" stroke-miterlimit="10"/>
<path opacity="0.2" d="M277.143 324.905C277.143 324.905 279.373 327.505 278.765 329.429" stroke="black" stroke-miterlimit="10"/>
</g>
<defs>
<linearGradient id="paint0_linear" x1="258.5" y1="293.269" x2="258.5" y2="122.419" gradientUnits="userSpaceOnUse">
<stop stop-color="#808080" stop-opacity="0.25"/>
<stop offset="0.54" stop-color="#808080" stop-opacity="0.12"/>
<stop offset="1" stop-color="#808080" stop-opacity="0.1"/>
</linearGradient>
<linearGradient id="paint1_linear" x1="26506.8" y1="-144285" x2="18869.4" y2="-155894" gradientUnits="userSpaceOnUse">
<stop stop-color="#808080" stop-opacity="0.25"/>
<stop offset="0.54" stop-color="#808080" stop-opacity="0.12"/>
<stop offset="1" stop-color="#808080" stop-opacity="0.1"/>
</linearGradient>
<linearGradient id="paint2_linear" x1="3956.4" y1="-20857.4" x2="3820.1" y2="-21064.6" gradientUnits="userSpaceOnUse">
<stop stop-color="#808080" stop-opacity="0.25"/>
<stop offset="0.54" stop-color="#808080" stop-opacity="0.12"/>
<stop offset="1" stop-color="#808080" stop-opacity="0.1"/>
</linearGradient>
<linearGradient id="paint3_linear" x1="4603.84" y1="-20526" x2="4467.49" y2="-20733.3" gradientUnits="userSpaceOnUse">
<stop stop-color="#808080" stop-opacity="0.25"/>
<stop offset="0.54" stop-color="#808080" stop-opacity="0.12"/>
<stop offset="1" stop-color="#808080" stop-opacity="0.1"/>
</linearGradient>
<linearGradient id="paint4_linear" x1="3619.04" y1="-20160" x2="3482.68" y2="-20367.3" gradientUnits="userSpaceOnUse">
<stop stop-color="#808080" stop-opacity="0.25"/>
<stop offset="0.54" stop-color="#808080" stop-opacity="0.12"/>
<stop offset="1" stop-color="#808080" stop-opacity="0.1"/>
</linearGradient>
<linearGradient id="paint5_linear" x1="4230.36" y1="-19804" x2="4094.01" y2="-20011.2" gradientUnits="userSpaceOnUse">
<stop stop-color="#808080" stop-opacity="0.25"/>
<stop offset="0.54" stop-color="#808080" stop-opacity="0.12"/>
<stop offset="1" stop-color="#808080" stop-opacity="0.1"/>
</linearGradient>
<linearGradient id="paint6_linear" x1="19407.3" y1="15274.4" x2="19407.3" y2="9153.33" gradientUnits="userSpaceOnUse">
<stop stop-color="#808080" stop-opacity="0.25"/>
<stop offset="0.54" stop-color="#808080" stop-opacity="0.12"/>
<stop offset="1" stop-color="#808080" stop-opacity="0.1"/>
</linearGradient>
<linearGradient id="paint7_linear" x1="37035.7" y1="32434.7" x2="37035.7" y2="14411.3" gradientUnits="userSpaceOnUse">
<stop stop-color="#808080" stop-opacity="0.25"/>
<stop offset="0.54" stop-color="#808080" stop-opacity="0.12"/>
<stop offset="1" stop-color="#808080" stop-opacity="0.1"/>
</linearGradient>
<linearGradient id="paint8_linear" x1="282.948" y1="173.05" x2="282.948" y2="169.761" gradientUnits="userSpaceOnUse">
<stop stop-color="white"/>
<stop offset="1"/>
</linearGradient>
<linearGradient id="paint9_linear" x1="130536" y1="138748" x2="130536" y2="12102.7" gradientUnits="userSpaceOnUse">
<stop stop-color="#808080" stop-opacity="0.25"/>
<stop offset="0.54" stop-color="#808080" stop-opacity="0.12"/>
<stop offset="1" stop-color="#808080" stop-opacity="0.1"/>
</linearGradient>
<linearGradient id="paint10_linear" x1="33934.8" y1="-20610.3" x2="33048" y2="-23437.3" gradientUnits="userSpaceOnUse">
<stop stop-color="#808080" stop-opacity="0.25"/>
<stop offset="0.54" stop-color="#808080" stop-opacity="0.12"/>
<stop offset="1" stop-color="#808080" stop-opacity="0.1"/>
</linearGradient>
<linearGradient id="paint11_linear" x1="54197.9" y1="-36383.8" x2="51286.9" y2="-45663.3" gradientUnits="userSpaceOnUse">
<stop stop-color="#808080" stop-opacity="0.25"/>
<stop offset="0.54" stop-color="#808080" stop-opacity="0.12"/>
<stop offset="1" stop-color="#808080" stop-opacity="0.1"/>
</linearGradient>
<clipPath id="clip0">
<rect x="90" y="93" width="337" height="254" fill="white"/>
</clipPath>
</defs>
</svg>
