<svg width="477" height="404" viewBox="0 0 477 404" fill="none" xmlns="http://www.w3.org/2000/svg">
<path opacity="0.18" d="M439.792 332.003C429.328 374.029 380.329 398.698 334.1 402.969C327.926 403.543 321.738 403.857 315.564 403.948C280.769 404.51 245.947 398.515 211.025 396.178C205.751 395.825 200.477 395.551 195.203 395.407C145.445 393.984 90.9883 402.094 49.6539 376.314C17.0533 355.993 1.07652 318.16 0.0217149 281.737C-1.03309 245.314 36.6306 222.858 49.654 188.485C66.4043 144.278 60.4973 86.2223 96.7687 53.6387C129.468 24.2939 121.389 -2.91135 166 1.60725C207.588 5.81243 192.511 -3.57739 233.69 1.60725C292.605 9.02508 448.132 40.7916 439.792 95.4851C436.698 115.806 478.119 205.995 476.417 226.485C472.887 268.615 450.045 290.774 439.792 332.003Z" fill="#FF0D11"/>
<path d="M343.844 353.188H156.156L218.719 338.75C218.719 338.75 227.656 348.375 250 348.375C272.344 348.375 281.281 338.75 281.281 338.75L343.844 353.188Z" fill="#FF0D11"/>
<path d="M140.382 102.938L129.344 96.3444L120.54 101.59L118.306 102.938L120.406 89.0294L111.469 79.1637L123.802 77.0944L129.344 64.4375L134.885 77.0944L147.219 79.1637L139.577 87.5856L138.281 89.0294L140.382 102.938Z" fill="#FEDB03"/>
<path d="M323.734 73.2444L324.896 80.9925L325.298 83.6875L317.031 78.7788L308.764 83.6875L309.568 78.1531L310.328 73.2444L303.625 65.8331L312.875 64.3413L317.031 54.8125L321.187 64.3413L330.438 65.8331L323.734 73.2444Z" fill="#FEDB03"/>
<path d="M370.656 88.5L376.198 101.157L388.531 103.226L379.594 113.092L381.694 127L370.656 120.407L359.618 127L361.629 113.766L361.719 113.092L352.781 103.226L365.115 101.157L367.26 96.2481L370.656 88.5Z" fill="#FEDB03"/>
<path d="M338.839 122.139C336.294 117.915 332.851 114.405 328.793 111.903C324.736 109.4 320.183 107.976 315.512 107.75C298.888 108.279 294.688 117.375 294.688 117.375C294.688 117.375 276.812 93.3125 254.469 93.3125C236.594 93.3125 223.188 93.3125 191.906 112.562C183.981 117.429 175.771 121.737 167.328 125.46C156.54 130.405 145.309 134.146 133.812 136.625C136.952 143.946 142.006 150.122 148.356 154.396C154.706 158.67 162.076 160.857 169.562 160.688C169.562 160.688 151.688 170.312 151.688 199.188C151.688 228.062 165.094 237.688 165.094 237.688L166.166 237.399C165.45 234.347 165.09 231.21 165.094 228.062V223.25C165.094 219.421 166.506 215.749 169.02 213.041C171.535 210.334 174.944 208.812 178.5 208.812H187.438V184.75L214.25 160.688V189.562C220.346 189.522 226.386 188.299 232.08 185.953C246.232 179.508 258.561 169.168 267.83 155.971L263.406 175.125C269.504 174.175 275.238 171.424 279.971 167.176C284.704 162.928 288.252 157.35 290.219 151.062C290.219 151.062 294.688 179.938 312.562 189.562V208.812H321.5C325.056 208.812 328.465 210.334 330.98 213.041C333.494 215.749 334.906 219.421 334.906 223.25V228.062C334.907 229.655 334.818 231.246 334.638 232.827L334.906 232.875L345.765 213.384C347.43 210.388 348.31 206.962 348.312 203.471V151.062C348.011 140.598 344.7 130.492 338.839 122.139V122.139Z" fill="black"/>
<path d="M281.281 306.266V338.75C281.281 338.75 272.344 348.375 250 348.375C227.656 348.375 218.719 338.75 218.719 338.75V306.266C228.346 311.795 239.089 314.688 250 314.688C260.911 314.688 271.654 311.795 281.281 306.266V306.266Z" fill="#F2B59D"/>
<path d="M281.281 306.266C271.654 311.795 260.911 314.688 250 314.688C239.089 314.688 228.346 311.795 218.719 306.266C210.784 301.781 203.867 295.467 198.46 287.772C193.053 280.077 189.289 271.192 187.438 261.75C182.168 260.163 177.402 257.056 173.653 252.764C169.904 248.472 167.316 243.159 166.166 237.399C165.45 234.347 165.09 231.21 165.094 228.062V223.25C165.094 219.421 166.506 215.749 169.02 213.041C171.535 210.334 174.944 208.812 178.5 208.812H187.438V184.75L214.25 160.688V189.562C220.346 189.522 226.386 188.299 232.08 185.953C246.232 179.508 258.561 169.168 267.83 155.971L263.406 175.125C269.504 174.175 275.238 171.424 279.971 167.176C284.704 162.928 288.252 157.35 290.219 151.062C290.219 151.062 294.688 179.938 312.563 189.562V208.812H321.5C325.056 208.812 328.466 210.334 330.98 213.041C333.494 215.749 334.906 219.421 334.906 223.25V228.062C334.907 229.655 334.818 231.246 334.638 232.827C334.094 239.482 331.695 245.805 327.756 250.967C323.816 256.128 318.52 259.887 312.563 261.75C310.711 271.192 306.948 280.077 301.54 287.772C296.133 295.467 289.216 301.781 281.281 306.266V306.266Z" fill="#F2C4B2"/>
<path d="M281.281 306.266C271.654 311.795 260.911 314.688 250 314.688C239.089 314.688 228.346 311.795 218.719 306.266V338.75C220.499 340.432 222.499 341.825 224.653 342.884L281.281 316.752V306.266Z" fill="#ED9776"/>
<path d="M312.562 252.125V218.438H317.031C319.402 218.438 321.675 219.452 323.351 221.257C325.027 223.062 325.969 225.51 325.969 228.062V233.438C325.974 237.483 324.796 241.426 322.602 244.709C320.408 247.991 317.31 250.446 313.747 251.726L312.562 252.125Z" fill="#F2A283"/>
<path d="M187.438 252.125V218.438H182.969C180.598 218.438 178.325 219.452 176.649 221.257C174.973 223.062 174.031 225.51 174.031 228.062V233.438C174.026 237.483 175.204 241.426 177.398 244.709C179.592 247.991 182.69 250.446 186.253 251.726L187.438 252.125Z" fill="#F2A283"/>
<path d="M250 252.125C252.468 252.125 254.469 247.816 254.469 242.5C254.469 237.184 252.468 232.875 250 232.875C247.532 232.875 245.531 237.184 245.531 242.5C245.531 247.816 247.532 252.125 250 252.125Z" fill="#D9896D"/>
<path d="M267.875 295.438H232.125C232.125 295.438 232.125 271.375 250 271.375C267.875 271.375 267.875 295.438 267.875 295.438Z" fill="#D9896D"/>
<path d="M312.562 189.562C294.688 179.938 290.219 151.062 290.219 151.062C288.252 157.35 284.704 162.928 279.971 167.176C275.238 171.424 269.504 174.175 263.406 175.125L267.83 155.971C258.561 169.168 246.232 179.508 232.08 185.953C226.386 188.299 220.346 189.522 214.25 189.562V160.688L187.438 184.75V208.812H312.562V189.562Z" fill="#AD706D"/>
<path d="M169.562 160.688C169.562 160.688 151.688 170.312 151.688 199.188C151.688 228.062 165.094 237.688 165.094 237.688L166.166 237.399C165.45 234.347 165.09 231.21 165.094 228.062V223.25C165.094 219.421 166.506 215.749 169.02 213.041C171.535 210.334 174.944 208.812 178.5 208.812H187.438V184.75L165.094 194.375C156.156 179.938 169.562 160.688 169.562 160.688Z" fill="black"/>
<path d="M312.562 189.562V208.812H321.5C325.056 208.812 328.465 210.334 330.98 213.041C333.494 215.749 334.906 219.421 334.906 223.25V199.188C326.621 199.001 318.681 195.581 312.562 189.562V189.562Z" fill="black"/>
<path d="M223.188 254.531H220.953C215.029 254.525 209.349 251.988 205.16 247.476C200.971 242.965 198.615 236.849 198.609 230.469C198.616 224.089 200.973 217.973 205.162 213.462C209.35 208.951 215.029 206.414 220.953 206.406H223.188C227.336 206.406 231.314 208.181 234.247 211.34C237.18 214.498 238.828 218.783 238.828 223.25C238.828 227.717 237.18 232.002 234.247 235.16C231.314 238.319 227.336 240.094 223.188 240.094H220.953C218.583 240.094 216.309 239.08 214.633 237.275C212.957 235.47 212.016 233.021 212.016 230.469C212.016 227.916 212.957 225.468 214.633 223.663C216.309 221.858 218.583 220.844 220.953 220.844H227.656C228.249 220.844 228.817 221.097 229.236 221.549C229.655 222 229.891 222.612 229.891 223.25C229.891 223.888 229.655 224.5 229.236 224.951C228.817 225.403 228.249 225.656 227.656 225.656H220.953C219.768 225.656 218.631 226.163 217.793 227.066C216.955 227.968 216.484 229.192 216.484 230.469C216.484 231.745 216.955 232.969 217.793 233.872C218.631 234.774 219.768 235.281 220.953 235.281H223.188C226.15 235.281 228.992 234.014 231.087 231.757C233.182 229.501 234.359 226.441 234.359 223.25C234.359 220.059 233.182 216.999 231.087 214.743C228.992 212.486 226.15 211.219 223.188 211.219H220.953C216.212 211.219 211.666 213.247 208.314 216.857C204.961 220.467 203.078 225.363 203.078 230.469C203.078 235.574 204.961 240.47 208.314 244.081C211.666 247.691 216.212 249.719 220.953 249.719H223.188C223.78 249.719 224.348 249.972 224.767 250.424C225.186 250.875 225.422 251.487 225.422 252.125C225.422 252.763 225.186 253.375 224.767 253.826C224.348 254.278 223.78 254.531 223.188 254.531Z" fill="#754C4A"/>
<path d="M285.75 254.531H283.516C277.592 254.525 271.912 251.988 267.723 247.476C263.534 242.965 261.178 236.849 261.172 230.469C261.179 224.089 263.535 217.973 267.724 213.462C271.913 208.951 277.592 206.414 283.516 206.406H285.75C289.898 206.406 293.876 208.181 296.81 211.34C299.743 214.498 301.391 218.783 301.391 223.25C301.391 227.717 299.743 232.002 296.81 235.16C293.876 238.319 289.898 240.094 285.75 240.094H283.516C281.145 240.094 278.872 239.08 277.196 237.275C275.52 235.47 274.578 233.021 274.578 230.469C274.578 227.916 275.52 225.468 277.196 223.663C278.872 221.858 281.145 220.844 283.516 220.844H290.219C290.811 220.844 291.38 221.097 291.799 221.549C292.218 222 292.453 222.612 292.453 223.25C292.453 223.888 292.218 224.5 291.799 224.951C291.38 225.403 290.811 225.656 290.219 225.656H283.516C282.33 225.656 281.194 226.163 280.356 227.066C279.518 227.968 279.047 229.192 279.047 230.469C279.047 231.745 279.518 232.969 280.356 233.872C281.194 234.774 282.33 235.281 283.516 235.281H285.75C288.713 235.281 291.555 234.014 293.65 231.757C295.745 229.501 296.922 226.441 296.922 223.25C296.922 220.059 295.745 216.999 293.65 214.743C291.555 212.486 288.713 211.219 285.75 211.219H283.516C278.775 211.219 274.228 213.247 270.876 216.857C267.524 220.467 265.641 225.363 265.641 230.469C265.641 235.574 267.524 240.47 270.876 244.081C274.228 247.691 278.775 249.719 283.516 249.719H285.75C286.343 249.719 286.911 249.972 287.33 250.424C287.749 250.875 287.984 251.487 287.984 252.125C287.984 252.763 287.749 253.375 287.33 253.826C286.911 254.278 286.343 254.531 285.75 254.531Z" fill="#754C4A"/>
<path d="M294.687 213.625C288.951 213.813 283.273 212.332 278.251 209.34C273.229 206.347 269.049 201.952 266.15 196.618C265.615 195.489 265.516 194.179 265.872 192.972C266.229 191.765 267.013 190.758 268.055 190.169C269.097 189.581 270.312 189.458 271.437 189.828C272.562 190.199 273.506 191.032 274.064 192.147C276.202 195.93 279.243 199.025 282.871 201.11C286.498 203.195 290.579 204.193 294.687 204C295.873 204 297.009 204.507 297.847 205.41C298.685 206.312 299.156 207.536 299.156 208.813C299.156 210.089 298.685 211.313 297.847 212.216C297.009 213.118 295.873 213.625 294.687 213.625Z" fill="black"/>
<path d="M205.313 213.625C204.127 213.625 202.991 213.118 202.153 212.215C201.315 211.313 200.844 210.089 200.844 208.812C200.844 207.536 201.315 206.312 202.153 205.409C202.991 204.507 204.127 204 205.313 204C209.421 204.199 213.504 203.203 217.134 201.119C220.763 199.034 223.804 195.937 225.94 192.152C226.211 191.591 226.582 191.093 227.032 190.687C227.482 190.281 228.001 189.974 228.561 189.784C229.121 189.594 229.71 189.525 230.295 189.58C230.879 189.636 231.448 189.814 231.969 190.106C232.489 190.398 232.951 190.798 233.328 191.282C233.705 191.766 233.99 192.326 234.167 192.929C234.343 193.532 234.407 194.166 234.356 194.796C234.305 195.425 234.139 196.038 233.868 196.598C230.972 201.942 226.79 206.344 221.765 209.341C216.739 212.338 211.055 213.818 205.313 213.625V213.625Z" fill="black"/>
<path d="M325.196 83.009C325.315 83.0767 325.441 83.13 325.571 83.1678C345.707 87.0996 359.98 92.3837 365.736 98.0096C365.928 98.1972 366.062 98.3897 366.241 98.5774L367.26 96.2482L368.243 94.0056C359.788 86.2671 340.899 81.2813 326.366 78.4323C326.052 78.3757 325.729 78.3923 325.421 78.4811C325.112 78.57 324.825 78.7289 324.579 78.9472L324.887 80.9926L325.196 83.009Z" fill="#D4D4D4"/>
<path d="M138.281 89.0293L138.496 90.4346C138.665 90.4269 138.833 90.3978 138.996 90.3479L140.297 89.8667C163.244 81.4785 202.582 76.4687 245.531 76.4687C266.346 76.4035 287.146 77.6891 307.817 80.3187C308.344 80.3923 308.878 80.2516 309.314 79.9241L309.568 78.1723L309.837 76.435C309.659 76.1898 309.438 75.9849 309.186 75.8321C308.935 75.6793 308.658 75.5816 308.371 75.5447C287.516 72.8904 266.531 71.5919 245.531 71.6562C204.472 71.6562 166.595 76.2281 142.893 83.9329L139.577 87.5856L138.281 89.0293Z" fill="#D4D4D4"/>
<path d="M361.719 113.092L360.458 111.701C353.396 115.321 345.962 118.033 338.311 119.781C307.808 126.658 276.693 129.886 245.531 129.406C219.471 129.629 193.439 127.517 167.703 123.092C134.442 116.932 122.64 108.385 122.64 102.938C122.639 102.651 122.668 102.365 122.725 102.086C122.938 101.177 123.34 100.333 123.901 99.617V99.5737L120.518 101.59L118.283 102.938L118.762 99.7614C118.584 100.184 118.434 100.62 118.315 101.066C118.204 101.682 118.156 102.31 118.172 102.938C118.172 116.052 144.698 123.713 166.948 127.833C192.933 132.306 219.218 134.442 245.531 134.219C277.05 134.705 308.522 131.44 339.375 124.483C346.893 122.705 354.213 120.071 361.214 116.624L361.661 113.766L361.719 113.092Z" fill="#D4D4D4"/>
</svg>
