<svg width="477" height="404" viewBox="0 0 477 404" fill="none" xmlns="http://www.w3.org/2000/svg">
<path opacity="0.18" d="M439.792 332.003C429.328 374.029 380.329 398.698 334.1 402.969C327.926 403.543 321.738 403.857 315.564 403.948C280.769 404.51 245.947 398.515 211.025 396.178C205.751 395.825 200.477 395.551 195.203 395.407C145.445 393.984 90.9883 402.094 49.6539 376.314C17.0533 355.993 1.07652 318.16 0.0217149 281.737C-1.03309 245.314 36.6306 222.858 49.654 188.485C66.4043 144.278 60.4973 86.2223 96.7687 53.6387C129.468 24.2939 121.389 -2.91135 166 1.60725C207.588 5.81243 192.511 -3.57739 233.69 1.60725C292.605 9.02508 448.132 40.7916 439.792 95.4851C436.698 115.806 478.119 205.995 476.417 226.485C472.887 268.615 450.045 290.774 439.792 332.003Z" fill="#FF0D11"/>
<path d="M399.922 278.797V326.984L307.594 283.495L310.204 282.812L330.594 262.734L399.922 278.797Z" fill="#F2B59D"/>
<path d="M159.312 250.165C156.497 249.44 153.923 248 151.85 245.989C148.801 242.968 147.086 238.884 147.078 234.625C147.078 231.43 148.367 228.366 150.661 226.107C152.956 223.847 156.068 222.578 159.312 222.578H175.625L175.747 222.417L194.221 236.352C196.395 237.975 199.087 238.778 201.81 238.616C204.532 238.454 207.106 237.337 209.066 235.468C210.098 234.458 210.917 233.256 211.477 231.933C212.037 230.61 212.326 229.192 212.328 227.758V225.871C212.393 224.402 212.047 222.943 211.328 221.655C210.609 220.366 209.544 219.296 208.25 218.562L191.978 205.913L192.101 205.753L221.259 228.08C223.052 229.463 225.204 230.322 227.47 230.557C229.735 230.792 232.022 230.395 234.068 229.41C236.115 228.426 237.839 226.894 239.043 224.989C240.246 223.085 240.881 220.886 240.875 218.643V216.515C240.881 214.693 240.461 212.894 239.648 211.257C238.835 209.621 237.65 208.191 236.185 207.078L240.875 210.531C243.176 212.616 246.034 214.009 249.113 214.547C250.71 214.552 252.293 214.246 253.77 213.647C255.247 213.047 256.589 212.166 257.718 211.054C258.848 209.942 259.743 208.62 260.352 207.166C260.96 205.712 261.271 204.153 261.266 202.58V200.452C261.269 198.597 260.832 196.767 259.989 195.107C259.147 193.448 257.922 192.005 256.413 190.895L244.953 182.422H249.031V178.406C249.025 176.278 248.163 174.239 246.635 172.734C245.107 171.23 243.036 170.381 240.875 170.375H206.089C203.818 170.376 201.613 169.621 199.833 168.233C198.053 166.845 196.802 164.906 196.282 162.729C195.763 160.552 196.005 158.267 196.971 156.243C197.937 154.22 199.569 152.577 201.603 151.582L212.818 147.727L228.641 142.266L240.875 143.591L265.344 146.281L281.004 159.131L338.75 206.516H399.922V278.797L330.594 262.734L310.203 282.812L307.593 283.495L234.309 302.489C233.258 302.761 232.175 302.896 231.088 302.891H221.708C218.312 302.889 215.056 301.56 212.654 299.196L204.172 290.844H198.911C195.651 290.842 192.465 289.882 189.762 288.086C187.059 286.29 184.963 283.741 183.74 280.765L179.703 270.766H175.747C173.302 270.768 170.913 270.045 168.891 268.691C166.869 267.337 165.308 265.416 164.41 263.176L159.312 250.688V250.165Z" fill="#F2C4B2"/>
<path d="M277.578 138.25L281.656 158.328L281.004 159.131L265.344 146.281L240.875 143.591V131.744C240.869 128.934 241.752 126.191 243.4 123.896C245.048 121.601 247.381 119.868 250.074 118.937C252.767 118.006 255.688 117.923 258.431 118.7C261.175 119.476 263.605 121.074 265.385 123.272L277.578 138.25Z" fill="#F2B59D"/>
<path d="M249.032 178.406V182.422H244.954L231.577 172.543C229.671 171.136 227.353 170.375 224.971 170.375H240.875C243.037 170.381 245.107 171.23 246.636 172.734C248.164 174.239 249.025 176.278 249.032 178.406Z" fill="#ED9776"/>
<path d="M256.412 190.895L244.953 182.422L231.577 172.543C229.671 171.136 227.352 170.375 224.97 170.375H219.22C217.778 170.372 216.35 170.649 215.018 171.191C213.686 171.733 212.475 172.528 211.456 173.532C210.436 174.535 209.628 175.728 209.078 177.04C208.528 178.352 208.246 179.758 208.25 181.177C208.337 184.043 209.499 186.776 211.512 188.847L211.186 188.606C209.28 187.198 206.962 186.438 204.579 186.438H198.829C196.544 186.435 194.314 187.136 192.454 188.443C190.593 189.75 189.194 191.598 188.452 193.726C187.711 195.855 187.664 198.159 188.318 200.316C188.972 202.472 190.294 204.373 192.1 205.753L221.259 228.08C223.052 229.463 225.204 230.322 227.469 230.557C229.735 230.792 232.022 230.395 234.068 229.41C236.115 228.426 237.839 226.894 239.042 224.989C240.246 223.085 240.881 220.886 240.875 218.643V216.515C240.881 214.693 240.461 212.894 239.648 211.257C238.835 209.621 237.65 208.191 236.185 207.078L240.875 210.531C243.176 212.616 246.034 214.009 249.113 214.547C250.71 214.552 252.293 214.246 253.77 213.647C255.246 213.047 256.588 212.166 257.718 211.054C258.847 209.942 259.742 208.62 260.351 207.166C260.96 205.712 261.271 204.153 261.265 202.58V200.452C261.269 198.597 260.831 196.767 259.989 195.107C259.146 193.448 257.922 192.005 256.412 190.895V190.895Z" fill="#F2B59D"/>
<path d="M216.406 78.0156V110.141H212.328H183.781H179.703V102.109H147.078V78.0156H216.406Z" fill="#D4D4D4"/>
<path d="M212.328 225.871V227.758C212.326 229.191 212.037 230.61 211.477 231.933C210.917 233.256 210.098 234.457 209.066 235.468C207.106 237.337 204.532 238.454 201.81 238.616C199.087 238.778 196.395 237.975 194.221 236.352L175.747 222.417L167.265 215.992C165.446 214.626 164.164 212.682 163.635 210.491C163.471 209.766 163.389 209.025 163.391 208.282C163.4 206.985 163.67 205.702 164.183 204.507C164.697 203.312 165.445 202.228 166.384 201.318C167.324 200.408 168.436 199.69 169.658 199.203C170.879 198.717 172.187 198.473 173.504 198.484H178.847C181.035 198.478 183.166 199.168 184.923 200.452L191.978 205.913L208.25 218.562C209.544 219.296 210.609 220.366 211.328 221.655C212.047 222.943 212.393 224.402 212.328 225.871Z" fill="#F2B59D"/>
<path d="M264.568 202.942L261.265 200.492V202.572C261.272 204.146 260.962 205.705 260.353 207.16C259.745 208.616 258.85 209.938 257.721 211.051C256.591 212.164 255.249 213.046 253.771 213.646C252.294 214.246 250.711 214.552 249.112 214.547C246.034 214.009 243.176 212.616 240.875 210.531L236.185 207.078C237.649 208.191 238.834 209.621 239.648 211.257C240.461 212.894 240.881 214.693 240.875 216.515V216.555L244.178 218.992L240.875 216.583V218.647C240.876 220.888 240.238 223.084 239.034 224.986C237.829 226.887 236.106 228.417 234.061 229.4C232.016 230.384 229.732 230.782 227.468 230.549C225.205 230.317 223.053 229.462 221.259 228.084L196.056 208.784C196.056 208.881 196.056 208.973 196.031 209.07L208.25 218.562C209.544 219.296 210.608 220.366 211.327 221.655C212.047 222.943 212.393 224.402 212.328 225.871V227.043L229.415 240.126C231.208 241.51 233.36 242.368 235.626 242.604C237.891 242.839 240.178 242.442 242.224 241.457C244.271 240.472 245.995 238.94 247.198 237.036C248.402 235.132 249.037 232.933 249.031 230.69V228.561C249.037 226.74 248.617 224.941 247.804 223.304C246.991 221.668 245.806 220.238 244.341 219.125L249.031 222.578C251.332 224.662 254.19 226.056 257.269 226.594C258.866 226.599 260.449 226.293 261.926 225.694C263.403 225.094 264.744 224.213 265.874 223.101C267.004 221.988 267.899 220.667 268.507 219.213C269.116 217.759 269.427 216.2 269.421 214.627V212.499C269.425 210.644 268.987 208.813 268.145 207.154C267.302 205.495 266.078 204.052 264.568 202.942V202.942Z" fill="#F2B59D"/>
<path d="M216.406 230.609L212.328 227.441V227.758C212.326 229.191 212.036 230.61 211.477 231.933C210.917 233.256 210.097 234.457 209.066 235.468C207.106 237.337 204.532 238.454 201.809 238.616C199.087 238.778 196.395 237.975 194.221 236.352L175.747 222.417L175.625 222.578H171.804C172.339 224.753 173.615 226.681 175.421 228.039L183.904 234.464L202.377 248.398C204.551 250.021 207.243 250.825 209.966 250.662C212.689 250.5 215.263 249.384 217.222 247.515C218.254 246.504 219.073 245.303 219.633 243.98C220.193 242.657 220.482 241.238 220.484 239.805V237.918C220.549 236.449 220.203 234.99 219.484 233.701C218.765 232.413 217.7 231.343 216.406 230.609V230.609Z" fill="#F2B59D"/>
<path d="M196.016 317.949C196.016 324.615 192.345 326.984 187.859 326.984C183.373 326.984 179.703 324.615 179.703 317.949C179.703 311.283 187.859 302.891 187.859 302.891C187.859 302.891 196.016 311.283 196.016 317.949Z" fill="#96E0FF"/>
<path d="M183.781 313.934C184.221 310.054 185.777 306.378 188.267 303.34L187.859 302.891C187.859 302.891 179.703 311.283 179.703 317.949C179.703 324.615 183.373 326.984 187.859 326.984C189.425 327.112 190.991 326.737 192.322 325.916C193.654 325.096 194.681 323.873 195.249 322.431C194.185 322.798 193.065 322.98 191.938 322.969C187.452 322.969 183.781 320.6 183.781 313.934Z" fill="#81D2F5"/>
<path d="M175.747 222.417L175.625 222.578H159.312C156.068 222.578 152.956 223.847 150.661 226.107C148.367 228.366 147.078 231.43 147.078 234.625V226.594C147.078 222.334 148.797 218.248 151.856 215.236C154.915 212.224 159.064 210.531 163.391 210.531L163.635 210.491C164.164 212.683 165.446 214.626 167.265 215.992L175.747 222.417Z" fill="#ED9776"/>
<path d="M175.625 298.875C175.822 300.504 175.641 302.155 175.096 303.705C174.551 305.255 173.655 306.662 172.477 307.822C171.3 308.982 169.87 309.863 168.296 310.4C166.722 310.937 165.045 311.116 163.391 310.922C161.737 311.116 160.06 310.937 158.486 310.4C156.912 309.863 155.482 308.982 154.305 307.822C153.127 306.662 152.232 305.255 151.686 303.705C151.141 302.155 150.96 300.504 151.157 298.875C151.157 290 163.391 278.797 163.391 278.797C163.391 278.797 175.625 290 175.625 298.875Z" fill="#96E0FF"/>
<path d="M155.235 290.844C155.253 289.757 155.414 288.677 155.716 287.631C153.139 290.875 151.558 294.776 151.157 298.875C150.96 300.504 151.141 302.155 151.686 303.705C152.232 305.254 153.127 306.662 154.305 307.822C155.482 308.982 156.912 309.863 158.486 310.4C160.06 310.937 161.737 311.115 163.391 310.922C164.885 311.098 166.399 310.965 167.838 310.531C169.276 310.098 170.607 309.374 171.745 308.405C172.883 307.437 173.804 306.245 174.447 304.906C175.091 303.567 175.443 302.11 175.483 300.63C173.125 302.205 170.317 302.997 167.469 302.89C165.815 303.084 164.138 302.906 162.564 302.369C160.99 301.832 159.561 300.951 158.383 299.791C157.205 298.631 156.31 297.223 155.764 295.673C155.219 294.124 155.038 292.472 155.235 290.844V290.844Z" fill="#81D2F5"/>
<path d="M245.944 291.603C246.826 291.385 247.609 290.884 248.168 290.178C248.727 289.472 249.031 288.603 249.031 287.708V282.812L213.715 290.322C212.806 290.676 211.837 290.853 210.86 290.844H204.172L210.97 297.538L216.406 298.875L245.944 291.603Z" fill="#F2B59D"/>
<path d="M234.179 271.97C236.059 271.634 237.759 270.657 238.983 269.212C240.207 267.767 240.876 265.945 240.875 264.064V262.734L196.016 270.766H179.703L182.966 278.797H196.016L234.179 271.97Z" fill="#F2B59D"/>
<path d="M220.594 252.009C222.843 251.64 224.885 250.497 226.359 248.785C227.832 247.072 228.641 244.901 228.641 242.656L175.625 250.688H163.391C162.013 250.7 160.641 250.524 159.312 250.165V250.688L162.575 258.719H179.703L220.594 252.009Z" fill="#F2B59D"/>
<path d="M345.129 277.809L399.922 293.679V278.797L330.594 262.734L310.204 282.812L307.594 283.495L334.672 296.249V285.515C334.672 284.267 334.968 283.036 335.535 281.919C336.102 280.803 336.926 279.832 337.941 279.085C338.956 278.337 340.134 277.832 341.382 277.61C342.629 277.389 343.912 277.457 345.129 277.809Z" fill="#ED9776"/>
<path d="M250.72 206.074L219.832 184.791C218.773 184.061 217.909 183.089 217.312 181.959C216.716 180.83 216.405 179.575 216.406 178.302V178.302C216.404 177.262 216.61 176.231 217.013 175.27C217.416 174.308 218.007 173.434 218.754 172.698C219.5 171.961 220.386 171.377 221.362 170.979C222.338 170.58 223.384 170.375 224.44 170.375H219.22C217.779 170.372 216.351 170.649 215.018 171.191C213.686 171.733 212.475 172.528 211.456 173.532C210.437 174.535 209.629 175.728 209.079 177.04C208.528 178.352 208.247 179.758 208.25 181.177C208.337 184.043 209.499 186.776 211.513 188.847L211.553 188.887L236.022 206.957C236.063 206.998 236.144 207.038 236.185 207.078L240.875 210.531C243.176 212.616 246.034 214.009 249.113 214.547C251.833 214.566 254.48 213.674 256.618 212.018C258.757 210.362 260.26 208.039 260.882 205.431C259.514 206.658 257.762 207.39 255.915 207.506C254.069 207.623 252.236 207.118 250.72 206.074Z" fill="#F2A283"/>
<path d="M201.782 230.168L170.894 208.885C169.835 208.154 168.971 207.183 168.375 206.053C167.778 204.924 167.468 203.669 167.469 202.396V202.396C167.48 201.648 167.599 200.906 167.824 200.191C166.465 201.076 165.35 202.278 164.576 203.689C163.803 205.101 163.396 206.679 163.391 208.283C163.389 209.025 163.471 209.766 163.635 210.491C164.164 212.683 165.446 214.626 167.265 215.993L175.747 222.418L194.221 236.352C196.395 237.975 199.087 238.778 201.81 238.616C204.532 238.454 207.106 237.337 209.066 235.468C210.751 233.791 211.84 231.622 212.169 229.284C210.815 230.602 209.035 231.412 207.138 231.574C205.241 231.735 203.346 231.238 201.782 230.168V230.168Z" fill="#F2A283"/>
<path d="M230.329 222.136L195.363 196.838C194.304 196.107 193.439 195.136 192.843 194.006C192.247 192.877 191.936 191.622 191.937 190.349V190.349C191.938 189.828 191.991 189.309 192.096 188.799C191.185 189.475 190.388 190.288 189.735 191.208C188.178 193.48 187.557 196.25 187.996 198.956C188.435 201.662 189.902 204.103 192.1 205.785L221.259 228.112C222.851 229.351 224.735 230.175 226.737 230.508C228.738 230.84 230.793 230.67 232.71 230.014C234.627 229.357 236.345 228.236 237.705 226.752C239.065 225.268 240.023 223.471 240.491 221.526C239.119 222.748 237.365 223.474 235.518 223.584C233.672 223.695 231.842 223.185 230.329 222.136Z" fill="#F2A283"/>
<path d="M399.922 206.516H383.609V237.99C383.609 239.899 383.149 241.781 382.265 243.48C381.382 245.179 380.101 246.647 378.528 247.764C376.955 248.88 375.136 249.612 373.219 249.9C371.303 250.187 369.344 250.022 367.505 249.419L358.207 246.367C355.301 245.414 352.22 245.093 349.176 245.425C346.131 245.757 343.196 246.734 340.572 248.289C337.948 249.845 335.698 251.941 333.975 254.435C332.253 256.928 331.099 259.76 330.594 262.734V262.734L399.922 278.797V206.516Z" fill="#F2B59D"/>
<path d="M240.875 162.344H204.172C202.541 162.341 200.948 161.856 199.6 160.953C198.251 160.049 197.209 158.769 196.607 157.276C196.231 158.296 196.031 159.371 196.016 160.456C196.021 163.085 197.084 165.605 198.972 167.464C200.86 169.323 203.419 170.37 206.089 170.375H240.875C243.036 170.381 245.107 171.23 246.635 172.734C248.163 174.239 249.025 176.278 249.031 178.406V170.375C249.031 168.245 248.172 166.202 246.642 164.696C245.113 163.19 243.038 162.344 240.875 162.344Z" fill="#F2B59D"/>
<path d="M219.22 170.375H212.328V172.825C214.268 171.247 216.704 170.381 219.22 170.375Z" fill="#81D2F5"/>
<path d="M191.978 205.913L192.101 205.753C190.292 204.374 188.967 202.473 188.312 200.316C187.656 198.159 187.702 195.854 188.444 193.724C189.186 191.594 190.587 189.746 192.449 188.439C194.312 187.133 196.543 186.433 198.83 186.437H204.58C206.962 186.437 209.28 187.198 211.186 188.606L211.512 188.847C209.499 186.775 208.337 184.043 208.25 181.177C208.252 179.573 208.62 177.99 209.326 176.545C210.031 175.099 211.057 173.828 212.328 172.825V170.375H206.089C203.818 170.376 201.613 169.621 199.833 168.233C198.053 166.845 196.802 164.906 196.282 162.729C195.763 160.552 196.005 158.267 196.971 156.243C197.937 154.22 199.569 152.577 201.603 151.582L212.328 147.887V110.141H183.781V199.749C184.177 199.958 184.559 200.193 184.923 200.452L191.978 205.913Z" fill="#96E0FF"/>
<path d="M155.234 78.0156V86.0469C155.234 88.1769 156.094 90.2197 157.623 91.7258C159.153 93.232 161.227 94.0781 163.391 94.0781H179.703V102.109H147.078V78.0156H155.234Z" fill="#BFBFBF"/>
<path d="M216.406 106.125H179.703V110.141H216.406V106.125Z" fill="#BFBFBF"/>
<path d="M200.094 118.172H212.328V110.141H183.781V199.749C184.177 199.958 184.559 200.193 184.923 200.452L191.978 205.913L192.101 205.753C190.775 204.774 189.697 203.508 188.949 202.052C188.201 200.596 187.803 198.991 187.788 197.36C187.772 195.728 188.138 194.115 188.858 192.646C189.577 191.177 190.631 189.89 191.938 188.887V126.203C191.938 124.073 192.797 122.03 194.326 120.524C195.856 119.018 197.931 118.172 200.094 118.172V118.172Z" fill="#81D2F5"/>
<path d="M208.25 126.203C208.25 123.985 206.424 122.188 204.172 122.188C201.92 122.188 200.094 123.985 200.094 126.203V142.266C200.094 144.483 201.92 146.281 204.172 146.281C206.424 146.281 208.25 144.483 208.25 142.266V126.203Z" fill="#B3F5FF"/>
<path d="M208.25 174.391C208.25 172.173 206.424 170.375 204.172 170.375C201.92 170.375 200.094 172.173 200.094 174.391V178.406C200.094 180.624 201.92 182.422 204.172 182.422C206.424 182.422 208.25 180.624 208.25 178.406V174.391Z" fill="#B3F5FF"/>
<path d="M200.094 146.281C200.094 144.063 198.268 142.266 196.016 142.266C193.763 142.266 191.938 144.063 191.938 146.281V150.297C191.938 152.515 193.763 154.312 196.016 154.312C198.268 154.312 200.094 152.515 200.094 150.297V146.281Z" fill="#B3F5FF"/>
<path d="M168.692 298.839C170.148 299.168 170.956 297.116 170.899 295.807C170.94 294.898 170.716 293.996 170.252 293.208C169.789 292.42 169.106 291.779 168.285 291.362C167.138 290.837 165.849 290.696 164.614 290.96C164.094 291.028 163.606 291.243 163.207 291.579C163 291.773 162.85 292.019 162.773 292.29C162.696 292.562 162.695 292.849 162.771 293.121C162.899 293.418 163.092 293.682 163.338 293.896L167.493 298.036C167.808 298.41 168.223 298.689 168.692 298.839V298.839Z" fill="white"/>
<path d="M192.207 320.961C192.933 321.125 193.337 320.097 193.312 319.443C193.333 318.99 193.223 318.541 192.994 318.147C192.765 317.754 192.427 317.433 192.019 317.222C191.447 316.962 190.805 316.892 190.188 317.021C189.929 317.056 189.685 317.163 189.487 317.331C189.382 317.427 189.306 317.55 189.268 317.686C189.229 317.822 189.228 317.966 189.267 318.102C189.328 318.256 189.426 318.394 189.552 318.503L191.628 320.571C191.781 320.751 191.981 320.885 192.207 320.961V320.961Z" fill="white"/>
</svg>
