<svg width="455" height="400" viewBox="0 0 455 400" fill="none" xmlns="http://www.w3.org/2000/svg">
<path opacity="0.18" d="M448.007 339.07C445.763 343.761 442.884 348.081 439.462 351.896C423.193 369.926 396.923 373.277 373.539 369.874C350.155 366.47 327.729 357.521 304.271 355.129C266.956 351.331 230.225 364.328 194.814 377.075C159.402 389.822 122.672 402.95 85.3568 399.415C50.2186 396.104 14.2471 373.882 3.40095 339.044C2.72472 336.887 2.15592 334.694 1.69691 332.474C-9.41048 279.619 37.7679 230.142 34.5464 176.092C33.6509 160.993 28.7999 146.471 26.7725 131.49C20.0061 81.4351 49.1614 28.4625 93.6034 9.85441C171.591 -22.7755 255.948 37.4512 337.195 21.3531C418.193 5.36008 428.79 45.6908 421.116 128.81C418.535 157.16 421.412 185.769 429.574 212.914C436.639 236.332 447.609 258.449 452.597 282.458C456.515 301.276 456.08 322.289 448.007 339.07Z" fill="#FF0D11"/>
<path d="M204 240.025C197.424 236.58 191.66 231.669 187.12 225.644L188 224.938V191.688C188 191.688 200 187.531 228 187.531C256 187.531 268 191.688 268 191.688V224.938L268.88 225.644C264.34 231.669 258.576 236.58 252 240.025C244.514 243.772 236.31 245.719 228 245.719C219.69 245.719 211.487 243.772 204 240.025Z" fill="#F5F5F5"/>
<path d="M200 183.375C204.418 183.375 208 177.793 208 170.906C208 164.02 204.418 158.438 200 158.438C195.582 158.438 192 164.02 192 170.906C192 177.793 195.582 183.375 200 183.375Z" fill="#5E3616"/>
<path d="M256 183.375C260.418 183.375 264 177.793 264 170.906C264 164.02 260.418 158.438 256 158.438C251.582 158.438 248 164.02 248 170.906C248 177.793 251.582 183.375 256 183.375Z" fill="#5E3616"/>
<path d="M243.96 116.958C242.76 118.662 223.12 145.969 196 145.969V121.031L172 141.813V162.594H164C161.88 162.6 159.849 163.478 158.35 165.036C156.851 166.593 156.006 168.704 156 170.906V175.063C156.102 179.522 157.481 183.848 159.96 187.49C158.76 186.991 140 178.554 140 158.438C140.226 152.029 141.772 145.746 144.532 140.011C147.292 134.275 151.202 129.221 156 125.188C149.299 125.334 142.702 123.445 137.018 119.754C131.334 116.063 126.81 110.729 124 104.406C124 104.406 156 100.25 172 91.9376C188 83.6251 196 71.1563 228 71.1563C235.802 70.9084 243.541 72.6774 250.523 76.3045C257.504 79.9317 263.51 85.3034 268 91.9376C269.687 89.1713 272.069 86.9354 274.888 85.4707C277.707 84.0061 280.858 83.3679 284 83.6251C296 83.6251 316 91.9376 316 116.875V152.619C316.001 156.398 314.759 160.064 312.48 163.009L300 179.219L299.56 179.26C299.847 177.881 299.994 176.474 300 175.063V170.906C299.994 168.704 299.149 166.593 297.65 165.036C296.151 163.478 294.12 162.6 292 162.594H284V145.969C264 145.969 264 112.719 264 112.719C264 112.719 252 133.5 240 133.5L243.96 116.958Z" fill="black"/>
<path d="M292 162.594H284V145.969C264 145.969 264 112.719 264 112.719C264 112.719 252 133.5 240 133.5L243.96 116.958C242.76 118.662 223.12 145.969 196 145.969V121.031L172 141.812V162.594H164C161.88 162.6 159.849 163.478 158.35 165.036C156.851 166.593 156.006 168.704 156 170.906V175.062C156.102 179.522 157.481 183.848 159.96 187.49L160 187.531C163.859 193.413 169.486 197.798 176 200C177.702 209.342 181.513 218.131 187.12 225.644L188 224.938V191.688C188 191.688 200 187.531 228 187.531C256 187.531 268 191.688 268 191.688V224.938L268.88 225.644C274.487 218.131 278.298 209.342 280 200C284.65 198.481 288.868 195.793 292.28 192.175C295.691 188.558 298.192 184.122 299.56 179.26C299.847 177.881 299.994 176.474 300 175.062V170.906C299.994 168.704 299.149 166.593 297.65 165.036C296.151 163.478 294.12 162.6 292 162.594ZM200 183.375C195.6 183.375 192 177.806 192 170.906C192 164.007 195.6 158.438 200 158.438C204.4 158.438 208 164.007 208 170.906C208 177.806 204.4 183.375 200 183.375ZM256 183.375C251.6 183.375 248 177.806 248 170.906C248 164.007 251.6 158.438 256 158.438C260.4 158.438 264 164.007 264 170.906C264 177.806 260.4 183.375 256 183.375Z" fill="#F2C4B2"/>
<path d="M252 259.933C251.999 261.325 252.336 262.694 252.979 263.914C253.622 265.135 254.551 266.167 255.68 266.916C254.12 269.077 245.8 278.969 228 278.969C210.2 278.969 201.88 269.077 200.32 266.916C201.449 266.167 202.378 265.135 203.022 263.914C203.665 262.694 204.001 261.325 204 259.933V240.025C211.487 243.772 219.69 245.719 228 245.719C236.31 245.719 244.514 243.772 252 240.025V259.933Z" fill="#F2B59D"/>
<path d="M336 306.982V324.688H120V306.982C120.004 301.372 121.826 295.927 125.171 291.524C128.516 287.121 133.19 284.016 138.44 282.71L197.84 268.038C198.722 267.812 199.56 267.432 200.32 266.916C201.88 269.077 210.2 278.969 228 278.969C245.8 278.969 254.12 269.077 255.68 266.916C256.44 267.432 257.278 267.812 258.16 268.038L317.56 282.71C322.81 284.016 327.484 287.121 330.829 291.524C334.174 295.927 335.996 301.372 336 306.982Z" fill="#FF0D11"/>
<path d="M160 315.153C159.997 313.1 160.632 311.102 161.81 309.454C162.989 307.807 164.648 306.598 166.54 306.009L275.032 272.19L258.16 268.034C257.278 267.807 256.44 267.428 255.68 266.911C254.12 269.073 245.8 278.965 228 278.965C210.2 278.965 201.88 269.073 200.32 266.911C199.56 267.428 198.722 267.807 197.84 268.034L138.44 282.709C133.19 284.016 128.516 287.121 125.171 291.524C121.826 295.927 120.004 301.372 120 306.982V324.688H169.176C166.742 324.688 164.408 323.683 162.688 321.895C160.967 320.107 160 317.682 160 315.153Z" fill="#FF0D11"/>
<path d="M252 240.025C244.514 243.772 236.31 245.719 228 245.719C219.69 245.719 211.487 243.772 204 240.025V259.933C204.001 261.325 203.665 262.694 203.022 263.914C202.378 265.135 201.449 266.167 200.32 266.916C202.81 270.043 205.892 272.604 209.376 274.438L252 246.758V240.025Z" fill="#ED9776"/>
<path d="M258.16 268.038C257.064 267.756 256.036 267.241 255.141 266.526C254.246 265.81 253.503 264.91 252.96 263.882C252.884 263.973 252.784 264.035 252.716 264.135C252.648 264.235 252.552 264.335 252.476 264.439C251.708 265.503 244.508 274.829 227.996 274.829C211.484 274.829 204.284 265.503 203.516 264.439C203.44 264.335 203.36 264.235 203.276 264.135C203.192 264.035 203.108 263.973 203.032 263.882C202.488 264.91 201.746 265.81 200.851 266.526C199.956 267.241 198.928 267.756 197.832 268.038L196.432 268.383C196.65 268.837 196.929 269.256 197.26 269.63C199.284 272.319 208.568 283.125 228 283.125C247.432 283.125 256.716 272.319 258.732 269.617C259.063 269.244 259.341 268.824 259.56 268.37L258.16 268.038Z" fill="#E3E3E3"/>
<path d="M172 170.906H168C166.939 170.906 165.922 171.344 165.172 172.124C164.421 172.903 164 173.96 164 175.062V179.219C164 183.811 167.58 191.688 172 191.688V170.906Z" fill="#F2A283"/>
<path d="M284 170.906H288C289.061 170.906 290.078 171.344 290.828 172.124C291.579 172.903 292 173.96 292 175.062V179.219C292 183.811 288.4 191.688 284 191.688V170.906Z" fill="#F2A283"/>
<path d="M156 125.188C151.202 129.221 147.292 134.275 144.532 140.011C141.772 145.746 140.226 152.029 140 158.438C140 178.554 158.76 186.991 159.96 187.49C157.481 183.848 156.102 179.522 156 175.062V170.906C156.006 168.704 156.851 166.593 158.35 165.036C159.849 163.478 161.88 162.6 164 162.594H172V141.812L148 150.125C147.585 141.067 150.438 132.175 156 125.188V125.188Z" fill="black"/>
<path d="M284 145.969V162.594H292C294.12 162.6 296.151 163.478 297.65 165.036C299.149 166.593 299.994 168.704 300 170.906V154.281L284 145.969Z" fill="black"/>
<path d="M232 187.569V187.531C232 182.939 230.208 179.219 228 179.219C225.792 179.219 224 182.939 224 187.531V187.569C225.308 187.569 226.62 187.531 228 187.531C229.38 187.531 230.692 187.531 232 187.569Z" fill="#D9896D"/>
<path d="M228 237.406C225.116 237.43 222.238 237.13 219.416 236.513C215.012 235.467 211.083 232.89 208.28 229.209C205.477 225.527 203.967 220.962 204 216.268V188.745C198.59 189.203 193.233 190.188 188 191.687V224.938L187.12 225.644C191.66 231.669 197.424 236.58 204 240.025C211.487 243.772 219.69 245.719 228 245.719C236.31 245.719 244.514 243.772 252 240.025C258.576 236.58 264.34 231.669 268.88 225.644L268 224.938C268 224.938 248 237.406 228 237.406Z" fill="#D4D4D4"/>
<path d="M200 210.391C199.526 210.39 199.068 210.213 198.707 209.894C198.346 209.574 198.107 209.132 198.031 208.645C197.955 208.159 198.048 207.66 198.293 207.239C198.538 206.817 198.919 206.499 199.368 206.342C218.064 200.657 237.937 200.657 256.632 206.342C256.882 206.429 257.112 206.565 257.311 206.744C257.509 206.923 257.672 207.14 257.789 207.384C257.907 207.629 257.977 207.894 257.996 208.167C258.014 208.439 257.981 208.712 257.898 208.971C257.815 209.23 257.684 209.47 257.512 209.676C257.34 209.882 257.13 210.051 256.896 210.173C256.661 210.296 256.405 210.369 256.143 210.388C255.881 210.407 255.618 210.373 255.368 210.287C237.493 204.886 218.508 204.886 200.632 210.287C200.429 210.358 200.215 210.393 200 210.391Z" fill="#D4D4D4"/>
<path d="M200 227.016C199.526 227.015 199.068 226.838 198.707 226.519C198.346 226.199 198.107 225.757 198.031 225.27C197.955 224.784 198.048 224.285 198.293 223.864C198.538 223.442 198.919 223.124 199.368 222.967C218.064 217.282 237.937 217.282 256.632 222.967C256.882 223.054 257.112 223.19 257.311 223.369C257.509 223.548 257.672 223.765 257.789 224.009C257.907 224.254 257.977 224.519 257.996 224.792C258.014 225.064 257.981 225.337 257.898 225.596C257.815 225.855 257.684 226.095 257.512 226.301C257.34 226.507 257.13 226.676 256.896 226.798C256.661 226.921 256.405 226.994 256.143 227.013C255.881 227.032 255.618 226.998 255.368 226.912C237.493 221.511 218.508 221.511 200.632 226.912C200.429 226.983 200.215 227.018 200 227.016V227.016Z" fill="#D4D4D4"/>
<path d="M320 241.562H312V233.25C312 232.148 311.579 231.091 310.828 230.311C310.078 229.532 309.061 229.094 308 229.094C306.939 229.094 305.922 229.532 305.172 230.311C304.421 231.091 304 232.148 304 233.25V241.562H296C294.939 241.562 293.922 242 293.172 242.78C292.421 243.559 292 244.616 292 245.719C292 246.821 292.421 247.878 293.172 248.658C293.922 249.437 294.939 249.875 296 249.875H304V258.188C304 259.29 304.421 260.347 305.172 261.126C305.922 261.906 306.939 262.344 308 262.344C309.061 262.344 310.078 261.906 310.828 261.126C311.579 260.347 312 259.29 312 258.188V249.875H320C321.061 249.875 322.078 249.437 322.828 248.658C323.579 247.878 324 246.821 324 245.719C324 244.616 323.579 243.559 322.828 242.78C322.078 242 321.061 241.562 320 241.562Z" fill="#FF0D11"/>
<path d="M160 208.312H152V200C152 198.898 151.579 197.841 150.828 197.061C150.078 196.282 149.061 195.844 148 195.844C146.939 195.844 145.922 196.282 145.172 197.061C144.421 197.841 144 198.898 144 200V208.312H136C134.939 208.312 133.922 208.75 133.172 209.53C132.421 210.309 132 211.366 132 212.469C132 213.571 132.421 214.628 133.172 215.408C133.922 216.187 134.939 216.625 136 216.625H144V224.938C144 226.04 144.421 227.097 145.172 227.876C145.922 228.656 146.939 229.094 148 229.094C149.061 229.094 150.078 228.656 150.828 227.876C151.579 227.097 152 226.04 152 224.938V216.625H160C161.061 216.625 162.078 216.187 162.828 215.408C163.579 214.628 164 213.571 164 212.469C164 211.366 163.579 210.309 162.828 209.53C162.078 208.75 161.061 208.312 160 208.312Z" fill="#FF0D11"/>
<path d="M284.992 160.79C284.763 160.654 284.512 160.566 284.251 160.531C283.99 160.497 283.725 160.516 283.471 160.588C283.218 160.659 282.98 160.783 282.772 160.95C282.564 161.117 282.39 161.326 282.26 161.563L267.06 189.244C254.236 186.337 241.119 185.064 228 185.453C214.886 185.065 201.777 186.338 188.96 189.244L173.76 161.563C173.494 161.084 173.057 160.733 172.543 160.589C172.029 160.445 171.481 160.519 171.02 160.794C170.558 161.07 170.221 161.524 170.082 162.058C169.943 162.592 170.014 163.162 170.28 163.641L186 192.244V224.938C186 225.489 186.21 226.017 186.585 226.407C186.96 226.797 187.469 227.016 188 227.016C188.079 227.005 188.158 226.989 188.236 226.966C187.872 226.517 187.472 226.105 187.12 225.644L188 224.938V191.688C188 191.688 200 187.531 228 187.531C256 187.531 268 191.688 268 191.688V224.938L268.88 225.644C268.528 226.105 268.128 226.517 267.764 226.966C267.841 226.989 267.92 227.005 268 227.016C268.53 227.016 269.039 226.797 269.414 226.407C269.789 226.017 270 225.489 270 224.938V192.244L285.74 163.625C285.87 163.387 285.953 163.126 285.986 162.855C286.019 162.584 286 162.309 285.931 162.046C285.861 161.783 285.743 161.537 285.581 161.321C285.42 161.105 285.22 160.925 284.992 160.79Z" fill="#BFBFBF"/>
<path d="M192.376 156.28C192.292 156.305 192.212 156.326 192.128 156.343C190.928 156.567 190.008 154.585 190.008 153.242C190.008 152.864 190.144 143.891 202.008 143.891C213.872 143.891 214.008 152.864 214.008 153.242C214.026 153.79 213.912 154.333 213.677 154.823C213.442 155.313 213.092 155.734 212.66 156.048C211.784 156.6 210.94 156.085 210.26 155.216C209.928 154.801 209.672 154.269 209.316 153.87C208.966 153.507 208.56 153.208 208.116 152.984C207.067 152.345 205.957 151.82 204.804 151.418C203.272 150.96 201.654 150.906 200.097 151.263C198.54 151.619 197.093 152.374 195.888 153.458C194.885 154.606 193.697 155.561 192.376 156.28V156.28Z" fill="black"/>
<path d="M263.632 156.28C263.716 156.305 263.796 156.326 263.88 156.343C265.08 156.567 266 154.585 266 153.242C266 152.864 265.864 143.891 254 143.891C242.136 143.891 242 152.864 242 153.242C241.982 153.79 242.095 154.333 242.331 154.823C242.566 155.313 242.916 155.734 243.348 156.048C244.22 156.6 245.068 156.085 245.748 155.216C246.08 154.801 246.336 154.269 246.688 153.87C247.038 153.508 247.444 153.209 247.888 152.984C248.939 152.346 250.05 151.821 251.204 151.418C252.736 150.96 254.354 150.906 255.911 151.263C257.468 151.619 258.915 152.374 260.12 153.458C261.122 154.607 262.31 155.562 263.632 156.28Z" fill="black"/>
</svg>
